<svg xmlns="http://www.w3.org/2000/svg" width="1900" height="1200" style="width:100%;height:100%;transform:translate3d(0,0,0)" viewBox="0 0 1900 1200"><defs><mask id="e" mask-type="alpha"><g filter="url(#a)"><path fill="#fff" d="M0 0h1900v1200H0z" opacity="0"/><path fill="#2010b4" d="m-990-736-400 124-236 548 100 608v524H622l-1-558H-449l-5-1148z" style="display:block" transform="translate(950 600)"/></g></mask><mask id="f" mask-type="alpha"><g filter="url(#b)"><path fill="#fff" d="M0 0h1900v1200H0z" opacity="0"/><path fill="#2010b4" d="m-990-736-400 124-236 548 100 608v524H622l-1-558H-449l-5-1148z" style="display:block" transform="translate(950 600)"/></g></mask><mask id="g" mask-type="alpha"><g filter="url(#c)"><path fill="#fff" d="M0 0h1900v1200H0z" opacity="0"/><path fill="#2010b4" d="m-990-736-400 124-236 548 100 608v524H622l-1-558H-449l-5-1148z" style="display:block" transform="translate(950 600)"/></g></mask><mask id="h" mask-type="alpha"><path fill-opacity="0" stroke="#4893d3" stroke-width="83" d="m-427 498 218-318 37 119 599.8-542.4" style="display:block" transform="translate(950 600)"/></mask><filter id="a" width="100%" height="100%" x="0%" y="0%" filterUnits="objectBoundingBox"><feComponentTransfer in="SourceGraphic"><feFuncA tableValues="1.0 0.0" type="table"/></feComponentTransfer></filter><filter id="b" width="100%" height="100%" x="0%" y="0%" filterUnits="objectBoundingBox"><feComponentTransfer in="SourceGraphic"><feFuncA tableValues="1.0 0.0" type="table"/></feComponentTransfer></filter><filter id="c" width="100%" height="100%" x="0%" y="0%" filterUnits="objectBoundingBox"><feComponentTransfer in="SourceGraphic"><feFuncA tableValues="1.0 0.0" type="table"/></feComponentTransfer></filter><clipPath id="d"><path d="M0 0h1900v1200H0z"/></clipPath></defs><g clip-path="url(#d)"><g mask="url(#e)" style="display:block"><path fill="#fff" d="M1077.2 344a267 267 0 0 1-14 50.5 520 520 0 0 1 97.3-72.2c6.5-3.9 22-10.8 53.1-24.8 4.6-2 12.5-5.5 22-3.7a33 33 0 0 1 19.8 13 36 36 0 0 1 5 22.3 73 73 0 0 1-8.4 31 391 391 0 0 1-27.6 49.3c-7.3 11-17.3 25.4-30 41.5a432 432 0 0 1-11.8 133.3q-2.3 0-5.3-1.5c-5.7-3.6-5.8-12.3-6.5-19 0 0-.9-9.7-7.4-30.3-2.4-7.6-7-18.2-16.8-29.8-2.4 4.4-6.2 10.8-11.4 18a183 183 0 0 1-35.4 35.6c-18.1 15-34.7 28.8-53.3 44l-14-22.3-19.8 15.2a304 304 0 0 0-54.5-68.5l22-14.2-19.2-20.2 23.5-18.9a46 46 0 0 1-12-21.4 160 160 0 0 0-26.4 29.8 92 92 0 0 1-1-31c2-13 6.2-22 14.3-38.4l24.2-49a15 15 0 0 1-9.3-4.7c-4.1-4.8-3.1-11.3-2.5-15.8a39 39 0 0 1 7.8-17.6c.7-1 3-4 8.4-8.8a100 100 0 0 1 18.9-13.2c12.6-6 42.6 10.1 70.3 41.8"/><path d="M1181.7 421.3q-7.6 10.7-11.6 16.7c-22 32.7-25.8 45.8-27.4 53.8a92 92 0 0 0-1.5 10.1l7 2.5a79 79 0 0 1 11.7 18.8 134 134 0 0 1 9.7 38.5c1 9.5.8 17.2 6 20.3a11 11 0 0 0 7.6 1 429 429 0 0 0 10.2-138.4l-2-19.3c.4-2-.3-3.2-.6-3.5-1.4-2-5.2-2.6-9-.5M1028.3 317c.2.5-1.8 1.5-5 3.1l-5.5 2.9q-3.2 1.6-7.3 3-4.2 1.3-8 1-3.9 0-6.6-1.3t-3.7-2.6-.8-1.6c.4-.3 2 1.1 5.3 2q2.5.6 5.8.6 3.4-.1 7-1.2c5-1.6 9.5-3.8 13-5 3.4-1 5.7-1.3 5.8-.8"/><path fill="none" stroke="#000" stroke-miterlimit="10" d="M1028.3 317c.2.5-1.8 1.5-5 3.1l-5.5 2.9q-3.2 1.6-7.3 3-4.2 1.3-8 1-3.9 0-6.6-1.3t-3.7-2.6-.8-1.6c.4-.3 2 1.1 5.3 2q2.5.6 5.8.6 3.4-.1 7-1.2c5-1.6 9.5-3.8 13-5 3.4-1 5.7-1.3 5.8-.8z"/><path d="M989.4 349.2q0 .3-1.6 1.2a19 19 0 0 1-5.1 1.7c-2.3.4-5.4.3-8.4-1.5a9 9 0 0 1-3.3-4.3 12 12 0 0 1-.4-5.6q.4-2.7 1.4-5a39 39 0 0 1 6.4-10.8c3-3.4 5.3-4.9 5.6-4.6s-1.4 2.4-3.8 6a52 52 0 0 0-5.2 10.5q-.9 2.1-1.2 4.4-.4 2.3.2 4t2 2.9 3.2 1.4 3.2.3l5-.6q1.9-.3 2 0"/><path fill="none" stroke="#000" stroke-miterlimit="10" d="M989.4 349.2q0 .3-1.6 1.2a19 19 0 0 1-5.1 1.7c-2.3.4-5.4.3-8.4-1.5a9 9 0 0 1-3.3-4.3 12 12 0 0 1-.4-5.6q.4-2.7 1.4-5a39 39 0 0 1 6.4-10.8c3-3.4 5.3-4.9 5.6-4.6s-1.4 2.4-3.8 6a52 52 0 0 0-5.2 10.5q-.9 2.1-1.2 4.4-.4 2.3.2 4t2 2.9 3.2 1.4 3.2.3l5-.6q1.9-.3 2 0z"/><path d="M1037.5 318.3c.3.3-2.6 4.2-7.5 10.2l-8.9 10.4a139 139 0 0 1-11.7 12.1q-6.8 6.1-14 9.8a21 21 0 0 1-14.1 2c-4.1-1-6.7-3.5-7.9-5.5-1.1-2-1-3.4-.9-3.4.3-.1.6 1 2 2.6q1 1.3 2.8 2.4t4.5 1.7c3.5.7 8-.3 12.3-2.5a66 66 0 0 0 13.1-9.5q6.5-6 11.7-11.7l9.3-10c5.4-5.6 9-8.9 9.3-8.6"/><path fill="none" stroke="#000" stroke-miterlimit="10" d="M1037.5 318.3c.3.3-2.6 4.2-7.5 10.2l-8.9 10.4a139 139 0 0 1-11.7 12.1q-6.8 6.1-14 9.8a21 21 0 0 1-14.1 2c-4.1-1-6.7-3.5-7.9-5.5-1.1-2-1-3.4-.9-3.4.3-.1.6 1 2 2.6q1 1.3 2.8 2.4t4.5 1.7c3.5.7 8-.3 12.3-2.5a66 66 0 0 0 13.1-9.5q6.5-6 11.7-11.7l9.3-10c5.4-5.6 9-8.9 9.3-8.6z"/><path d="m946.8 479.3-.6-1.1-.6-1.5-.3-1-.3-1q-1.6-4.8-1.9-13.5a79 79 0 0 1 2.3-20.2q2.8-11.2 8.4-23.2 5.8-12 11.5-21.7 5.7-9.9 9.8-17.4c5.4-10 8.1-16.4 8.6-16.3.4.2-1.6 7-6.5 17.3q-3.9 7.8-9.2 17.8-5.6 10-11.2 21.7t-8.4 22.6a86 86 0 0 0-3 19.4 70 70 0 0 0 .8 13.2l.2 1.1.2 1z"/><path fill="none" stroke="#000" stroke-miterlimit="10" d="m946.8 479.3-.6-1.1-.6-1.5-.3-1-.3-1q-1.6-4.8-1.9-13.5a79 79 0 0 1 2.3-20.2q2.8-11.2 8.4-23.2 5.8-12 11.5-21.7 5.7-9.9 9.8-17.4c5.4-10 8.1-16.4 8.6-16.3.4.2-1.6 7-6.5 17.3q-3.9 7.8-9.2 17.8-5.6 10-11.2 21.7t-8.4 22.6a86 86 0 0 0-3 19.4 70 70 0 0 0 .8 13.2l.2 1.1.2 1z"/><path d="M1071.7 347.7q.3.2-2.3 7.2t-8.1 18.8-14.5 26.8q-4.4 7.4-10 15a93 93 0 0 1-13.4 14.3 62 62 0 0 1-16.7 10.3c-5.9 2.4-11.8 3.8-17.2 5.5a74 74 0 0 0-25.9 14.2 73 73 0 0 0-13.3 15c-2.6 4-3.8 6.5-4 6.4q-.5-.4 3-7a63 63 0 0 1 12.8-16.1 69 69 0 0 1 26.5-15.3c5.5-1.8 11.3-3.3 16.9-5.7a61 61 0 0 0 15.8-9.8q7.4-6.4 12.9-13.8 5.6-7.3 10-14.6 9-14.6 15-26.3 6-11.6 9-18.2 3.2-6.7 3.5-6.7"/><path fill="none" stroke="#000" stroke-miterlimit="10" d="M1071.7 347.7q.3.2-2.3 7.2t-8.1 18.8-14.5 26.8q-4.4 7.4-10 15a93 93 0 0 1-13.4 14.3 62 62 0 0 1-16.7 10.3c-5.9 2.4-11.8 3.8-17.2 5.5a74 74 0 0 0-25.9 14.2 73 73 0 0 0-13.3 15c-2.6 4-3.8 6.5-4 6.4q-.5-.4 3-7a63 63 0 0 1 12.8-16.1 69 69 0 0 1 26.5-15.3c5.5-1.8 11.3-3.3 16.9-5.7a61 61 0 0 0 15.8-9.8q7.4-6.4 12.9-13.8 5.6-7.3 10-14.6 9-14.6 15-26.3 6-11.6 9-18.2 3.2-6.7 3.5-6.7z"/><path d="m1036.8 416 .2-.8.6-1 .8-1.1q2.1-2.7 6.8-6.2c3-2.3 7-4.6 10.8-7.7q2.9-2.2 5.3-5.2 2.3-3 4-7l2.6-7.8a305 305 0 0 0 5.5-20.4c1.7-7.3 2.7-11.9 3.2-11.8s.2 4.8-1 12.3a169 169 0 0 1-7.4 29 32 32 0 0 1-4.4 7.7 32 32 0 0 1-6 5.6c-4.1 3.1-8.1 5.2-11.3 7.2q-4.8 3-7.1 5.2l-1 .9-.8.7q-.7.5-.8.4"/><path fill="none" stroke="#000" stroke-miterlimit="10" d="m1036.8 416 .2-.8.6-1 .8-1.1q2.1-2.7 6.8-6.2c3-2.3 7-4.6 10.8-7.7q2.9-2.2 5.3-5.2 2.3-3 4-7l2.6-7.8a305 305 0 0 0 5.5-20.4c1.7-7.3 2.7-11.9 3.2-11.8s.2 4.8-1 12.3a169 169 0 0 1-7.4 29 32 32 0 0 1-4.4 7.7 32 32 0 0 1-6 5.6c-4.1 3.1-8.1 5.2-11.3 7.2q-4.8 3-7.1 5.2l-1 .9-.8.7q-.7.5-.8.4z"/><path d="M1099 432q0 .4-4.1 4.6a203 203 0 0 1-59.5 39 99 99 0 0 1-22.3 6.6q-3.8.4-7.4.3a32 32 0 0 1-13.1-3.4q-5.7-3.2-9.3-7.4a51 51 0 0 1-9-14 21 21 0 0 1-2.2-5.7 24 24 0 0 1 3.3 5l3.9 6a55 55 0 0 0 5.7 7.2q3.6 3.7 8.8 6.5a30 30 0 0 0 12 2.8 45 45 0 0 0 14-1.8q7-2 14.3-5.1a235 235 0 0 0 47-26.9c11.1-8.2 17.5-14 17.8-13.7"/><path fill="none" stroke="#000" stroke-miterlimit="10" d="M1099 432q0 .4-4.1 4.6a203 203 0 0 1-59.5 39 99 99 0 0 1-22.3 6.6q-3.8.4-7.4.3a32 32 0 0 1-13.1-3.4q-5.7-3.2-9.3-7.4a51 51 0 0 1-9-14 21 21 0 0 1-2.2-5.7 24 24 0 0 1 3.3 5l3.9 6a55 55 0 0 0 5.7 7.2q3.6 3.7 8.8 6.5a30 30 0 0 0 12 2.8 45 45 0 0 0 14-1.8q7-2 14.3-5.1a235 235 0 0 0 47-26.9c11.1-8.2 17.5-14 17.8-13.7z"/><path d="M1113.5 498.6q-.2-.2 3.3-8.3 3.6-8 9.7-22.3c3.9-9.5 8.3-20.9 12.2-33.8q2.9-9.8 5-20.6 2-10.8 2.8-22.5l.1-5.8a46 46 0 0 0-1-10.8 13 13 0 0 0-2.2-4.4 9 9 0 0 0-3.8-2.6q-2.2-.9-4.8-.8l-5.1.2q-2.6 0-5 .6-10 1.6-18.4 4.8t-15.2 6.8c-9 4.7-16 9.2-21 12.2q-7.4 4.6-7.7 4.5 0-.4 7-5.6a247 247 0 0 1 20.6-13.1q6.8-3.8 15.3-7.3 8.6-3.6 18.9-5.3 2.5-.5 5.2-.6 2.7-.4 5.4-.3 3 0 5.8.9 3 1.1 5.2 3.5a16 16 0 0 1 2.9 5.5q.9 3 1 6 .3 3 .2 5.9l-.2 5.9a178 178 0 0 1-8.2 43.7 300 300 0 0 1-12.9 34q-6.5 14.1-10.6 21.9a46 46 0 0 1-4.5 7.7"/><path fill="none" stroke="#000" stroke-miterlimit="10" d="M1113.5 498.6q-.2-.2 3.3-8.3 3.6-8 9.7-22.3c3.9-9.5 8.3-20.9 12.2-33.8q2.9-9.8 5-20.6 2-10.8 2.8-22.5l.1-5.8a46 46 0 0 0-1-10.8 13 13 0 0 0-2.2-4.4 9 9 0 0 0-3.8-2.6q-2.2-.9-4.8-.8l-5.1.2q-2.6 0-5 .6-10 1.6-18.4 4.8t-15.2 6.8c-9 4.7-16 9.2-21 12.2q-7.4 4.6-7.7 4.5 0-.4 7-5.6a247 247 0 0 1 20.6-13.1q6.8-3.8 15.3-7.3 8.6-3.6 18.9-5.3 2.5-.5 5.2-.6 2.7-.4 5.4-.3 3 0 5.8.9 3 1.1 5.2 3.5a16 16 0 0 1 2.9 5.5q.9 3 1 6 .3 3 .2 5.9l-.2 5.9a178 178 0 0 1-8.2 43.7 300 300 0 0 1-12.9 34q-6.5 14.1-10.6 21.9a46 46 0 0 1-4.5 7.7z"/><path d="M1111.9 500q-.1.3-3.8.3a68 68 0 0 1-25-5 46 46 0 0 1-17.3-12.9q-.9-1.2-1-3t.7-3l1.1-2.2a340 340 0 0 1 12.2-20.6 53 53 0 0 1 8.2-11.2 62 62 0 0 1-6.3 12.3l-11.3 21c-.7 1.4-1.4 2.7-1.3 3.6q0 1.4 1.8 3 6.8 6.8 14.5 10.2a73 73 0 0 0 14 4.6q6.2 1.5 9.8 2t3.7.9"/><path fill="none" stroke="#000" stroke-miterlimit="10" d="M1111.9 500q-.1.3-3.8.3a68 68 0 0 1-25-5 46 46 0 0 1-17.3-12.9q-.9-1.2-1-3t.7-3l1.1-2.2a340 340 0 0 1 12.2-20.6 53 53 0 0 1 8.2-11.2 62 62 0 0 1-6.3 12.3l-11.3 21c-.7 1.4-1.4 2.7-1.3 3.6q0 1.4 1.8 3 6.8 6.8 14.5 10.2a73 73 0 0 0 14 4.6q6.2 1.5 9.8 2t3.7.9z"/><path d="M1056.8 510.9c-.8-.5 1.4-6.3 5-13q2.8-5.5 5.5-8.5c2.7-3 3.3-2.7 3.6-2.4s-.6 1.6-1.8 3.8l-4.4 8.5c-3.6 6.8-7.2 12-8 11.6"/><path fill="none" stroke="#000" stroke-miterlimit="10" d="M1056.8 510.9c-.8-.5 1.4-6.3 5-13q2.8-5.5 5.5-8.5c2.7-3 3.3-2.7 3.6-2.4s-.6 1.6-1.8 3.8l-4.4 8.5c-3.6 6.8-7.2 12-8 11.6z"/><path d="M1089.9 563c-.5 0-.2-4-2-10l-3.6-10.9-4.5-13.1-2.7-6.7a15 15 0 0 1-1.4-7.3 15 15 0 0 1 2.5-6.2l3-4.4a35 35 0 0 1 6.4-8.4c.4.3-1.4 3.9-4.5 9.6l-2.6 4.6a13 13 0 0 0-1.8 5.1q0 2.7 1.4 5.8a133 133 0 0 1 7 20.1q1.9 6.3 3 11.2.8 5 .5 7.8-.3 2.9-.7 2.9"/><path fill="none" stroke="#000" stroke-miterlimit="10" d="M1089.9 563c-.5 0-.2-4-2-10l-3.6-10.9-4.5-13.1-2.7-6.7a15 15 0 0 1-1.4-7.3 15 15 0 0 1 2.5-6.2l3-4.4a35 35 0 0 1 6.4-8.4c.4.3-1.4 3.9-4.5 9.6l-2.6 4.6a13 13 0 0 0-1.8 5.1q0 2.7 1.4 5.8a133 133 0 0 1 7 20.1q1.9 6.3 3 11.2.8 5 .5 7.8-.3 2.9-.7 2.9z"/><path d="M1088.3 568c-.2.3-3.6-1.9-8-6.5a78 78 0 0 1-7.1-8.8q-3.7-5.3-7.1-11.8a183 183 0 0 1-10.2-22.8c-1-3-1.3-6-.5-7.9.7-1.9 1.9-2.3 2-2.2.2.2-.5 1-.8 2.6q-.4 2.5 1.5 6.7l4.8 10 6 12A166 166 0 0 0 1082 560c3.9 4.9 6.7 7.6 6.3 8"/><path fill="none" stroke="#000" stroke-miterlimit="10" d="M1088.3 568c-.2.3-3.6-1.9-8-6.5a78 78 0 0 1-7.1-8.8q-3.7-5.3-7.1-11.8a183 183 0 0 1-10.2-22.8c-1-3-1.3-6-.5-7.9.7-1.9 1.9-2.3 2-2.2.2.2-.5 1-.8 2.6q-.4 2.5 1.5 6.7l4.8 10 6 12A166 166 0 0 0 1082 560c3.9 4.9 6.7 7.6 6.3 8z"/><path d="M986 471.2c.5.8-5 5.1-12 10.5-6.8 5.4-12.3 9.8-13 9.1-.6-.6 4-6.2 11-11.6 7-5.5 13.6-8.7 14-8"/><path fill="none" stroke="#000" stroke-miterlimit="10" d="M986 471.2c.5.8-5 5.1-12 10.5-6.8 5.4-12.3 9.8-13 9.1-.6-.6 4-6.2 11-11.6 7-5.5 13.6-8.7 14-8z"/><path d="M1046 601.7c-.5.3-4.3-6.5-11-17l-2.6-4.2-2.9-4.5-6.5-9.8a527 527 0 0 0-32.9-42.6l-7.8-8.8-3.6-3.9-3.3-3.6c-8.6-9.1-14.2-14.6-13.8-15q.3-.2 4.4 3.3l4.8 4.3q2.9 2.5 6.2 5.8l3.5 3.5 3.8 3.8q4 4 8 8.6a384 384 0 0 1 33.2 43l6.3 10 2.8 4.5 2.4 4.3 4 7.5a117 117 0 0 1 5 10.8"/><path fill="none" stroke="#000" stroke-miterlimit="10" d="M1046 601.7c-.5.3-4.3-6.5-11-17l-2.6-4.2-2.9-4.5-6.5-9.8a527 527 0 0 0-32.9-42.6l-7.8-8.8-3.6-3.9-3.3-3.6c-8.6-9.1-14.2-14.6-13.8-15q.3-.2 4.4 3.3l4.8 4.3q2.9 2.5 6.2 5.8l3.5 3.5 3.8 3.8q4 4 8 8.6a384 384 0 0 1 33.2 43l6.3 10 2.8 4.5 2.4 4.3 4 7.5a117 117 0 0 1 5 10.8z"/><path d="M1145.6 507.3a94 94 0 0 1-11.4 16.1l-6.3 7.7q-3.5 4.2-7.6 8.6a380 380 0 0 1-38 36q-4.8 3.9-9 7l-8.1 6c-10 7-16.5 10.7-16.7 10.4-.3-.4 5.8-4.8 15.3-12.3l7.7-6.2 8.8-7.2a535 535 0 0 0 37.8-35.7l7.8-8.4 6.6-7.3c8-9.2 12.7-15 13.1-14.7"/><path fill="none" stroke="#000" stroke-miterlimit="10" d="M1145.6 507.3a94 94 0 0 1-11.4 16.1l-6.3 7.7q-3.5 4.2-7.6 8.6a380 380 0 0 1-38 36q-4.8 3.9-9 7l-8.1 6c-10 7-16.5 10.7-16.7 10.4-.3-.4 5.8-4.8 15.3-12.3l7.7-6.2 8.8-7.2a535 535 0 0 0 37.8-35.7l7.8-8.4 6.6-7.3c8-9.2 12.7-15 13.1-14.7z"/><path d="m1189.7 423.3-.9-.5q-.8-.6-2.5-.7a6 6 0 0 0-4 1.3 17 17 0 0 0-3.6 4.6 590 590 0 0 0-34.5 63.2 28 28 0 0 0-2.2 5.6q-.5 2.6 0 4.2c.8 2.3 2.3 3 2.2 3.2l-1.1-.3q-1.2-.5-2.2-2.4t-.7-5q.4-3 1.9-6.2a297 297 0 0 1 34.7-63.6q2-3 4.5-4.8 1.3-.8 2.7-1 1.4-.3 2.4 0 2.2.3 2.8 1.4.7 1 .5 1"/><path fill="none" stroke="#000" stroke-miterlimit="10" d="m1189.7 423.3-.9-.5q-.8-.6-2.5-.7a6 6 0 0 0-4 1.3 17 17 0 0 0-3.6 4.6 590 590 0 0 0-34.5 63.2 28 28 0 0 0-2.2 5.6q-.5 2.6 0 4.2c.8 2.3 2.3 3 2.2 3.2l-1.1-.3q-1.2-.5-2.2-2.4t-.7-5q.4-3 1.9-6.2a297 297 0 0 1 34.7-63.6q2-3 4.5-4.8 1.3-.8 2.7-1 1.4-.3 2.4 0 2.2.3 2.8 1.4.7 1 .5 1z"/><path d="M1183 582.7c-.5-.1 1.4-8.8 3.8-22.8l1-5.6.9-6 1.7-13.2a486 486 0 0 0 3-61.2l-.5-13.4-.3-6-.4-5.7c-1.1-14.2-2.2-23-1.7-23q.3 0 1.5 6l.6 3.3.6 4 1.3 9.5.6 5.6.5 6.1q.6 6.3.8 13.5a385 385 0 0 1-3 61.7l-2 13.3-1.2 6-1.1 5.5q-1.1 5.3-2.2 9.4l-1 3.9-.9 3.2q-1.7 6-2 6"/><path fill="none" stroke="#000" stroke-miterlimit="10" d="M1183 582.7c-.5-.1 1.4-8.8 3.8-22.8l1-5.6.9-6 1.7-13.2a486 486 0 0 0 3-61.2l-.5-13.4-.3-6-.4-5.7c-1.1-14.2-2.2-23-1.7-23q.3 0 1.5 6l.6 3.3.6 4 1.3 9.5.6 5.6.5 6.1q.6 6.3.8 13.5a385 385 0 0 1-3 61.7l-2 13.3-1.2 6-1.1 5.5q-1.1 5.3-2.2 9.4l-1 3.9-.9 3.2q-1.7 6-2 6z"/><path d="M1180.3 584.4h-1q-1-.2-2.5-1.3-1.5-1-3-3.3a22 22 0 0 1-2-5.4q-.8-3-1.4-6.7l-1.2-7.5q-1.5-7.9-4-17a143 143 0 0 0-12-29c-3.9-7.1-7-11.2-6.6-11.5.3-.2 4 3.3 8.7 10.2a101 101 0 0 1 13 29.5 146 146 0 0 1 4.8 25l.9 6.5a16 16 0 0 0 3.6 8.3c1.5 1.5 2.8 1.9 2.7 2.2"/><path fill="none" stroke="#000" stroke-miterlimit="10" d="M1180.3 584.4h-1q-1-.2-2.5-1.3-1.5-1-3-3.3a22 22 0 0 1-2-5.4q-.8-3-1.4-6.7l-1.2-7.5q-1.5-7.9-4-17a143 143 0 0 0-12-29c-3.9-7.1-7-11.2-6.6-11.5.3-.2 4 3.3 8.7 10.2a101 101 0 0 1 13 29.5 146 146 0 0 1 4.8 25l.9 6.5a16 16 0 0 0 3.6 8.3c1.5 1.5 2.8 1.9 2.7 2.2z"/><path d="M1193.7 452q0-.2 2.3-3.2l2.8-3.8 3.9-5a406 406 0 0 0 36.5-58.1 648 648 0 0 0 14.2-28.8 81 81 0 0 0 5-16.3q1.7-8.7 0-17.5a34 34 0 0 0-8-16 25 25 0 0 0-16-7.9c-6.2-.7-12.5.5-18.5 2.3q-4.5 1.4-8.8 3.1l-8.5 3.7q-16.9 7.6-31.7 16-7.4 4.3-14.2 8.5-6.9 4.2-13.2 8.4-6.3 4.1-12 8.2-5.9 4-11 7.8c-14 10-24.9 18.6-32.5 24.5l-8.8 6.7q-3 2.3-3.2 2.2l2.8-2.7 8.4-7.2a757 757 0 0 1 31.9-25.4l10.9-8 12-8.3 13.1-8.7 14.3-8.5q14.9-8.6 31.9-16.4l8.6-3.7q4.5-1.9 9-3.3c6.3-1.9 13-3.2 19.9-2.4q5.2.5 9.9 2.8a28 28 0 0 1 8 6.2 37 37 0 0 1 8.8 17.4 44 44 0 0 1 0 18.7q-1.8 9-5.3 17-3.5 7.8-7.3 15a599 599 0 0 1-21.6 38.2 336 336 0 0 1-23.6 33.2l-4.1 5z"/><path fill="none" stroke="#000" stroke-miterlimit="10" d="M1193.7 452q0-.2 2.3-3.2l2.8-3.8 3.9-5a406 406 0 0 0 36.5-58.1 648 648 0 0 0 14.2-28.8 81 81 0 0 0 5-16.3q1.7-8.7 0-17.5a34 34 0 0 0-8-16 25 25 0 0 0-16-7.9c-6.2-.7-12.5.5-18.5 2.3q-4.5 1.4-8.8 3.1l-8.5 3.7q-16.9 7.6-31.7 16-7.4 4.3-14.2 8.5-6.9 4.2-13.2 8.4-6.3 4.1-12 8.2-5.9 4-11 7.8c-14 10-24.9 18.6-32.5 24.5l-8.8 6.7q-3 2.3-3.2 2.2l2.8-2.7 8.4-7.2a757 757 0 0 1 31.9-25.4l10.9-8 12-8.3 13.1-8.7 14.3-8.5q14.9-8.6 31.9-16.4l8.6-3.7q4.5-1.9 9-3.3c6.3-1.9 13-3.2 19.9-2.4q5.2.5 9.9 2.8a28 28 0 0 1 8 6.2 37 37 0 0 1 8.8 17.4 44 44 0 0 1 0 18.7q-1.8 9-5.3 17-3.5 7.8-7.3 15a599 599 0 0 1-21.6 38.2 336 336 0 0 1-23.6 33.2l-4.1 5z"/><path d="M1237.4 386q-.3-.1-.2-4.3a50 50 0 0 0-8.4-26.8 74 74 0 0 0-13.6-15.7 125 125 0 0 0-25-16.7q-3.8-1.8-7.4-3a44 44 0 0 0-11.3-2h-3.1q-1 0-1.2-.2 0-.2 1.1-.5l1.3-.3 2-.2c2.7-.3 6.9-.2 11.8 1a55 55 0 0 1 16.4 7q8.7 4.8 17.5 12.4a71 71 0 0 1 14 16.6 51 51 0 0 1 6.6 16.5q1.3 7.6.5 12-.6 4.3-1 4.2"/><path fill="none" stroke="#000" stroke-miterlimit="10" d="M1237.4 386q-.3-.1-.2-4.3a50 50 0 0 0-8.4-26.8 74 74 0 0 0-13.6-15.7 125 125 0 0 0-25-16.7q-3.8-1.8-7.4-3a44 44 0 0 0-11.3-2h-3.1q-1 0-1.2-.2 0-.2 1.1-.5l1.3-.3 2-.2c2.7-.3 6.9-.2 11.8 1a55 55 0 0 1 16.4 7q8.7 4.8 17.5 12.4a71 71 0 0 1 14 16.6 51 51 0 0 1 6.6 16.5q1.3 7.6.5 12-.6 4.3-1 4.2z"/><path d="M980 511.3c.5.8-4.3 4-10.1 8-5.8 3.8-10.6 7-11.2 6.4-.6-.7 3.3-5.1 9.4-9.2 6-4 11.6-6 12-5.2"/><path fill="none" stroke="#000" stroke-miterlimit="10" d="M980 511.3c.5.8-4.3 4-10.1 8-5.8 3.8-10.6 7-11.2 6.4-.6-.7 3.3-5.1 9.4-9.2 6-4 11.6-6 12-5.2z"/><path d="M1011.6 592.5c-.4.3-3.4-3.5-8-9.7l-7.9-11q-4.4-6.4-9.6-13.5c-14.1-18.6-28.4-31.4-27.8-32.1.3-.4 4.2 2.4 10 7.7a173 173 0 0 1 20.4 22.5q5.4 7.1 9.5 13.7l7.4 11.4c4 6.6 6.4 10.8 6 11"/><path fill="none" stroke="#000" stroke-miterlimit="10" d="M1011.6 592.5c-.4.3-3.4-3.5-8-9.7l-7.9-11q-4.4-6.4-9.6-13.5c-14.1-18.6-28.4-31.4-27.8-32.1.3-.4 4.2 2.4 10 7.7a173 173 0 0 1 20.4 22.5q5.4 7.1 9.5 13.7l7.4 11.4c4 6.6 6.4 10.8 6 11z"/><path d="M1032.7 578.6c.5.7-3.7 4.7-9.3 8.9s-10.7 7-11.3 6.2c-.5-.7 3.7-4.7 9.3-8.9s10.7-7 11.3-6.2"/><path fill="none" stroke="#000" stroke-miterlimit="10" d="M1032.7 578.6c.5.7-3.7 4.7-9.3 8.9s-10.7 7-11.3 6.2c-.5-.7 3.7-4.7 9.3-8.9s10.7-7 11.3-6.2z"/><path d="M1280.2 356.6a52 52 0 0 1-6 12.1 393 393 0 0 1-37 53.6 52 52 0 0 1-9.1 9.9c-.8-.6 11.7-17 26-37.8s25.3-38.3 26.1-37.8"/><path fill="none" stroke="#000" stroke-miterlimit="10" d="M1280.2 356.6a52 52 0 0 1-6 12.1 393 393 0 0 1-37 53.6 52 52 0 0 1-9.1 9.9c-.8-.6 11.7-17 26-37.8s25.3-38.3 26.1-37.8z"/><path d="M1115 525.2q.1.3-4.9 5.2l-14 13.3a1310 1310 0 0 1-113.8 92.8q-5.8 4-6 3.8a30 30 0 0 1 5.2-4.8l15-12.2a4373 4373 0 0 0 112.8-93.8q5.3-4.5 5.7-4.3"/><path fill="none" stroke="#000" stroke-miterlimit="10" d="M1115 525.2q.1.3-4.9 5.2l-14 13.3a1310 1310 0 0 1-113.8 92.8q-5.8 4-6 3.8a30 30 0 0 1 5.2-4.8l15-12.2a4373 4373 0 0 0 112.8-93.8q5.3-4.5 5.7-4.3z"/><path fill="#fff" d="M992 310.7c-1.5-9.7-4.8-40 14.2-62.1 2-2.4 20.9-24 34.7-17.7 6.6 3 9.4 10.7 10.6 15 .5-.1 6.2-1 10 2.8 3.7 3.6 4.3 9.6 1.3 14.6a47 47 0 0 1-2 37.6 65 65 0 0 1-68.7 9.7"/><path d="M1023.5 204.6c-1.8.7-6.2 2.6-17 15-7 8-6.2 8.5-11.3 14.1-10.6 11.9-14.5 10.5-21.5 19.9a39 39 0 0 0-8.9 21.8 35 35 0 0 0 4 17.8c1 1.8 7.5 13.6 21.5 17.4 5 1.4 13.7 3.8 20.3-1.6 6.8-5.5 6.2-15.3 6-16.6-.9-.1-7.5-1.3-10.5-6.9-3.5-6.7 0-17 6.5-18.6 5.3-1.3 10.4 3.5 11 4-.3-3.3-.2-8.6 2-14.5 2-5.5 4.2-7.3 11.7-18.2 8.2-12 9-14.9 9.3-17.4.2-1.6 1.3-10.6-4.5-15.4-6.4-5.4-16.7-1.5-18.6-.8"/><path d="M1061.8 295.4c-.5-.2 2-3.7 2.6-10q.7-4.9-.6-11.1-1.5-6.2-4.9-12.9-3.5-6.6-6.9-12.2l-5.9-10a39 39 0 0 1-5-9.5c.5-.3 3.1 2.8 7 8.2a235 235 0 0 1 13.7 22q3.6 7 5 13.8 1 6.8-.1 12-1.2 5.1-2.9 7.6-1.7 2.4-2 2.1"/><path fill="none" stroke="#000" stroke-miterlimit="10" d="M1061.8 295.4c-.5-.2 2-3.7 2.6-10q.7-4.9-.6-11.1-1.5-6.2-4.9-12.9-3.5-6.6-6.9-12.2l-5.9-10a39 39 0 0 1-5-9.5c.5-.3 3.1 2.8 7 8.2a235 235 0 0 1 13.7 22q3.6 7 5 13.8 1 6.8-.1 12-1.2 5.1-2.9 7.6-1.7 2.4-2 2.1z"/><path d="M1064.2 259.9q-.4-.3-.7-3c-.2-1.6-1-3.8-2.4-5.5a12 12 0 0 0-5.2-3.3c-1.5-.5-2.7-.7-2.8-1.1s1-1.2 3.2-1.2a10 10 0 0 1 9.5 11.2c-.3 2-1.2 3-1.6 2.9"/><path fill="none" stroke="#000" stroke-miterlimit="10" d="M1064.2 259.9q-.4-.3-.7-3c-.2-1.6-1-3.8-2.4-5.5a12 12 0 0 0-5.2-3.3c-1.5-.5-2.7-.7-2.8-1.1s1-1.2 3.2-1.2a10 10 0 0 1 9.5 11.2c-.3 2-1.2 3-1.6 2.9z"/><path d="M1023.5 289.2q.3.2-.9 1.9c-.8 1-2.4 2.2-4.7 2.7a11 11 0 0 1-8.3-1.5 14 14 0 0 1-5.6-8.5c-.8-3.7 0-7.2 1.3-10q1-2 2.3-3.7 1.3-1.6 2.8-2.6 3.2-2 5.3-1.7c1.4.2 2 .8 1.9 1l-1.8.3q-1.6.2-4 2.2l-2 2.4q-1 1.5-1.7 3.3-1.6 3.7-1 8.2 1.2 4.3 4.2 6.7 3.2 2 6.2 1.7c1.9-.2 3.4-1 4.3-1.5q1.5-1 1.7-1"/><path fill="none" stroke="#000" stroke-miterlimit="10" d="M1023.5 289.2q.3.2-.9 1.9c-.8 1-2.4 2.2-4.7 2.7a11 11 0 0 1-8.3-1.5 14 14 0 0 1-5.6-8.5c-.8-3.7 0-7.2 1.3-10q1-2 2.3-3.7 1.3-1.6 2.8-2.6 3.2-2 5.3-1.7c1.4.2 2 .8 1.9 1l-1.8.3q-1.6.2-4 2.2l-2 2.4q-1 1.5-1.7 3.3-1.6 3.7-1 8.2 1.2 4.3 4.2 6.7 3.2 2 6.2 1.7c1.9-.2 3.4-1 4.3-1.5q1.5-1 1.7-1z"/><path d="M1042.2 208.2c0-.1 1.1.5 2.3 2.1s2.5 4.5 2.7 8.2q.2 2.8-.5 6-.8 3-2.5 6.3c-2.2 4.3-5.6 8.3-8.9 12.4q-2.9 3.6-5.2 7a31 31 0 0 0-4.8 13.8l-.3 4.8v2l-.7.1h-1.9l-1.1-.3a9 9 0 0 1-3.2-1.6q-1.8-1.6-1.4-1.8.1-.1 2 .9a10 10 0 0 0 2.8.8h1.2l.2-.1-.1-1.1v-.7a45 45 0 0 1 1.2-10.6q1.1-4 3.4-7.9 2.4-3.8 5.4-7.4 5.3-6 8.8-11.7 1.6-2.9 2.5-5.6.8-2.9.8-5.3a16 16 0 0 0-1.5-7.5q-1.3-2.5-1.2-2.8"/><path fill="none" stroke="#000" stroke-miterlimit="10" d="M1042.2 208.2c0-.1 1.1.5 2.3 2.1s2.5 4.5 2.7 8.2q.2 2.8-.5 6-.8 3-2.5 6.3c-2.2 4.3-5.6 8.3-8.9 12.4q-2.9 3.6-5.2 7a31 31 0 0 0-4.8 13.8l-.3 4.8v2l-.7.1h-1.9l-1.1-.3a9 9 0 0 1-3.2-1.6q-1.8-1.6-1.4-1.8.1-.1 2 .9a10 10 0 0 0 2.8.8h1.2l.2-.1-.1-1.1v-.7a45 45 0 0 1 1.2-10.6q1.1-4 3.4-7.9 2.4-3.8 5.4-7.4 5.3-6 8.8-11.7 1.6-2.9 2.5-5.6.8-2.9.8-5.3a16 16 0 0 0-1.5-7.5q-1.3-2.5-1.2-2.8z"/><path d="M1043.7 213.2c-.3 0-.3-1.2-1-3a11 11 0 0 0-5.4-5.8q-2.3-1-5.4-.6-3 .5-6.3 2a44 44 0 0 0-12.5 9.3c-4 4-7.3 8.3-10.5 12.1q-4.8 5.9-9 10a41 41 0 0 1-9.3 6.7q-.7.4-.9.2c-.2-.4 3.7-3 8.6-8.5q3.7-4.3 8.2-10.2 4.4-6.2 10.5-12.6a43 43 0 0 1 13.7-9.7 24 24 0 0 1 7.2-2q3.7-.3 6.7 1.2a11 11 0 0 1 5.6 7.5c.4 2.2 0 3.5-.2 3.4"/><path fill="none" stroke="#000" stroke-miterlimit="10" d="M1043.7 213.2c-.3 0-.3-1.2-1-3a11 11 0 0 0-5.4-5.8q-2.3-1-5.4-.6-3 .5-6.3 2a44 44 0 0 0-12.5 9.3c-4 4-7.3 8.3-10.5 12.1q-4.8 5.9-9 10a41 41 0 0 1-9.3 6.7q-.7.4-.9.2c-.2-.4 3.7-3 8.6-8.5q3.7-4.3 8.2-10.2 4.4-6.2 10.5-12.6a43 43 0 0 1 13.7-9.7 24 24 0 0 1 7.2-2q3.7-.3 6.7 1.2a11 11 0 0 1 5.6 7.5c.4 2.2 0 3.5-.2 3.4z"/><path d="M1015.5 292.7c.2 0 1.2 1.6 1.1 5q0 2.5-1.5 5.8a16 16 0 0 1-5.3 6c-5 3.6-12.9 4.6-20.3 2a40 40 0 0 1-10.7-6 65 65 0 0 1-9.4-9 29 29 0 0 1-5-24.4 45 45 0 0 1 9.3-18 81 81 0 0 1 13.6-12.6q.1.3-3.2 3.9c-2 2.3-5.2 5.6-8.5 10.1a54 54 0 0 0-4.8 7.7 38 38 0 0 0-3.5 9.6 26 26 0 0 0 4.7 21.8 49 49 0 0 0 18.5 14 21 21 0 0 0 18-1 15 15 0 0 0 6.9-10c.4-3-.2-4.8.1-4.9"/><path fill="none" stroke="#000" stroke-miterlimit="10" d="M1015.5 292.7c.2 0 1.2 1.6 1.1 5q0 2.5-1.5 5.8a16 16 0 0 1-5.3 6c-5 3.6-12.9 4.6-20.3 2a40 40 0 0 1-10.7-6 65 65 0 0 1-9.4-9 29 29 0 0 1-5-24.4 45 45 0 0 1 9.3-18 81 81 0 0 1 13.6-12.6q.1.3-3.2 3.9c-2 2.3-5.2 5.6-8.5 10.1a54 54 0 0 0-4.8 7.7 38 38 0 0 0-3.5 9.6 26 26 0 0 0 4.7 21.8 49 49 0 0 0 18.5 14 21 21 0 0 0 18-1 15 15 0 0 0 6.9-10c.4-3-.2-4.8.1-4.9z"/><path d="M1049.2 258q-.6-.1-1.4-1.4l-1.9-3-2.1-2.7q-1-1.2-.8-1.8.4-.7 2-.1 1.9.6 3.6 2.8 1.5 2.3 1.4 4.2 0 1.8-.8 2"/><path fill="none" stroke="#000" stroke-miterlimit="10" d="M1049.2 258q-.6-.1-1.4-1.4l-1.9-3-2.1-2.7q-1-1.2-.8-1.8.4-.7 2-.1 1.9.6 3.6 2.8 1.5 2.3 1.4 4.2 0 1.8-.8 2z"/><path d="M1045 240.8q-.2.7-1.5 1.1-1.4.6-3 1.6-1.7 1.1-2.6 2.2t-1.7 1-.4-2a7 7 0 0 1 2.8-3.9c1.6-1 3.5-1.4 4.7-1.2q1.9.4 1.8 1.2"/><path fill="none" stroke="#000" stroke-miterlimit="10" d="M1045 240.8q-.2.7-1.5 1.1-1.4.6-3 1.6-1.7 1.1-2.6 2.2t-1.7 1-.4-2a7 7 0 0 1 2.8-3.9c1.6-1 3.5-1.4 4.7-1.2q1.9.4 1.8 1.2z"/><path d="M1063.4 268q.5.4-.6 2.1a8 8 0 0 1-4.4 2.6 8 8 0 0 1-5-.4q-2-1-1.6-1.7.4-.5 2-.6a24 24 0 0 0 7.5-1.7q1.5-.7 2.1-.4"/><path fill="none" stroke="#000" stroke-miterlimit="10" d="M1063.4 268q.5.4-.6 2.1a8 8 0 0 1-4.4 2.6 8 8 0 0 1-5-.4q-2-1-1.6-1.7.4-.5 2-.6a24 24 0 0 0 7.5-1.7q1.5-.7 2.1-.4z"/></g><g mask="url(#f)" style="display:block"><path fill="#fff" d="M1065.8 300a121 121 0 0 0 22.2-9 129 129 0 0 0 48.6-45.3l8-4.8 38.1-32.8a14 14 0 0 1-5.6 15.8c3-1.8 6.4-2 8.6-.5 2.6 1.8 2.7 5.3 2.8 8.4s.2 8.7-4 12.4c-4.9 4.2-11.4 2.6-12.1 2.5a51 51 0 0 1-27.6 15.2l-1 20.1a214 214 0 0 1-66.6 62c-13.3 4.2-26.4-.2-31-8.3-5.6-10.3.9-29.3 19.6-35.7"/><path fill="#fff" d="M1036.8 323a81 81 0 0 1 14.7-13.6c8.5-6.1 14.7-8 26-13.5 1.2-.6 14.3-7 24.9-13.6 12-7.8 12.3-10.6 42.8-38.6l22.2-19.3c14.5-12.8 20.4-18 22.1-16.6 1 .7 1 3.7-3.8 13.5 1.2-.1 4.6-.5 7.1 1.7 4 3.5 2 10.3 1.5 12.2-.7 2.3-2 6.7-6.4 8.7s-8.8 0-9.5-.3a45 45 0 0 1-27.6 17 44 44 0 0 1-1 19.3c-2.4 8.1-6.5 12.4-24.6 29.4a248 248 0 0 1-44 34.5c-3.5 2-6 3.4-9.5 3.8-16.3 2-30.6-18.3-34.9-24.7"/><path d="M1141.9 244.8q.2.3-2.7 4.6a156 156 0 0 1-69 52.8l-10.4 4.3a97 97 0 0 0-8.7 4.5 57 57 0 0 0-11 8.5l-1.5 1.6-1 1.3-1 1q-.2-.2.4-1.4l.8-1.4 1.3-1.9a38 38 0 0 1 10.8-9.7q3.9-2.5 8.7-4.9a253 253 0 0 1 16-7.2l5.7-2.7a177 177 0 0 0 48.2-35.2c8.4-8.5 13-14.5 13.4-14.2"/><path fill="none" stroke="#000" stroke-miterlimit="10" d="M1141.9 244.8q.2.3-2.7 4.6a156 156 0 0 1-69 52.8l-10.4 4.3a97 97 0 0 0-8.7 4.5 57 57 0 0 0-11 8.5l-1.5 1.6-1 1.3-1 1q-.2-.2.4-1.4l.8-1.4 1.3-1.9a38 38 0 0 1 10.8-9.7q3.9-2.5 8.7-4.9a253 253 0 0 1 16-7.2l5.7-2.7a177 177 0 0 0 48.2-35.2c8.4-8.5 13-14.5 13.4-14.2z"/><path d="M1149.4 281.5a57 57 0 0 1-8.4 12.4l-4.8 5.7q-2.6 3.1-5.8 6.5a229 229 0 0 1-29.6 26.1l-7.1 5-6.4 4c-7.9 4.8-13 7.1-13.2 6.8-.6-.9 19.2-12.1 40-30.6 20.9-18.3 34.5-36.5 35.3-35.9"/><path fill="none" stroke="#000" stroke-miterlimit="10" d="M1149.4 281.5a57 57 0 0 1-8.4 12.4l-4.8 5.7q-2.6 3.1-5.8 6.5a229 229 0 0 1-29.6 26.1l-7.1 5-6.4 4c-7.9 4.8-13 7.1-13.2 6.8-.6-.9 19.2-12.1 40-30.6 20.9-18.3 34.5-36.5 35.3-35.9z"/><path d="M1149.2 282.1c-.5-.1-.1-2.4 0-6l.2-3v-3.4a63 63 0 0 0-2.6-15.2l-1.2-3.2-1-2.7c-1.5-3.4-2.6-5.4-2.2-5.7s2.1 1.4 4.2 4.6l1.5 2.7 1.5 3.3a44 44 0 0 1 2.8 16.2q0 2-.3 3.6l-.5 3.1c-.9 3.8-2 5.9-2.4 5.7"/><path fill="none" stroke="#000" stroke-miterlimit="10" d="M1149.2 282.1c-.5-.1-.1-2.4 0-6l.2-3v-3.4a63 63 0 0 0-2.6-15.2l-1.2-3.2-1-2.7c-1.5-3.4-2.6-5.4-2.2-5.7s2.1 1.4 4.2 4.6l1.5 2.7 1.5 3.3a44 44 0 0 1 2.8 16.2q0 2-.3 3.6l-.5 3.1c-.9 3.8-2 5.9-2.4 5.7z"/><path d="M1182.9 223.1c-.3-.1.7-1.5 2.1-4a56 56 0 0 0 3.6-7.4l.5-1.5q.3-.6 0-1-.4-.8-2.2.2l-1.9 1.5-2 1.9-9 8c-16.2 14.1-29.8 25-30.4 24.4s12-12.7 28.3-27l9-7.7 2.1-1.8 2.3-1.8 1.5-.7a4 4 0 0 1 2.8 0l.9.5q.8.7 1.2 1.5.3 1.6-.1 2.7l-.8 1.8a38 38 0 0 1-4.5 7.3q-3 3.4-3.4 3.1"/><path fill="none" stroke="#000" stroke-miterlimit="10" d="M1182.9 223.1c-.3-.1.7-1.5 2.1-4a56 56 0 0 0 3.6-7.4l.5-1.5q.3-.6 0-1-.4-.8-2.2.2l-1.9 1.5-2 1.9-9 8c-16.2 14.1-29.8 25-30.4 24.4s12-12.7 28.3-27l9-7.7 2.1-1.8 2.3-1.8 1.5-.7a4 4 0 0 1 2.8 0l.9.5q.8.7 1.2 1.5.3 1.6-.1 2.7l-.8 1.8a38 38 0 0 1-4.5 7.3q-3 3.4-3.4 3.1z"/><path d="M1193.2 224.4c-.5 0-.8-.8-1.7-1.3l-1.6-.7a5 5 0 0 0-2.1 0c-1.6.2-3.1 1.2-4.3 1.9q-1.8 1-2.4.7-.4-.7.9-2.5.6-.9 1.9-1.9t3.2-1.5a6 6 0 0 1 6.2 2.5q.6 1.3.4 2-.1.9-.5.8"/><path fill="none" stroke="#000" stroke-miterlimit="10" d="M1193.2 224.4c-.5 0-.8-.8-1.7-1.3l-1.6-.7a5 5 0 0 0-2.1 0c-1.6.2-3.1 1.2-4.3 1.9q-1.8 1-2.4.7-.4-.7.9-2.5.6-.9 1.9-1.9t3.2-1.5a6 6 0 0 1 6.2 2.5q.6 1.3.4 2-.1.9-.5.8z"/><path d="M1195.4 230.6q-.5.1-2.2-1.2a10 10 0 0 0-4.3-1.7 10 10 0 0 0-4.6.7c-1.2.4-2 .9-2.4.6q-.7-.6 1.1-2.6a8 8 0 0 1 6.3-2 8 8 0 0 1 5.6 3.5q1.4 2.3.5 2.7"/><path fill="none" stroke="#000" stroke-miterlimit="10" d="M1195.4 230.6q-.5.1-2.2-1.2a10 10 0 0 0-4.3-1.7 10 10 0 0 0-4.6.7c-1.2.4-2 .9-2.4.6q-.7-.6 1.1-2.6a8 8 0 0 1 6.3-2 8 8 0 0 1 5.6 3.5q1.4 2.3.5 2.7z"/><path d="M1194.3 235.2q-.6.2-2-.6-1.4-.7-3.5-1.1h-3.7q-1.5.4-2 0t1-2a6 6 0 0 1 2.2-1 8 8 0 0 1 3-.2q1.6.2 2.7 1a6 6 0 0 1 1.8 1.6q1 1.8.5 2.3"/><path fill="none" stroke="#000" stroke-miterlimit="10" d="M1194.3 235.2q-.6.2-2-.6-1.4-.7-3.5-1.1h-3.7q-1.5.4-2 0t1-2a6 6 0 0 1 2.2-1 8 8 0 0 1 3-.2q1.6.2 2.7 1a6 6 0 0 1 1.8 1.6q1 1.8.5 2.3z"/><path d="M1191.4 240.3q-.6.2-1.7-.4l-2.7-.9-2.9-.4q-1.2.1-1.7-.5t1-1.7 4.3-.6q2.6.8 3.6 2.5.8 1.5.1 2"/><path fill="none" stroke="#000" stroke-miterlimit="10" d="M1191.4 240.3q-.6.2-1.7-.4l-2.7-.9-2.9-.4q-1.2.1-1.7-.5t1-1.7 4.3-.6q2.6.8 3.6 2.5.8 1.5.1 2z"/><path d="M1182.8 240.5c.2.4-1.5 1.5-3.5 4l-3.7 4.5a35 35 0 0 1-17.6 10.7c-3.4.7-5.6.6-5.6.2-.2-1 7.9-2.7 15.8-8.5q3-2.2 5.2-4.5l4.3-4a12 12 0 0 1 3.5-2.3q1.5-.4 1.6-.1"/><path fill="none" stroke="#000" stroke-miterlimit="10" d="M1182.8 240.5c.2.4-1.5 1.5-3.5 4l-3.7 4.5a35 35 0 0 1-17.6 10.7c-3.4.7-5.6.6-5.6.2-.2-1 7.9-2.7 15.8-8.5q3-2.2 5.2-4.5l4.3-4a12 12 0 0 1 3.5-2.3q1.5-.4 1.6-.1z"/><path d="M1191 241.5q.5.4-.7 2.1t-4.1 2.8q-3.1.7-5 0-1.8-.8-1.7-1.5.3-.6 2-.8 1.5-.2 3.7-.9t3.7-1.3q1.5-.8 2-.4"/><path fill="none" stroke="#000" stroke-miterlimit="10" d="M1191 241.5q.5.4-.7 2.1t-4.1 2.8q-3.1.7-5 0-1.8-.8-1.7-1.5.3-.6 2-.8 1.5-.2 3.7-.9t3.7-1.3q1.5-.8 2-.4z"/></g><g mask="url(#g)" style="display:block"><path fill="#fff" d="M972 553.8c-15.1-11.2-43.1 11.7-61.6 26-18.5 14.5-30.7 15.9-36.9 23.7C884 602.2 900 601 900 601s-28.9 11-43.1 29.6a54 54 0 0 0-12 32.8c.2 31.9 21.4 35.9 30.5 36.3 9 .4 11.1-3.3 11.1-3.3s-10.6-.1-17.4-16.5c-4-20.4 15.3-30.1 18.7-31.4 18.2-.6 37.8 8.7 41.5 5.8 27.5-2.3 42.2-25.7 47.5-38.5 5.4-13 4.5-35 4.5-35s-5.5-22.5-9.2-27"/><path d="M962.3 549.1c-16.3-2.1-34 13.5-43.2 20.4a647 647 0 0 1-50.1 34.6c17.7 3 19.2-2 26.6-5.7-10.2 1.2-14.3-1-17.3.5 11.4-17.4 43.5-26.1 54.5-34.1s21-13.2 29.3-12.7c9 .5 12.2 5.2 12.2 5.2s.5-7.5-12-8.2"/><path d="M969.9 556.3s8.1 10.6 9.4 19.6c1.2 9 4.7 68.6-51.3 76.4-27.2-1-16.7-7.4-39.7-5.2-23.5 4-30.5 36.9-5.3 50.9 4.6.9 5.3-2.6 5.3-2.6s-9.8 3-17.4-16.6a24.3 24.3 0 0 1 17.9-28.5c9.8-2.8 24 7.2 41 6.6 16.8-.6 58.7-19.4 52.7-80.1-2.3-16.9-12.6-20.5-12.6-20.5"/><path d="M894.3 604.5s-45.8 8.3-51.8 58.4c-.1 25.4 15.2 36.6 28 38 12.6 1.2 15.5-3.6 15.5-3.6s-2.9-.8-3.4.5c-32.1 5-42.6-27.2-31.5-53.7s43.1-39.6 43.1-39.6"/></g><g style="display:block"><path fill="#fff" d="M1282.3 1117c-.9-1.5-2.7-5-2.4-9.9"/><path d="M501.2 1094.8c-.9 0-1.8-210.3-2-469.7 0-259.5.5-469.8 1.4-469.8 1 0 1.8 210.3 2 469.8.1 259.4-.5 469.7-1.4 469.7"/><path fill="none" stroke="#000" stroke-miterlimit="10" d="M501.2 1094.8c-.9 0-1.8-210.3-2-469.7 0-259.5.5-469.8 1.4-469.8 1 0 1.8 210.3 2 469.8.1 259.4-.5 469.7-1.4 469.7z"/><path d="M550.5 214.1q-.4 0-4.3-7-4-7-10.6-19.7-6.8-12.6-15.4-29.3l-9-17.4-4.8-9.2-2.4-4.7-1.2-2.4-.9-1.5a.4.4 0 0 0-.6 0l-.8 1.6-6.4 14.4a506 506 0 0 1-36.7 65.5q-4.5 6.7-5 6.6-.1-.3 4-7.2t11-19.4a678 678 0 0 0 23.8-46.9q2.2-4.5 4.3-9.4l2-4.8.3-.7.3-.7q.3-.8 1.3-1.7t2-.8q1.3 0 2.2.6 1 .9 1.4 1.6l.7 1.3 1.2 2.4 2.4 4.7 4.7 9.3 23.6 47 9.7 20.2q3.4 7.3 3.2 7.6"/><path fill="none" stroke="#000" stroke-miterlimit="10" d="M550.5 214.1q-.4 0-4.3-7-4-7-10.6-19.7-6.8-12.6-15.4-29.3l-9-17.4-4.8-9.2-2.4-4.7-1.2-2.4-.9-1.5a.4.4 0 0 0-.6 0l-.8 1.6-6.4 14.4a506 506 0 0 1-36.7 65.5q-4.5 6.7-5 6.6-.1-.3 4-7.2t11-19.4a678 678 0 0 0 23.8-46.9q2.2-4.5 4.3-9.4l2-4.8.3-.7.3-.7q.3-.8 1.3-1.7t2-.8q1.3 0 2.2.6 1 .9 1.4 1.6l.7 1.3 1.2 2.4 2.4 4.7 4.7 9.3 23.6 47 9.7 20.2q3.4 7.3 3.2 7.6z"/><path d="M1494 1108.2c0 .9-208 1.4-464.4 1.1s-464.2-1.2-464.2-2.1 207.9-1.4 464.3-1.2c256.4.3 464.2 1.3 464.2 2.2"/><path fill="none" stroke="#000" stroke-miterlimit="10" d="M1494 1108.2c0 .9-208 1.4-464.4 1.1s-464.2-1.2-464.2-2.1 207.9-1.4 464.3-1.2c256.4.3 464.2 1.3 464.2 2.2z"/><path d="M855.4 1097.7c0 .9-59.2 1.6-132 1.6-73 0-132.1-.7-132.1-1.6s59.1-1.7 132-1.7 132 .8 132 1.7"/><path fill="none" stroke="#000" stroke-miterlimit="10" d="M855.4 1097.7c0 .9-59.2 1.6-132 1.6-73 0-132.1-.7-132.1-1.6s59.1-1.7 132-1.7 132 .8 132 1.7z"/><path d="M489.6 598c.9 0 1.6 36.3 1.6 81.2s-.7 81.3-1.6 81.3-1.7-36.4-1.7-81.3.8-81.3 1.7-81.3"/><path fill="none" stroke="#000" stroke-miterlimit="10" d="M489.6 598c.9 0 1.6 36.3 1.6 81.2s-.7 81.3-1.6 81.3-1.7-36.4-1.7-81.3.8-81.3 1.7-81.3z"/><path d="M1248 1117.2c0 .9-22.7 1.6-50.8 1.6s-50.8-.7-50.8-1.6 22.8-1.7 50.8-1.7 50.8.8 50.8 1.7"/><path fill="none" stroke="#000" stroke-miterlimit="10" d="M1248 1117.2c0 .9-22.7 1.6-50.8 1.6s-50.8-.7-50.8-1.6 22.8-1.7 50.8-1.7 50.8.8 50.8 1.7z"/></g><g mask="url(#h)" style="display:block"><path fill="#fff" d="M1282.3 1117c-.9-1.5-2.7-5-2.4-9.9"/><path d="m1379.4 348.2-.6.6-1.8 1.6-7.3 6.2-28.2 23.7L1297 418l-27.7 23.6-31 26.5c-86.6 74.6-205 179.1-332 298.7Q889 782.8 872 799l-33.3 31.7-32.3 31.2-33 32-4-9-2.9-6.8a818 818 0 0 1-24.6-68l-4-13.4-1.9-6.7-1-3.5-168.6 257.3-10 15.1-3 3.7 2.5-4 9.7-15.2 37-57.7 57.5-88.9 76-117.2 2.7 9.6 1.9 6.6a823 823 0 0 0 23 67.4l5.7 13.7 2.9 6.9 2 4.8 29.8-29 32.4-31.2 33.3-31.8 34.1-32.3a9038 9038 0 0 1 332.9-298l31.1-26.4 27.9-23.4 44.8-37.2 28.6-23.2 7.5-6 1.9-1.5z"/><path fill="none" stroke="#000" stroke-miterlimit="10" d="m1379.4 348.2-.6.6-1.8 1.6-7.3 6.2-28.2 23.7L1297 418l-27.7 23.6-31 26.5c-86.6 74.6-205 179.1-332 298.7Q889 782.8 872 799l-33.3 31.7-32.3 31.2-33 32-4-9-2.9-6.8a818 818 0 0 1-24.6-68l-4-13.4-1.9-6.7-1-3.5-168.6 257.3-10 15.1-3 3.7 2.5-4 9.7-15.2 37-57.7 57.5-88.9 76-117.2 2.7 9.6 1.9 6.6a823 823 0 0 0 23 67.4l5.7 13.7 2.9 6.9 2 4.8 29.8-29 32.4-31.2 33.3-31.8 34.1-32.3a9038 9038 0 0 1 332.9-298l31.1-26.4 27.9-23.4 44.8-37.2 28.6-23.2 7.5-6 1.9-1.5z"/><path d="M1381.4 390.2c-.4-.2 2-6.8 6.2-17.5l7.6-19 8.4-20-2.9.8c-18.7 5.2-35.8 9.8-48.1 13s-20.1 4.9-20.2 4.5 7.3-3 19.6-6.7c12.2-3.8 29-8.7 47.8-14l9.4-2.6-6.4 15.1-13.2 29.7a111 111 0 0 1-8.2 16.7"/><path fill="none" stroke="#000" stroke-miterlimit="10" d="M1381.4 390.2c-.4-.2 2-6.8 6.2-17.5l7.6-19 8.4-20-2.9.8c-18.7 5.2-35.8 9.8-48.1 13s-20.1 4.9-20.2 4.5 7.3-3 19.6-6.7c12.2-3.8 29-8.7 47.8-14l9.4-2.6-6.4 15.1-13.2 29.7a111 111 0 0 1-8.2 16.7z"/><path d="M1333.6 405.7c.6.6-18.6 18.3-42.8 39.4s-44.3 37.7-45 37c-.5-.7 18.6-18.3 42.9-39.4s44.3-37.7 44.9-37"/><path fill="none" stroke="#000" stroke-miterlimit="10" d="M1333.6 405.7c.6.6-18.6 18.3-42.8 39.4s-44.3 37.7-45 37c-.5-.7 18.6-18.3 42.9-39.4s44.3-37.7 44.9-37z"/><path d="M873.4 809.5c.6.7-19.2 21.5-44.2 46.5s-45.9 44.9-46.5 44.2 19.1-21.4 44.2-46.5c25-25 45.8-44.8 46.5-44.2"/><path fill="none" stroke="#000" stroke-miterlimit="10" d="M873.4 809.5c.6.7-19.2 21.5-44.2 46.5s-45.9 44.9-46.5 44.2 19.1-21.4 44.2-46.5c25-25 45.8-44.8 46.5-44.2z"/><path d="M950.1 706.1c.3.4-5.7 6.4-15.6 16a6231 6231 0 0 1-78.3 74.2 157 157 0 0 1-16.8 14.8q-.2-.3 3.8-4.7l11.4-11.7a1704 1704 0 0 1 90.7-85q4.6-3.7 4.8-3.6"/><path fill="none" stroke="#000" stroke-miterlimit="10" d="M950.1 706.1c.3.4-5.7 6.4-15.6 16a6231 6231 0 0 1-78.3 74.2 157 157 0 0 1-16.8 14.8q-.2-.3 3.8-4.7l11.4-11.7a1704 1704 0 0 1 90.7-85q4.6-3.7 4.8-3.6z"/><path d="M698.5 874q.2.4-3.8 5.8l-11.2 15a3148 3148 0 0 0-83.5 115.5 28 28 0 0 1-4.3 5.4c-.2 0 1-2.3 3.2-6q3.5-5.9 10-16A1133 1133 0 0 1 693.7 879q4.6-5 4.8-5"/><path fill="none" stroke="#000" stroke-miterlimit="10" d="M698.5 874q.2.4-3.8 5.8l-11.2 15a3148 3148 0 0 0-83.5 115.5 28 28 0 0 1-4.3 5.4c-.2 0 1-2.3 3.2-6q3.5-5.9 10-16A1133 1133 0 0 1 693.7 879q4.6-5 4.8-5z"/></g><g style="display:block"><path fill="#fff" d="M404.6 1153.7c-9-12.3-15-23.5-19-31.9-7.7-16.7-7.9-21.3-6.4-26.5 1.7-6 5.6-10.2 8.4-12.7a34 34 0 0 1-8.3-33.2 65 65 0 0 1-11-15.7 42 42 0 0 1-5.7-22c.4-6.3 2.5-11.2 4-14.2l-10.9-38.9c-4.7-17.2-8.6-31.9-3.8-45.3 2.9-7.8 6.5-9 7.6-9.3 4.3-1 8.5 2.4 10.7 4.1 2.2 1.8 4.3 4.2 10.4 15.8a303 303 0 0 1 14.2 30.1c4.5 11 15.1 39 28 76.7.8-1.4 2.8-4 5.7-4.5 4-.5 7.3 3.5 9.8 6.6a42 42 0 0 1 8.7 23l8.2 1.8q-1.4-17.2-1.5-28c-.1-6.8 0-12 3.6-14.6 2.7-2 6.4-1.6 8.6-1-5.3-14-8.9-25.7-11.3-34.1-6.7-24.4-11-40.2-7.9-59.7a91 91 0 0 1 6.3-21.9 8 8 0 0 1 6.8 4.3c0-2 .7-11.3 8.2-18 1.6-1.3 8-7 16.5-5.7 1.4.2 6.6 1.2 10.2 5.5 3 3.7 3.4 8 3.7 10.6 1 9.8 2.2 3.6 7.4 28.8 3.3 15.7 2 14.5 4.9 27.5 2.8 13.1 3.8 13.2 7.4 29a469 469 0 0 1 9 52.2c.2-1 .7-4.7 3.4-6.1 4.1-2.3 9.8 2.7 10.4 3.2 2.2 2 3.4 4.2 7 18 1.9 7.5 2.9 11.3 3.7 16.5q1.4 9.3 1.8 15.8c1.8 0 4.8.4 7.2 2.4 3 2.6 3.6 6.4 3.9 8.3l5.5 34.1zm883.5-45.2c.4-7.3 4.5-12 5.2-12.8a18 18 0 0 1 7.2-4.2c-3.6-9-5-16.7-5.8-22a48 48 0 0 1 1.6-23c2.6-7.2 5.6-8.5 7-8.9 1.8-.5 3.6 0 4.7.4-.7-5.2-1.3-13-.4-22.4.8-7.6 2.1-12.3 4.4-21.4 4.4-17.2 6.6-25.9 8.3-35.8 2-12.5 3.4-27.2 10-34.6 1-1.2 3.6-4.1 7-3.9 3 .2 5 3 5.6 3.7 3.1 4.2 2.8 9.5 2.7 10.7-1.2 19 3 38 2.3 57a815 815 0 0 0-.6 44.9q1.7-8.3 3.6-12.8c2-4.9 3.5-6.9 4.6-8.1 1.6-1.7 4.1-4.6 7.9-4.6 1.8 0 3.3.6 4.1 1 .6-4.1 2.3-12 8.8-17.1 1-.9 6.7-5.2 9.6-3.4 1.8 1.2 1.7 4 1.6 8.4l-.8 19.5a27 27 0 0 1 15.9-17.7c-1.7-7.5-1-13 0-16.6 1.9-8.2 5.8-10.7 8.8-20.3 1.6-5 .7-4.9 2.5-14.8 2.8-15.8 4.7-14.4 9-33.2 2-8.1 2.7-13 6-14 2.6-.7 5.7 1.3 7.3 3.3 2.4 2.8 2.4 6.1 2.4 10.4l.2 18.7c.3-.6 3-5.8 8-6.3.6 0 4.2-.5 6 1.6 1.5 2 .6 4.6.1 8.2-.8 5.6.3 7.8.5 13.2a99 99 0 0 1-3.7 27 430 430 0 0 0-8.7 55.7c1.5-.4 4.7-1.1 7.2.6 2.8 1.9 3.1 5.9 3.2 8.3.6 12-1.3 22.9-2.3 32-.8 6.7 2.4 15.3-.1 32.6l-2.4 15.4-156.1-4.8"/><path d="m424.8 1038-1.6-4.1-4-11.8c-3.6-10.2-8.8-25-16-43a807 807 0 0 0-27.6-62 30 30 0 0 0-5.3-7.5q-1.5-1.6-3.6-2.6-2-1-4.2-1.3c-3-.4-5.9.4-7.7 2.7a15 15 0 0 0-2.9 8.7q-.2 5 .2 10.4a227 227 0 0 0 14.3 67.2l.8 2 .5 1.4.3.9-.4.9-.7 1.2-.4 1-.8 1.9q-1.3 4-1.4 8.1-.1 8.5 3.1 16a78 78 0 0 0 7.8 14.2l4.5 6.5 1 1.3.1.2v.2l-.2.4-.3.8-.3 1-.2.9-.5 1.8-.2 1.8a29 29 0 0 0 5.3 20l1.1 1.2.6.7.7.8 2.2 1.9 1 1 .5.4.2.3-1 .2-1.3.1-1.1.3-1 .2-.5.2h-.2v.1h-.1l-.4.3-.8.6q-1.5 1.4-2.2 3.3a19 19 0 0 0-1.7 7.9q0 8.3 1.8 15.3c1.3 4.8 2.6 7.2 4.3 11q2.6 6 5.2 10.4 5.2 9.3 8.4 14l3 4.9q-.3 0-3.6-4.5a183 183 0 0 1-14.6-24c-1.8-4-3.3-6.4-4.6-11.2a56 56 0 0 1-2.2-16q0-4.4 1.8-8.8a13 13 0 0 1 2.7-4l1-1 .6-.3h.1v-.1h.1l.9-.3h.2l-.2-.2-.2-.2-.5-.5-.5-.4-.6-.7-1.2-1.4a32 32 0 0 1-6-21.8l.2-2 .5-2 .2-1 .3-.8v-.3l-.1-.3-4.7-6.5a77 77 0 0 1-8.1-14.7 42 42 0 0 1-3.4-17.3q0-4.5 1.5-9l.9-2.2.5-1.1.4-.8v-.2l-.3-.8-.8-2a228 228 0 0 1-14.5-68.2l-.2-5.4V917q.2-2.7 1-5.4a14 14 0 0 1 2.7-5.1q2-2.4 4.8-3.3 3-1 5.7-.5a17 17 0 0 1 9.6 4.9q3.7 3.8 5.8 8.3a754 754 0 0 1 45.6 117.9 22 22 0 0 1 1 4.2"/><path fill="none" stroke="#000" stroke-miterlimit="10" d="m424.8 1038-1.6-4.1-4-11.8c-3.6-10.2-8.8-25-16-43a807 807 0 0 0-27.6-62 30 30 0 0 0-5.3-7.5q-1.5-1.6-3.6-2.6-2-1-4.2-1.3c-3-.4-5.9.4-7.7 2.7a15 15 0 0 0-2.9 8.7q-.2 5 .2 10.4a227 227 0 0 0 14.3 67.2l.8 2 .5 1.4.3.9-.4.9-.7 1.2-.4 1-.8 1.9q-1.3 4-1.4 8.1-.1 8.5 3.1 16a78 78 0 0 0 7.8 14.2l4.5 6.5 1 1.3.1.2v.2l-.2.4-.3.8-.3 1-.2.9-.5 1.8-.2 1.8a29 29 0 0 0 5.3 20l1.1 1.2.6.7.7.8 2.2 1.9 1 1 .5.4.2.3-1 .2-1.3.1-1.1.3-1 .2-.5.2h-.2v.1h-.1l-.4.3-.8.6q-1.5 1.4-2.2 3.3a19 19 0 0 0-1.7 7.9q0 8.3 1.8 15.3c1.3 4.8 2.6 7.2 4.3 11q2.6 6 5.2 10.4 5.2 9.3 8.4 14l3 4.9q-.3 0-3.6-4.5a183 183 0 0 1-14.6-24c-1.8-4-3.3-6.4-4.6-11.2a56 56 0 0 1-2.2-16q0-4.4 1.8-8.8a13 13 0 0 1 2.7-4l1-1 .6-.3h.1v-.1h.1l.9-.3h.2l-.2-.2-.2-.2-.5-.5-.5-.4-.6-.7-1.2-1.4a32 32 0 0 1-6-21.8l.2-2 .5-2 .2-1 .3-.8v-.3l-.1-.3-4.7-6.5a77 77 0 0 1-8.1-14.7 42 42 0 0 1-3.4-17.3q0-4.5 1.5-9l.9-2.2.5-1.1.4-.8v-.2l-.3-.8-.8-2a228 228 0 0 1-14.5-68.2l-.2-5.4V917q.2-2.7 1-5.4a14 14 0 0 1 2.7-5.1q2-2.4 4.8-3.3 3-1 5.7-.5a17 17 0 0 1 9.6 4.9q3.7 3.8 5.8 8.3a754 754 0 0 1 45.6 117.9 22 22 0 0 1 1 4.2z"/><path d="M479.6 1134.8c-.5.2-2.5-7-6-18.2a509 509 0 0 0-20.4-53.7 17 17 0 0 0-2.6-4.2l-1.7-1.4-1-.3-2.2-.2-.3-2v-1l-.1-.5a35 35 0 0 0-1.4-6.4 43 43 0 0 0-11-18 8 8 0 0 0-4-1.9 5 5 0 0 0-3.3 1 4 4 0 0 0-1.3 1.6l-.4.8-.1-1q0-1 1.2-2.2 1.2-1.4 3.8-1.6 2.7 0 5.3 1.8 2.5 2 4.7 4.6a41 41 0 0 1 9.5 20.9v.7l.1.4h.4l.8.2.7.4q1.5.8 2.6 2 2 2.2 3.2 5a375 375 0 0 1 19.7 54.3c3 11.6 4.2 18.8 3.8 19"/><path fill="none" stroke="#000" stroke-miterlimit="10" d="M479.6 1134.8c-.5.2-2.5-7-6-18.2a509 509 0 0 0-20.4-53.7 17 17 0 0 0-2.6-4.2l-1.7-1.4-1-.3-2.2-.2-.3-2v-1l-.1-.5a35 35 0 0 0-1.4-6.4 43 43 0 0 0-11-18 8 8 0 0 0-4-1.9 5 5 0 0 0-3.3 1 4 4 0 0 0-1.3 1.6l-.4.8-.1-1q0-1 1.2-2.2 1.2-1.4 3.8-1.6 2.7 0 5.3 1.8 2.5 2 4.7 4.6a41 41 0 0 1 9.5 20.9v.7l.1.4h.4l.8.2.7.4q1.5.8 2.6 2 2 2.2 3.2 5a375 375 0 0 1 19.7 54.3c3 11.6 4.2 18.8 3.8 19z"/><path d="m458.9 902.7-1-1.7q-.7-.8-2-1.3l-1.2-.2h-.7l-.3.1-.1.3-.9 1.6-1 2a43 43 0 0 0-3.8 16.3 94 94 0 0 0 .3 14.7q.6 7.9 2 16.8a302 302 0 0 0 12.3 50.6l2.1 6.2.3.8.4 1.1 1 2.4.8 2.3.2.5.1.3v.3l.1.3v.2l.1.3-2.8-1.2-.6-.2-.6-.2-1-.2h-1l-.7.3q-1.5.6-2.6 1.8a13 13 0 0 0-2.5 6.1 96 96 0 0 0 1.6 36.8q2.4 9.5 4.5 14.6l1.4 3.9q.5 1.2.4 1.4l-.9-1.2q-.8-1.2-2-3.7a97 97 0 0 1-8-52.3q.6-4 3.2-7.7a10 10 0 0 1 5-3h.5l.4-.1h.5l.2.1v-.3l-.3-.6-.3-.7-.4-1-2.2-6.2a263 263 0 0 1-12.1-51.3q-1.3-9-1.8-17a91 91 0 0 1 .1-15 50 50 0 0 1 5.9-18.9l1.2-1.8q0-.3.3-.5l.3-.1h.3a5 5 0 0 1 4.7 2.2c.8 1.3.7 2 .6 2"/><path fill="none" stroke="#000" stroke-miterlimit="10" d="m458.9 902.7-1-1.7q-.7-.8-2-1.3l-1.2-.2h-.7l-.3.1-.1.3-.9 1.6-1 2a43 43 0 0 0-3.8 16.3 94 94 0 0 0 .3 14.7q.6 7.9 2 16.8a302 302 0 0 0 12.3 50.6l2.1 6.2.3.8.4 1.1 1 2.4.8 2.3.2.5.1.3v.3l.1.3v.2l.1.3-2.8-1.2-.6-.2-.6-.2-1-.2h-1l-.7.3q-1.5.6-2.6 1.8a13 13 0 0 0-2.5 6.1 96 96 0 0 0 1.6 36.8q2.4 9.5 4.5 14.6l1.4 3.9q.5 1.2.4 1.4l-.9-1.2q-.8-1.2-2-3.7a97 97 0 0 1-8-52.3q.6-4 3.2-7.7a10 10 0 0 1 5-3h.5l.4-.1h.5l.2.1v-.3l-.3-.6-.3-.7-.4-1-2.2-6.2a263 263 0 0 1-12.1-51.3q-1.3-9-1.8-17a91 91 0 0 1 .1-15 50 50 0 0 1 5.9-18.9l1.2-1.8q0-.3.3-.5l.3-.1h.3a5 5 0 0 1 4.7 2.2c.8 1.3.7 2 .6 2z"/><path d="M526.3 1034.3q-.3-.1-1.6-7.8l-3.5-21.6A1071 1071 0 0 0 497 896.2a56 56 0 0 0-2.8-8.2 18 18 0 0 0-4.5-6.3q-1.4-1.2-3-1.9t-3.3-.8a15 15 0 0 0-6.6.9q-3 1.1-5.4 3a23 23 0 0 0-4 4 40 40 0 0 0-4.5 8q-3 7.3-3.2 7.3c-.1 0 .3-2.9 2-7.8 1-2.4 2.1-5.4 4.3-8.5a22 22 0 0 1 13.6-9.2q2-.3 4-.2a15 15 0 0 1 7.9 3.1q3.4 3 5.3 7.2 1.9 4 3 8.6a775 775 0 0 1 23.6 109.2q1 6.9 1.6 12.3l1 9.4q.7 7.8.3 8"/><path fill="none" stroke="#000" stroke-miterlimit="10" d="M526.3 1034.3q-.3-.1-1.6-7.8l-3.5-21.6A1071 1071 0 0 0 497 896.2a56 56 0 0 0-2.8-8.2 18 18 0 0 0-4.5-6.3q-1.4-1.2-3-1.9t-3.3-.8a15 15 0 0 0-6.6.9q-3 1.1-5.4 3a23 23 0 0 0-4 4 40 40 0 0 0-4.5 8q-3 7.3-3.2 7.3c-.1 0 .3-2.9 2-7.8 1-2.4 2.1-5.4 4.3-8.5a22 22 0 0 1 13.6-9.2q2-.3 4-.2a15 15 0 0 1 7.9 3.1q3.4 3 5.3 7.2 1.9 4 3 8.6a775 775 0 0 1 23.6 109.2q1 6.9 1.6 12.3l1 9.4q.7 7.8.3 8z"/><path d="M569.5 1120.2c-.5 0-1.1-8.3-3.4-18.6l-2.1-8.4c-.9-3-1.6-6.2-3.5-8.7q-1.3-1.9-3.4-2.3h-1.3l-1-.3q-.6-.1-1-.5a4 4 0 0 1-1.4-2l-.4-1.7-.3-5.8-.7-5.9a135 135 0 0 0-8.9-31.2 14 14 0 0 0-4.8-6.2 8 8 0 0 0-6-1.3 6 6 0 0 0-3.4 3 5 5 0 0 0-.4 3.1q.3 1 .2 1.2t-.9-1c-.3-.8-.6-2.1 0-3.7a7 7 0 0 1 4-4.3 9 9 0 0 1 7.7 1q2 1.1 3.5 3a21 21 0 0 1 2.6 4 55 55 0 0 1 3.7 9.5 123 123 0 0 1 6.8 31.5l.1 2.9q0 .6.2 1l.2.4h.2l.4.1 1.4.2q1.7.2 3.1 1.2t2.3 2.3c2.2 3.3 2.8 6.9 3.6 9.9l1.7 8.6a67 67 0 0 1 1.2 19"/><path fill="none" stroke="#000" stroke-miterlimit="10" d="M569.5 1120.2c-.5 0-1.1-8.3-3.4-18.6l-2.1-8.4c-.9-3-1.6-6.2-3.5-8.7q-1.3-1.9-3.4-2.3h-1.3l-1-.3q-.6-.1-1-.5a4 4 0 0 1-1.4-2l-.4-1.7-.3-5.8-.7-5.9a135 135 0 0 0-8.9-31.2 14 14 0 0 0-4.8-6.2 8 8 0 0 0-6-1.3 6 6 0 0 0-3.4 3 5 5 0 0 0-.4 3.1q.3 1 .2 1.2t-.9-1c-.3-.8-.6-2.1 0-3.7a7 7 0 0 1 4-4.3 9 9 0 0 1 7.7 1q2 1.1 3.5 3a21 21 0 0 1 2.6 4 55 55 0 0 1 3.7 9.5 123 123 0 0 1 6.8 31.5l.1 2.9q0 .6.2 1l.2.4h.2l.4.1 1.4.2q1.7.2 3.1 1.2t2.3 2.3c2.2 3.3 2.8 6.9 3.6 9.9l1.7 8.6a67 67 0 0 1 1.2 19z"/><path d="M1346.4 1053a15 15 0 0 1-.1-3.6l.2-10.4a926 926 0 0 0-2-95l-.6-8.1a37 37 0 0 0-1.5-7.8q-.6-1.9-1.7-3.4-1-1.6-2.4-2.4-1.5-.7-3-.3-1.6.4-2.8 1.9-2.2 3-3.6 7.4-1.5 4-2.8 8.4-2.6 8.6-4.8 17.5l-5.2 21.8q-2.6 10.8-4.6 21-2 10.5-2.8 20.2l-.2 5v4.8l.1 4.7v.7l.1.9.2 1.8.2 1.8v1.6l-1.2-.6-1.2-.5-.6-.3-.4-.1h-.2l-.5-.1h-.3q-.9 0-1.8.5-2 1.1-3.3 3a18 18 0 0 0-2.9 6.3l-.5 2.3a65 65 0 0 0 2.8 33.4l.7 1.7.3.9.2.4.2.6 1 2.3.2.2v.2l-.6.3-1.2.3-1.2.4-.7.3-1.4.7-1.3.9-1.1 1q-.6.3-1 1l-1 1-1.4 2.4-.6 1.2-.5 1.2-.2.6-.1.6-.4 1.1c-.7 3-.5 6.1-.1 8.3l.3 1.5.4 1.3.9 1.9q1 1.5.8 1.6l-1.2-1.4q-.6-.7-1.1-1.9l-.5-1.3-.5-1.6q-1-3.5-.2-8.6l.2-1.3.2-.6.2-.7.5-1.3.6-1.3q.5-1.3 1.4-2.5l1-1.3 1-1.2 1.3-1.1 1.4-1 .4-.3.4-.2.8-.3.8-.4.4-.2.5-.1.2-.1v-.2l-.5-1-.2-.3-.1-.4-.4-.8-.7-1.8a66 66 0 0 1-2.2-39.5 20 20 0 0 1 2.5-4.8 13 13 0 0 1 4.2-3.9q1.3-.7 3-.9h.8l.4.2c.2.2 0-.2.1-.3v-.6l-.1-.6v-.8q-.3-2.4-.3-4.9v-4.9l.2-5q.7-10.2 2.7-20.6t4.6-21.2l5.2-21.8a306 306 0 0 1 7.7-26.3c1-2.8 2-5.8 4.1-8.4q1.7-2 4.4-2.9 2.7-.7 5.3.6a10 10 0 0 1 3.6 3.5q1.3 2 2 4a29 29 0 0 1 1.6 8.6l.6 8.2a805 805 0 0 1 .3 95.2z"/><path fill="none" stroke="#000" stroke-miterlimit="10" d="M1346.4 1053a15 15 0 0 1-.1-3.6l.2-10.4a926 926 0 0 0-2-95l-.6-8.1a37 37 0 0 0-1.5-7.8q-.6-1.9-1.7-3.4-1-1.6-2.4-2.4-1.5-.7-3-.3-1.6.4-2.8 1.9-2.2 3-3.6 7.4-1.5 4-2.8 8.4-2.6 8.6-4.8 17.5l-5.2 21.8q-2.6 10.8-4.6 21-2 10.5-2.8 20.2l-.2 5v4.8l.1 4.7v.7l.1.9.2 1.8.2 1.8v1.6l-1.2-.6-1.2-.5-.6-.3-.4-.1h-.2l-.5-.1h-.3q-.9 0-1.8.5-2 1.1-3.3 3a18 18 0 0 0-2.9 6.3l-.5 2.3a65 65 0 0 0 2.8 33.4l.7 1.7.3.9.2.4.2.6 1 2.3.2.2v.2l-.6.3-1.2.3-1.2.4-.7.3-1.4.7-1.3.9-1.1 1q-.6.3-1 1l-1 1-1.4 2.4-.6 1.2-.5 1.2-.2.6-.1.6-.4 1.1c-.7 3-.5 6.1-.1 8.3l.3 1.5.4 1.3.9 1.9q1 1.5.8 1.6l-1.2-1.4q-.6-.7-1.1-1.9l-.5-1.3-.5-1.6q-1-3.5-.2-8.6l.2-1.3.2-.6.2-.7.5-1.3.6-1.3q.5-1.3 1.4-2.5l1-1.3 1-1.2 1.3-1.1 1.4-1 .4-.3.4-.2.8-.3.8-.4.4-.2.5-.1.2-.1v-.2l-.5-1-.2-.3-.1-.4-.4-.8-.7-1.8a66 66 0 0 1-2.2-39.5 20 20 0 0 1 2.5-4.8 13 13 0 0 1 4.2-3.9q1.3-.7 3-.9h.8l.4.2c.2.2 0-.2.1-.3v-.6l-.1-.6v-.8q-.3-2.4-.3-4.9v-4.9l.2-5q.7-10.2 2.7-20.6t4.6-21.2l5.2-21.8a306 306 0 0 1 7.7-26.3c1-2.8 2-5.8 4.1-8.4q1.7-2 4.4-2.9 2.7-.7 5.3.6a10 10 0 0 1 3.6 3.5q1.3 2 2 4a29 29 0 0 1 1.6 8.6l.6 8.2a805 805 0 0 1 .3 95.2z"/><path d="M1391.3 1119.3c-.4-.1.4-12 1.1-20.7a118 118 0 0 0-1-25.3q-.5-2.5-2.3-3.9a4 4 0 0 0-1.8-.8h-1.7l-.5.3h-.3l-.4.5h-1.8l-.4.3v.3h-.1l-1.2-1 .6-4.4.4-2.7.7-5.4a474 474 0 0 0 3-53v-4.2l-.1-4q-.5-3.3-3.8-2.5-1.5.5-3 1.6a12 12 0 0 0-2.4 2.4 35 35 0 0 0-6.2 12.5l-.1.4-.2.7-.3 1.4-.4 2.9-.2 1.3v.4l-.1.2v-.2h-.1l-.2.3-.2.9-.2 1-.2 1-.9-3.1-.3-1.3-.3-1.1-.4-1.1-.1-.3-.1-.2-.2-.2-.4-.3-.2-.1-.4-.2q-.9-.3-1.8-.2-1.6.3-3.2 1.6a39 39 0 0 0-4.9 5.9 43 43 0 0 0-7 19.3l-.4 3q-.2 0-.3-3-.2-3 1-8.3a42 42 0 0 1 10-18.7q1.8-1.7 4.6-2.2 1.3-.1 2.7.2c1.2.4 1.1.5 1.4.7q.3.2.3.5v.1-.1l.1-.3.1-.7v-.3l.2-.6a37 37 0 0 1 6.5-13.6l1.4-1.6 1.6-1.4a12 12 0 0 1 4-2.1q1-.4 2.4-.3 1.5 0 2.7.8l.6.4.5.5.8 1.2q.6 1.3.7 2.5l.2 4.3v4.2a390 390 0 0 1-3.2 53.3l-.8 5.5q0 1.4-.4 2.7l-.1.9-.1.8v-.2l.3-.3.5-.3h.2l.8-.1 1.8.1q1.7.3 3 1.5 2.5 2.3 3 5.2.8 2.7.8 5.2a103 103 0 0 1-.6 21c-.5 4.4-.6 14.8-1.3 17q-1.2 3.5-1.4 3.5"/><path fill="none" stroke="#000" stroke-miterlimit="10" d="M1391.3 1119.3c-.4-.1.4-12 1.1-20.7a118 118 0 0 0-1-25.3q-.5-2.5-2.3-3.9a4 4 0 0 0-1.8-.8h-1.7l-.5.3h-.3l-.4.5h-1.8l-.4.3v.3h-.1l-1.2-1 .6-4.4.4-2.7.7-5.4a474 474 0 0 0 3-53v-4.2l-.1-4q-.5-3.3-3.8-2.5-1.5.5-3 1.6a12 12 0 0 0-2.4 2.4 35 35 0 0 0-6.2 12.5l-.1.4-.2.7-.3 1.4-.4 2.9-.2 1.3v.4l-.1.2v-.2h-.1l-.2.3-.2.9-.2 1-.2 1-.9-3.1-.3-1.3-.3-1.1-.4-1.1-.1-.3-.1-.2-.2-.2-.4-.3-.2-.1-.4-.2q-.9-.3-1.8-.2-1.6.3-3.2 1.6a39 39 0 0 0-4.9 5.9 43 43 0 0 0-7 19.3l-.4 3q-.2 0-.3-3-.2-3 1-8.3a42 42 0 0 1 10-18.7q1.8-1.7 4.6-2.2 1.3-.1 2.7.2c1.2.4 1.1.5 1.4.7q.3.2.3.5v.1-.1l.1-.3.1-.7v-.3l.2-.6a37 37 0 0 1 6.5-13.6l1.4-1.6 1.6-1.4a12 12 0 0 1 4-2.1q1-.4 2.4-.3 1.5 0 2.7.8l.6.4.5.5.8 1.2q.6 1.3.7 2.5l.2 4.3v4.2a390 390 0 0 1-3.2 53.3l-.8 5.5q0 1.4-.4 2.7l-.1.9-.1.8v-.2l.3-.3.5-.3h.2l.8-.1 1.8.1q1.7.3 3 1.5 2.5 2.3 3 5.2.8 2.7.8 5.2a103 103 0 0 1-.6 21c-.5 4.4-.6 14.8-1.3 17q-1.2 3.5-1.4 3.5z"/><path d="M1437.3 942.1c-.2 0 .3-2.6.7-7.3a82 82 0 0 0-2-26c-.8-2-2-4-3.8-4.4h-1.3q-.7.1-1.3.6-1.2.8-2.2 2.4t-1.6 3.4l-1.4 3.9a160 160 0 0 0-8 35.2q-.2 4.9-1.4 9.7-.6 2.6-1.8 4.7l-2.5 4.1q-2.6 3.8-4.5 7.5a32 32 0 0 0-2.7 19.4l.3 1.8.3.9v.4l.2.4v.3l.6 1.5.2.7v.3l-.3.1-1.5.5a17 17 0 0 0-4.2 2 20 20 0 0 0-4.7 4.1q-3.7 4.9-4.9 9.8-1.1 4.8-1.3 8.4c-.4 4.7-.3 7.3-.5 7.3q-.5-.1-.8-7.4-.2-3.6.9-8.7c.7-3.4 2.1-7.3 4.8-10.8a22 22 0 0 1 8.4-6.7l.4-.1.4-.1v-.3l-.2-.3v-.2l-.1-.5-.3-1-.4-2a37 37 0 0 1 0-12.5q.6-4.4 2.6-8.6t4.7-7.9q2.5-3.6 3.8-8 1-4.2 1.4-9.1a154 154 0 0 1 9.7-39.9q.8-2 2-3.8 1.2-1.9 3.1-3.3 1-.6 2.3-.9l2.4.1q2.5.8 3.7 2.6 1.3 1.6 1.8 3.5t.8 3.5a78 78 0 0 1 .1 23.6 21 21 0 0 1-1.9 7.1"/><path fill="none" stroke="#000" stroke-miterlimit="10" d="M1437.3 942.1c-.2 0 .3-2.6.7-7.3a82 82 0 0 0-2-26c-.8-2-2-4-3.8-4.4h-1.3q-.7.1-1.3.6-1.2.8-2.2 2.4t-1.6 3.4l-1.4 3.9a160 160 0 0 0-8 35.2q-.2 4.9-1.4 9.7-.6 2.6-1.8 4.7l-2.5 4.1q-2.6 3.8-4.5 7.5a32 32 0 0 0-2.7 19.4l.3 1.8.3.9v.4l.2.4v.3l.6 1.5.2.7v.3l-.3.1-1.5.5a17 17 0 0 0-4.2 2 20 20 0 0 0-4.7 4.1q-3.7 4.9-4.9 9.8-1.1 4.8-1.3 8.4c-.4 4.7-.3 7.3-.5 7.3q-.5-.1-.8-7.4-.2-3.6.9-8.7c.7-3.4 2.1-7.3 4.8-10.8a22 22 0 0 1 8.4-6.7l.4-.1.4-.1v-.3l-.2-.3v-.2l-.1-.5-.3-1-.4-2a37 37 0 0 1 0-12.5q.6-4.4 2.6-8.6t4.7-7.9q2.5-3.6 3.8-8 1-4.2 1.4-9.1a154 154 0 0 1 9.7-39.9q.8-2 2-3.8 1.2-1.9 3.1-3.3 1-.6 2.3-.9l2.4.1q2.5.8 3.7 2.6 1.3 1.6 1.8 3.5t.8 3.5a78 78 0 0 1 .1 23.6 21 21 0 0 1-1.9 7.1z"/><path d="M1447.2 1118.3q-.2-.1.3-6.2c.4-4-.9-20-.5-27.2l1.6-25.6.5-7.5.5-7.8q0-2-.2-3.8a9 9 0 0 0-1.2-3.3q-1-1.3-2.6-2.1-.7-.4-1.5-.4h-.3l-.5.1-1.1.4-2.6 1.2v-.9l.2-1.3.4-2.6.6-3.5 1-6 1.8-12.3q3-21.8 5.4-40.7l2.1-17.8.9-8q.5-4 .7-7.4.3-3.5-1.6-5.5c-1.2-1.2-3.2-1.5-4.8-1.2q-2.6.5-4.3 2a12 12 0 0 0-2.4 3.5q-1.5 3.5-2 5.6t-.7 2v-2c.3-1.5.5-3.6 1.6-6.2q.7-1.9 2.5-4a10 10 0 0 1 8.2-2.8 7 7 0 0 1 5.3 4.9q.6 1.9.5 3.7l-.2 3.8-.3 3.8-.7 8.1a1095 1095 0 0 1-7 58.6l-1.9 12.4-1 6q0 1.3-.4 2.5v.6l.3-.1h.5q1.4 0 2.6.7 2.4 1 3.8 3.2c1.9 3 2 6.1 1.9 8.9q-.2 4.1-.6 7.9l-.6 7.5-2.3 25.5c-.7 7.2.2 23.3-.5 27.3q-1 6-1.4 6"/><path fill="none" stroke="#000" stroke-miterlimit="10" d="M1447.2 1118.3q-.2-.1.3-6.2c.4-4-.9-20-.5-27.2l1.6-25.6.5-7.5.5-7.8q0-2-.2-3.8a9 9 0 0 0-1.2-3.3q-1-1.3-2.6-2.1-.7-.4-1.5-.4h-.3l-.5.1-1.1.4-2.6 1.2v-.9l.2-1.3.4-2.6.6-3.5 1-6 1.8-12.3q3-21.8 5.4-40.7l2.1-17.8.9-8q.5-4 .7-7.4.3-3.5-1.6-5.5c-1.2-1.2-3.2-1.5-4.8-1.2q-2.6.5-4.3 2a12 12 0 0 0-2.4 3.5q-1.5 3.5-2 5.6t-.7 2v-2c.3-1.5.5-3.6 1.6-6.2q.7-1.9 2.5-4a10 10 0 0 1 8.2-2.8 7 7 0 0 1 5.3 4.9q.6 1.9.5 3.7l-.2 3.8-.3 3.8-.7 8.1a1095 1095 0 0 1-7 58.6l-1.9 12.4-1 6q0 1.3-.4 2.5v.6l.3-.1h.5q1.4 0 2.6.7 2.4 1 3.8 3.2c1.9 3 2 6.1 1.9 8.9q-.2 4.1-.6 7.9l-.6 7.5-2.3 25.5c-.7 7.2.2 23.3-.5 27.3q-1 6-1.4 6z"/><path d="M1333.3 1116.3q-.3 0-.6-6c-.3-3.9-1.4-12.4-1.9-19.3a627 627 0 0 1-1.6-53.7 759 759 0 0 1 2.5-53.7q.9-10.3 1.8-16.2t1.1-5.9c.5 0 0 8.6-.6 22.3a1636 1636 0 0 0-1.5 53.5 1403 1403 0 0 0 .6 53.6c.4 13.7.7 25.4.2 25.4"/><path fill="none" stroke="#000" stroke-miterlimit="10" d="M1333.3 1116.3q-.3 0-.6-6c-.3-3.9-1.4-12.4-1.9-19.3a627 627 0 0 1-1.6-53.7 759 759 0 0 1 2.5-53.7q.9-10.3 1.8-16.2t1.1-5.9c.5 0 0 8.6-.6 22.3a1636 1636 0 0 0-1.5 53.5 1403 1403 0 0 0 .6 53.6c.4 13.7.7 25.4.2 25.4z"/><path d="M1415 1073c-.5 0-.5-8 0-21a1051 1051 0 0 1 9.4-101 127 127 0 0 1 3.8-20.7c.4 0-.3 8-1.5 21l-4.9 50.4-4.5 50.4c-1 13-1.9 21-2.4 20.9"/><path fill="none" stroke="#000" stroke-miterlimit="10" d="M1415 1073c-.5 0-.5-8 0-21a1051 1051 0 0 1 9.4-101 127 127 0 0 1 3.8-20.7c.4 0-.3 8-1.5 21l-4.9 50.4-4.5 50.4c-1 13-1.9 21-2.4 20.9z"/><path d="M517.5 1108.7c-1 .2-10.8-42.5-22.2-95.3s-19.8-95.7-19-96c1-.1 10.9 42.5 22.2 95.3 11.4 52.8 19.8 95.8 19 96"/><path fill="none" stroke="#000" stroke-miterlimit="10" d="M517.5 1108.7c-1 .2-10.8-42.5-22.2-95.3s-19.8-95.7-19-96c1-.1 10.9 42.5 22.2 95.3 11.4 52.8 19.8 95.8 19 96z"/><path d="M442.3 1119.1q-.3.2-3.3-4.5c-1-1.6-2-2.6-3.3-4.8l-4.5-7.5-5.1-9.3-5.6-10.7a475 475 0 0 1-21.9-51.2q-2.2-6-3.9-11.5l-3.1-10-2.4-8.5a143 143 0 0 1-2.5-12c.5 0 2.9 7.6 7 19.7l3.6 10 4.1 11.3a701 701 0 0 0 21.8 50.9l5.3 10.8 4.8 9.4c5.9 11.4 9.5 17.7 9 18"/><path fill="none" stroke="#000" stroke-miterlimit="10" d="M442.3 1119.1q-.3.2-3.3-4.5c-1-1.6-2-2.6-3.3-4.8l-4.5-7.5-5.1-9.3-5.6-10.7a475 475 0 0 1-21.9-51.2q-2.2-6-3.9-11.5l-3.1-10-2.4-8.5a143 143 0 0 1-2.5-12c.5 0 2.9 7.6 7 19.7l3.6 10 4.1 11.3a701 701 0 0 0 21.8 50.9l5.3 10.8 4.8 9.4c5.9 11.4 9.5 17.7 9 18z"/><path d="M1315.9 921c.8.6-5.7 11.1-10.6 25.4-5 14.2-6.2 26.4-7.2 26.4-.4 0-.6-3.2-.1-8.2a79 79 0 0 1 4.3-19.3 96 96 0 0 1 8.4-17.8c2.7-4.3 4.8-6.7 5.2-6.4"/><path fill="none" stroke="#000" stroke-miterlimit="10" d="M1315.9 921c.8.6-5.7 11.1-10.6 25.4-5 14.2-6.2 26.4-7.2 26.4-.4 0-.6-3.2-.1-8.2a79 79 0 0 1 4.3-19.3 96 96 0 0 1 8.4-17.8c2.7-4.3 4.8-6.7 5.2-6.4z"/></g></g></svg>