<svg xmlns="http://www.w3.org/2000/svg" width="1600" height="1200" style="width:100%;height:100%;transform:translate3d(0,0,0)" viewBox="0 0 1600 1200"><defs><clipPath id="a"><path d="M0 0h1600v1200H0z"/></clipPath></defs><g clip-path="url(#a)"><g style="display:block"><path fill="#fff" d="M356.9 100.6 355.6 370l81.2-.7c81.3-.5 157.7-1.2 239-1.1-3.6-52 .4-107.5-.5-150.3 1.4-15.6.5-40.7.5-40.7l-.6-78.6z"/><path fill="#fff" d="m635.2 12.4-4.4 123.7 19 45c9.1-1.3 17.4.7 26.5-.6 0 0 4 .5 38.8 1.2l221.3-1.2.7-167.4z"/><path d="M356.3 367.5c-1 0-1.6-60.2-1.6-134.4s.7-134.4 1.6-134.4 1.6 60.1 1.6 134.4c0 74.2-.7 134.4-1.6 134.4"/><path fill="none" stroke="#000" stroke-miterlimit="10" d="M356.3 367.5c-1 0-1.6-60.2-1.6-134.4s.7-134.4 1.6-134.4 1.6 60.1 1.6 134.4c0 74.2-.7 134.4-1.6 134.4z"/><path d="M680.6 369.8c0 .9-71.6 1.6-160 1.6-88.2 0-159.8-.7-159.8-1.6s71.6-1.6 159.9-1.6 159.9.7 159.9 1.6"/><path fill="none" stroke="#000" stroke-miterlimit="10" d="M680.6 369.8c0 .9-71.6 1.6-160 1.6-88.2 0-159.8-.7-159.8-1.6s71.6-1.6 159.9-1.6 159.9.7 159.9 1.6z"/><path d="M674 99.6c0 1-69.8 1.6-156 1.6s-156.1-.7-156.1-1.6 69.9-1.6 156-1.6c86.3 0 156.2.7 156.2 1.6"/><path fill="none" stroke="#000" stroke-miterlimit="10" d="M674 99.6c0 1-69.8 1.6-156 1.6s-156.1-.7-156.1-1.6 69.9-1.6 156-1.6c86.3 0 156.2.7 156.2 1.6z"/><path d="M675.3 174.4c-.9 0-1.6-17-1.6-37.9 0-21 .7-38 1.6-38s1.6 17 1.6 38-.7 38-1.6 38"/><path fill="none" stroke="#000" stroke-miterlimit="10" d="M675.3 174.4c-.9 0-1.6-17-1.6-37.9 0-21 .7-38 1.6-38s1.6 17 1.6 38-.7 38-1.6 38z"/><path d="M675.3 170.4c.9 0 1.6 44 1.6 98 0 54.2-.7 98-1.6 98s-1.6-43.8-1.6-98c0-54 .7-98 1.6-98"/><path fill="none" stroke="#000" stroke-miterlimit="10" d="M675.3 170.4c.9 0 1.6 44 1.6 98 0 54.2-.7 98-1.6 98s-1.6-43.8-1.6-98c0-54 .7-98 1.6-98z"/><path d="M662.9 126.8c0 .9-66.1 1.6-147.7 1.6s-147.6-.7-147.6-1.6 66-1.7 147.6-1.7 147.7.8 147.7 1.7"/><path fill="none" stroke="#000" stroke-miterlimit="10" d="M662.9 126.8c0 .9-66.1 1.6-147.7 1.6s-147.6-.7-147.6-1.6 66-1.7 147.6-1.7 147.7.8 147.7 1.7z"/><path d="M623.2 113.4c0 1-3.9 1.5-8.5 1.2-4.7-.2-8.4-1.1-8.4-2 0-1 3.9-1.5 8.6-1.2 4.6.2 8.3 1.1 8.3 2"/><path fill="none" stroke="#000" stroke-miterlimit="10" d="M623.2 113.4c0 1-3.9 1.5-8.5 1.2-4.7-.2-8.4-1.1-8.4-2 0-1 3.9-1.5 8.6-1.2 4.6.2 8.3 1.1 8.3 2z"/><path d="M658.3 116c-.3 1-4.1.5-8.6-.8s-7.8-3.1-7.6-4 4.1-.5 8.6.9 7.8 3.1 7.6 4"/><path fill="none" stroke="#000" stroke-miterlimit="10" d="M658.3 116c-.3 1-4.1.5-8.6-.8s-7.8-3.1-7.6-4 4.1-.5 8.6.9 7.8 3.1 7.6 4z"/><path d="M643.4 118c-.6-.7 1.5-3.9 5.2-6.7s7.3-4 7.8-3.3-2.3 3.2-5.8 6c-3.5 2.6-6.6 4.6-7.2 4"/><path fill="none" stroke="#000" stroke-miterlimit="10" d="M643.4 118c-.6-.7 1.5-3.9 5.2-6.7s7.3-4 7.8-3.3-2.3 3.2-5.8 6c-3.5 2.6-6.6 4.6-7.2 4z"/><path d="M444.3 159.2c0 .9-13.4 1.6-30 1.6s-30-.7-30-1.6 13.4-1.7 30-1.7 30 .8 30 1.7"/><path fill="none" stroke="#000" stroke-miterlimit="10" d="M444.3 159.2c0 .9-13.4 1.6-30 1.6s-30-.7-30-1.6 13.4-1.7 30-1.7 30 .8 30 1.7z"/><path d="M514.5 175.4c0 .9-24 1.6-53.6 1.6s-53.6-.7-53.6-1.6 24-1.7 53.6-1.7 53.6.8 53.6 1.7"/><path fill="none" stroke="#000" stroke-miterlimit="10" d="M514.5 175.4c0 .9-24 1.6-53.6 1.6s-53.6-.7-53.6-1.6 24-1.7 53.6-1.7 53.6.8 53.6 1.7z"/><path d="M478.7 197.6c0 1-17.3 1.7-38.7 1.7s-38.8-.8-38.8-1.7 17.3-1.6 38.8-1.6 38.7.7 38.7 1.6"/><path fill="none" stroke="#000" stroke-miterlimit="10" d="M478.7 197.6c0 1-17.3 1.7-38.7 1.7s-38.8-.8-38.8-1.7 17.3-1.6 38.8-1.6 38.7.7 38.7 1.6z"/><path d="M553 232c0 1-35 1.7-78 1.7s-77.8-.7-77.8-1.6 34.8-1.7 77.9-1.7c43 0 77.8.8 77.8 1.7"/><path fill="none" stroke="#000" stroke-miterlimit="10" d="M553 232c0 1-35 1.7-78 1.7s-77.8-.7-77.8-1.6 34.8-1.7 77.9-1.7c43 0 77.8.8 77.8 1.7z"/><path d="M463.2 280c0 .9-15.8 1.6-35.4 1.6s-35.4-.7-35.4-1.6 15.9-1.6 35.4-1.6c19.6 0 35.4.7 35.4 1.6"/><path fill="none" stroke="#000" stroke-miterlimit="10" d="M463.2 280c0 .9-15.8 1.6-35.4 1.6s-35.4-.7-35.4-1.6 15.9-1.6 35.4-1.6c19.6 0 35.4.7 35.4 1.6z"/><path d="M534.8 295.5c0 1-11 1.6-24.6 1.6s-24.7-.7-24.7-1.6 11-1.6 24.7-1.6c13.5 0 24.6.7 24.6 1.6"/><path fill="none" stroke="#000" stroke-miterlimit="10" d="M534.8 295.5c0 1-11 1.6-24.6 1.6s-24.7-.7-24.7-1.6 11-1.6 24.7-1.6c13.5 0 24.6.7 24.6 1.6z"/><path d="M568.4 320.5c0 .9-37.8 1.6-84.6 1.6s-84.6-.7-84.6-1.6 37.9-1.6 84.6-1.6c46.8 0 84.6.7 84.6 1.6"/><path fill="none" stroke="#000" stroke-miterlimit="10" d="M568.4 320.5c0 .9-37.8 1.6-84.6 1.6s-84.6-.7-84.6-1.6 37.9-1.6 84.6-1.6c46.8 0 84.6.7 84.6 1.6z"/><path d="M635.4 14.1c.9 0 1.6 18.9 1.6 42.1s-.7 42.2-1.6 42.2-1.7-18.9-1.7-42.2c0-23.2.8-42 1.7-42"/><path fill="none" stroke="#000" stroke-miterlimit="10" d="M635.4 14.1c.9 0 1.6 18.9 1.6 42.1s-.7 42.2-1.6 42.2-1.7-18.9-1.7-42.2c0-23.2.8-42 1.7-42z"/><path d="M939 13.4c0 .9-67.7 1.6-151.1 1.6s-151-.7-151-1.6 67.6-1.6 151-1.6 151 .7 151 1.6"/><path fill="none" stroke="#000" stroke-miterlimit="10" d="M939 13.4c0 .9-67.7 1.6-151.1 1.6s-151-.7-151-1.6 67.6-1.6 151-1.6 151 .7 151 1.6z"/><path d="M937.7 163.1c-.9 0-1.6-33-1.6-73.8s.7-73.8 1.6-73.8 1.7 33 1.7 73.8-.8 73.8-1.7 73.8"/><path fill="none" stroke="#000" stroke-miterlimit="10" d="M937.7 163.1c-.9 0-1.6-33-1.6-73.8s.7-73.8 1.6-73.8 1.7 33 1.7 73.8-.8 73.8-1.7 73.8z"/><path d="M933.5 180.8c0 .9-57.7 1.6-129 1.6s-129-.7-129-1.6 57.7-1.7 129-1.7 129 .8 129 1.7"/><path fill="none" stroke="#000" stroke-miterlimit="10" d="M933.5 180.8c0 .9-57.7 1.6-129 1.6s-129-.7-129-1.6 57.7-1.7 129-1.7 129 .8 129 1.7z"/><path d="M677.2 35.7c0 .9-6.7 1.6-14.8 1.6s-14.9-.7-14.9-1.6 6.7-1.7 14.9-1.7 14.8.8 14.8 1.7"/><path fill="none" stroke="#000" stroke-miterlimit="10" d="M677.2 35.7c0 .9-6.7 1.6-14.8 1.6s-14.9-.7-14.9-1.6 6.7-1.7 14.9-1.7 14.8.8 14.8 1.7z"/><path d="M677.2 44.4c0 1-5.7 1.7-12.8 1.7s-12.8-.8-12.8-1.7 5.7-1.6 12.8-1.6c7 0 12.8.7 12.8 1.6"/><path fill="none" stroke="#000" stroke-miterlimit="10" d="M677.2 44.4c0 1-5.7 1.7-12.8 1.7s-12.8-.8-12.8-1.7 5.7-1.6 12.8-1.6c7 0 12.8.7 12.8 1.6z"/><path d="M831 66c0 1-39.2 1.7-87.7 1.7-48.4 0-87.6-.8-87.6-1.7s39.2-1.6 87.6-1.6c48.5 0 87.7.7 87.7 1.6"/><path fill="none" stroke="#000" stroke-miterlimit="10" d="M831 66c0 1-39.2 1.7-87.7 1.7-48.4 0-87.6-.8-87.6-1.7s39.2-1.6 87.6-1.6c48.5 0 87.7.7 87.7 1.6z"/><path d="M776.4 78.2c0 .9-17.8 1.6-39.8 1.6s-39.8-.7-39.8-1.6 17.8-1.6 39.8-1.6 39.8.7 39.8 1.6"/><path fill="none" stroke="#000" stroke-miterlimit="10" d="M776.4 78.2c0 .9-17.8 1.6-39.8 1.6s-39.8-.7-39.8-1.6 17.8-1.6 39.8-1.6 39.8.7 39.8 1.6z"/><path d="M804 98.4c0 1-27.3 1.7-61 1.7s-61-.8-61-1.7 27.3-1.6 61-1.6 61 .7 61 1.6"/><path fill="none" stroke="#000" stroke-miterlimit="10" d="M804 98.4c0 1-27.3 1.7-61 1.7s-61-.8-61-1.7 27.3-1.6 61-1.6 61 .7 61 1.6z"/><path d="M887.7 116.7c0 .9-26 1.6-58 1.6s-58-.7-58-1.6 26-1.7 58-1.7 58 .8 58 1.7"/><path fill="none" stroke="#000" stroke-miterlimit="10" d="M887.7 116.7c0 .9-26 1.6-58 1.6s-58-.7-58-1.6 26-1.7 58-1.7 58 .8 58 1.7z"/><path d="M892.5 133.5c0 1-21.8 1.7-48.6 1.7s-48.5-.8-48.5-1.7 21.7-1.6 48.5-1.6 48.6.7 48.6 1.6"/><path fill="none" stroke="#000" stroke-miterlimit="10" d="M892.5 133.5c0 1-21.8 1.7-48.6 1.7s-48.5-.8-48.5-1.7 21.7-1.6 48.5-1.6 48.6.7 48.6 1.6z"/><path d="M899.2 159.2c0 .9-26 1.6-58 1.6s-58-.7-58-1.6 26-1.7 58-1.7 58 .8 58 1.7"/><path fill="none" stroke="#000" stroke-miterlimit="10" d="M899.2 159.2c0 .9-26 1.6-58 1.6s-58-.7-58-1.6 26-1.7 58-1.7 58 .8 58 1.7z"/></g><g style="display:block"><path fill="#fff" d="M615.5 126.4s-8-8-16 4.2c-8.2 12.3-16.5 21.6-16.5 21.6s18.2-1.5 25.2-1.8 15.1 0 16.9-6.4-9.6-17.6-9.6-17.6m142-67.4c-4.5-2.4-7.9.4-7.9.4s-21.6 6.4-22.5 13.5a23 23 0 0 0 6.7 18.6c4.4 3.9 5.1 3.2 5.1 3.2l16.6-7.5s7.6-3.3 9.1-8.6.6-16.7-7-19.5"/><path d="m727.4 69.5-125 55.2 8.5 3.6-3 11.6 11 5.2-1.3 6.6 119.7-56a21 21 0 0 1-10.8-12.8c-1.8-6.4.2-11.8 1-13.4"/><path d="M755 57q0 .4-5.8 3l-16 7.3-53 23.7-68.7 31.3q-5.9 2.5-6 2.2-.2-.4 5.4-3.4t15.6-8.1a1383 1383 0 0 1 122.2-54.1q6-2.1 6.2-2"/><path fill="none" stroke="#000" stroke-miterlimit="10" d="M755 57q0 .4-5.8 3l-16 7.3-53 23.7-68.7 31.3q-5.9 2.5-6 2.2-.2-.4 5.4-3.4t15.6-8.1a1383 1383 0 0 1 122.2-54.1q6-2.1 6.2-2z"/><path d="M757.6 86.2c.2.5-7.4 4.4-19.8 10.5a2669 2669 0 0 1-97.9 45.4 152 152 0 0 1-20.8 8.3c-.1-.4 7.4-4.4 19.8-10.4a2683 2683 0 0 1 98-45.4c12.6-5.5 20.5-8.8 20.7-8.4"/><path fill="none" stroke="#000" stroke-miterlimit="10" d="M757.6 86.2c.2.5-7.4 4.4-19.8 10.5a2669 2669 0 0 1-97.9 45.4 152 152 0 0 1-20.8 8.3c-.1-.4 7.4-4.4 19.8-10.4a2683 2683 0 0 1 98-45.4c12.6-5.5 20.5-8.8 20.7-8.4z"/><path d="M740 95.6c0 .4-2 .3-4.9-1.2a19 19 0 0 1-8.8-21.7c1-3 2.3-4.6 2.7-4.4s-.1 2-.4 4.8-.2 6.8 1.4 10.7c1.6 4 4.3 6.8 6.4 8.7s3.8 2.7 3.7 3.1"/><path fill="none" stroke="#000" stroke-miterlimit="10" d="M740 95.6c0 .4-2 .3-4.9-1.2a19 19 0 0 1-8.8-21.7c1-3 2.3-4.6 2.7-4.4s-.1 2-.4 4.8-.2 6.8 1.4 10.7c1.6 4 4.3 6.8 6.4 8.7s3.8 2.7 3.7 3.1z"/><path d="M763.2 81.4c-.4-.2.1-1.8.5-4.5.4-2.6.7-6.3-.6-9.9-1.3-3.5-4-6-6-7.3-2.3-1.3-4-1.6-4-2q0-.4 1.3-.6t3.6.5 4.5 2.8 3.7 5.5a16 16 0 0 1-.3 11.6c-1 2.8-2.3 4.1-2.7 4"/><path fill="none" stroke="#000" stroke-miterlimit="10" d="M763.2 81.4c-.4-.2.1-1.8.5-4.5.4-2.6.7-6.3-.6-9.9-1.3-3.5-4-6-6-7.3-2.3-1.3-4-1.6-4-2q0-.4 1.3-.6t3.6.5 4.5 2.8 3.7 5.5a16 16 0 0 1-.3 11.6c-1 2.8-2.3 4.1-2.7 4z"/><path d="M760.5 82.5q0 .3-1.3.7-1.3.5-3.8-.1t-4.8-3a13 13 0 0 1-3.4-6.2q-.7-3.7 0-6.9.8-3 1.8-5c1.4-2.8 2.7-4.2 3-4q.6.5-.8 4.7c-.7 2.8-1.6 6.6-.8 10.5a12 12 0 0 0 5.8 7.7c2.3 1.3 4.2 1 4.3 1.6"/><path fill="none" stroke="#000" stroke-miterlimit="10" d="M760.5 82.5q0 .3-1.3.7-1.3.5-3.8-.1t-4.8-3a13 13 0 0 1-3.4-6.2q-.7-3.7 0-6.9.8-3 1.8-5c1.4-2.8 2.7-4.2 3-4q.6.5-.8 4.7c-.7 2.8-1.6 6.6-.8 10.5a12 12 0 0 0 5.8 7.7c2.3 1.3 4.2 1 4.3 1.6z"/><path d="M583.2 152.8c-.7-.5 3.7-7.4 9.9-15.4s11.8-14 12.5-13.5-3.8 7.5-10 15.5c-6.1 8-11.7 14-12.4 13.4"/><path fill="none" stroke="#000" stroke-miterlimit="10" d="M583.2 152.8c-.7-.5 3.7-7.4 9.9-15.4s11.8-14 12.5-13.5-3.8 7.5-10 15.5c-6.1 8-11.7 14-12.4 13.4z"/><path d="M617.6 149.7c.1.9-7.7 2.3-17.4 3.2-9.8.8-17.7.8-17.8 0 0-1 7.8-2.4 17.5-3.3s17.7-.8 17.7 0"/><path fill="none" stroke="#000" stroke-miterlimit="10" d="M617.6 149.7c.1.9-7.7 2.3-17.4 3.2-9.8.8-17.7.8-17.8 0 0-1 7.8-2.4 17.5-3.3s17.7-.8 17.7 0z"/><path d="M616.8 151.4q-.2-.2.2-1.6l.6-1.7.3-1v-.4l.1-.3v-.4h-.1l-.6-.2-3-1.3-3.3-1.6-1.7-.8-.6-.3-.7-.4q-.7-.6-1-1.3l-.1-1.4.1-.6.1-.6.4-1.4.8-3 .8-2.6.2-.6v-.2l.2-.5-.5-.4q-.8-.3-1.3-.7l-2.2-1.2q-1.8-1.2-1.7-1.6.3-.3 2.3.2l2.4.7 1.5.5 2.6 1-2 9.1-.3 1.5v.7h.2l.2.2 1.7.9 3.2 1.7 3 1.5 2 1.2.4.3-.2.5-.3 1-.4.9-.2.4-.1.3-1.7 2.5q-1 1.2-1.3 1"/><path fill="none" stroke="#000" stroke-miterlimit="10" d="M616.8 151.4q-.2-.2.2-1.6l.6-1.7.3-1v-.4l.1-.3v-.4h-.1l-.6-.2-3-1.3-3.3-1.6-1.7-.8-.6-.3-.7-.4q-.7-.6-1-1.3l-.1-1.4.1-.6.1-.6.4-1.4.8-3 .8-2.6.2-.6v-.2l.2-.5-.5-.4q-.8-.3-1.3-.7l-2.2-1.2q-1.8-1.2-1.7-1.6.3-.3 2.3.2l2.4.7 1.5.5 2.6 1-2 9.1-.3 1.5v.7h.2l.2.2 1.7.9 3.2 1.7 3 1.5 2 1.2.4.3-.2.5-.3 1-.4.9-.2.4-.1.3-1.7 2.5q-1 1.2-1.3 1z"/></g><g style="display:block"><path fill="#fff" d="M0 959.3c111.5 7 176-11.5 215-30.8 10.3-5.2 33.7-17.8 68.3-26.7a319 319 0 0 1 106.5-8.7 370 370 0 0 1 39-16.2c27-9.5 39.7-10.6 91.2-23.3a474 474 0 0 0 53.7-15c16-6 23.4-10.5 51.3-24 0 0 27.3-13 52-24 41.3-18.3 66.6-29.4 101-38.7 27.4-7.3 37.5-7.3 72.5-18 17.1-5.2 31-10.2 40.2-13.7a1441 1441 0 0 0 51.2-98.9 388 388 0 0 0-.8-87.2 151 151 0 0 1 99.3-10 177 177 0 0 1 58.2 24l27.9-40.6a298 298 0 0 1 58 4c22 3.7 51.8 9 84 28.3a202 202 0 0 1 54.2 47.7 283 283 0 0 0-24 65c-2.2 9.6-5 24.4-11.9 45a345 345 0 0 1-10 26.5 73 73 0 0 1 27.6-7.3c17.3-1 26.6 5.2 54.2 9.8 9.4 1.6 17.1 2.3 22 2.7 10.2-2.4 24.7-5.2 42.4-6.7 18.1-1.5 47.2-2 102 9.8 31 6.7 72.3 17.9 120 37.3l-13 407-1644 16.1z"/><path d="M439.6 886.1q0 .4-7.2 2.1-7 1.6-19.9 3.3-12.9 1.5-29.9 2.2l-36.5 1.2q-19.6.7-36.3 2.9a204 204 0 0 0-29 6 162 162 0 0 0-20.4 7.2l-1.3.6-4 1.5 1.5-1.2 2-1.2 1.3-.7 1.5-.8q6.4-3.5 18.7-7.7 12.4-4.1 29.3-6.7 17-2.5 36.6-3.2l36.5-1q17-.3 29.8-1.4 12.7-1.1 20-2.2 7-1.1 7.3-.9"/><path fill="none" stroke="#000" stroke-miterlimit="10" d="M439.6 886.1q0 .4-7.2 2.1-7 1.6-19.9 3.3-12.9 1.5-29.9 2.2l-36.5 1.2q-19.6.7-36.3 2.9a204 204 0 0 0-29 6 162 162 0 0 0-20.4 7.2l-1.3.6-4 1.5 1.5-1.2 2-1.2 1.3-.7 1.5-.8q6.4-3.5 18.7-7.7 12.4-4.1 29.3-6.7 17-2.5 36.6-3.2l36.5-1q17-.3 29.8-1.4 12.7-1.1 20-2.2 7-1.1 7.3-.9z"/><path d="M644 805.7q0 .4-9.3 5.1a1890 1890 0 0 1-44 21.5q-9.7 4.8-20.9 9.7-11.2 5-24 8.5-13.1 3.3-27 5-14 1.6-26.9 4a302 302 0 0 0-24.5 5.8 477 477 0 0 0-40.6 13.6l-27 10.5q-9.6 3.8-10 3.6a65 65 0 0 1 9.6-4.7 665 665 0 0 1 45.3-18.8 353 353 0 0 1 46.6-13.2q13.1-2.5 27-4a180 180 0 0 0 50.3-13q11.2-4.9 21-9.4l18.1-8.4 26.4-11.8q9.6-4.2 10-4"/><path fill="none" stroke="#000" stroke-miterlimit="10" d="M644 805.7q0 .4-9.3 5.1a1890 1890 0 0 1-44 21.5q-9.7 4.8-20.9 9.7-11.2 5-24 8.5-13.1 3.3-27 5-14 1.6-26.9 4a302 302 0 0 0-24.5 5.8 477 477 0 0 0-40.6 13.6l-27 10.5q-9.6 3.8-10 3.6a65 65 0 0 1 9.6-4.7 665 665 0 0 1 45.3-18.8 353 353 0 0 1 46.6-13.2q13.1-2.5 27-4a180 180 0 0 0 50.3-13q11.2-4.9 21-9.4l18.1-8.4 26.4-11.8q9.6-4.2 10-4z"/><path d="M533.7 1053.7c-.6.8-32.2-20.3-70.7-47-38.4-26.7-69.2-49-68.7-49.7s32.1 20.3 70.6 47 69.3 49 68.8 49.7"/><path fill="none" stroke="#000" stroke-miterlimit="10" d="M533.7 1053.7c-.6.8-32.2-20.3-70.7-47-38.4-26.7-69.2-49-68.7-49.7s32.1 20.3 70.6 47 69.3 49 68.8 49.7z"/><path d="M530.3 910.3c.2.9-29.6 12.1-66.6 25.1-37.1 13-67.4 22.9-67.7 22s29.5-12 66.6-25 67.4-23 67.7-22"/><path fill="none" stroke="#000" stroke-miterlimit="10" d="M530.3 910.3c.2.9-29.6 12.1-66.6 25.1-37.1 13-67.4 22.9-67.7 22s29.5-12 66.6-25 67.4-23 67.7-22z"/><path d="M636.6 983.2c-.3.4-6.1-3.7-15.5-10.5s-22.4-16.2-37-26.4l-37.3-25.6a117 117 0 0 1-15.3-11c.2-.3 6.6 3 16.5 9.1a712 712 0 0 1 74.5 52c9 7.3 14.4 12.1 14.1 12.4"/><path fill="none" stroke="#000" stroke-miterlimit="10" d="M636.6 983.2c-.3.4-6.1-3.7-15.5-10.5s-22.4-16.2-37-26.4l-37.3-25.6a117 117 0 0 1-15.3-11c.2-.3 6.6 3 16.5 9.1a712 712 0 0 1 74.5 52c9 7.3 14.4 12.1 14.1 12.4z"/><path d="M641.3 991.5c.3.4-5.4 4.3-14.8 10.1a1168 1168 0 0 1-75 43.1c-9.8 5.1-16 8-16.3 7.7-.2-.4 5.6-4 15.1-9.7a3277 3277 0 0 1 75-43c9.7-5.4 15.8-8.6 16-8.2"/><path fill="none" stroke="#000" stroke-miterlimit="10" d="M641.3 991.5c.3.4-5.4 4.3-14.8 10.1a1168 1168 0 0 1-75 43.1c-9.8 5.1-16 8-16.3 7.7-.2-.4 5.6-4 15.1-9.7a3277 3277 0 0 1 75-43c9.7-5.4 15.8-8.6 16-8.2z"/><path d="M465.3 943.8c.5.8-4.6 4.7-11.8 8-7.1 3.3-13.4 4.7-13.7 3.8-.3-.8 5.4-3.5 12.4-6.7s12.6-5.8 13.1-5"/><path fill="none" stroke="#000" stroke-miterlimit="10" d="M465.3 943.8c.5.8-4.6 4.7-11.8 8-7.1 3.3-13.4 4.7-13.7 3.8-.3-.8 5.4-3.5 12.4-6.7s12.6-5.8 13.1-5z"/><path d="M523.3 927.4c.4.9-17.6 10.8-40.3 22.3s-41.4 20.1-41.8 19.3 17.6-10.7 40.3-22.2 41.4-20.2 41.8-19.4"/><path fill="none" stroke="#000" stroke-miterlimit="10" d="M523.3 927.4c.4.9-17.6 10.8-40.3 22.3s-41.4 20.1-41.8 19.3 17.6-10.7 40.3-22.2 41.4-20.2 41.8-19.4z"/><path d="M506.3 952.4c.5.7-8.7 7.3-20.9 13.9s-22.6 10.7-23 10c-.4-.9 9.4-6.3 21.5-12.9s22-11.8 22.4-11"/><path fill="none" stroke="#000" stroke-miterlimit="10" d="M506.3 952.4c.5.7-8.7 7.3-20.9 13.9s-22.6 10.7-23 10c-.4-.9 9.4-6.3 21.5-12.9s22-11.8 22.4-11z"/><path d="M540.8 951.6c.4.9-15.2 9-34.3 19-19.2 10-34.8 18.1-35.3 17.3s14.5-10.1 33.7-20.2 35.5-16.9 35.9-16"/><path fill="none" stroke="#000" stroke-miterlimit="10" d="M540.8 951.6c.4.9-15.2 9-34.3 19-19.2 10-34.8 18.1-35.3 17.3s14.5-10.1 33.7-20.2 35.5-16.9 35.9-16z"/><path d="M543.7 969.2c.5.8-10.8 9.2-25.2 18.9s-26.4 16.9-27 16.1c-.4-.7 10.8-9.1 25.2-18.8s26.5-17 27-16.2"/><path fill="none" stroke="#000" stroke-miterlimit="10" d="M543.7 969.2c.5.8-10.8 9.2-25.2 18.9s-26.4 16.9-27 16.1c-.4-.7 10.8-9.1 25.2-18.8s26.5-17 27-16.2z"/><path d="M566.6 974.6c.5.7-10.8 9.8-25.5 20a156 156 0 0 1-27.6 17c-.6-.8 11.1-9.4 25.8-19.6 14.6-10.2 26.8-18.1 27.3-17.4"/><path fill="none" stroke="#000" stroke-miterlimit="10" d="M566.6 974.6c.5.7-10.8 9.8-25.5 20a156 156 0 0 1-27.6 17c-.6-.8 11.1-9.4 25.8-19.6 14.6-10.2 26.8-18.1 27.3-17.4z"/><path d="M681.7 1060.2c-.2.4-5.6-1.2-14.3-4.2a1179 1179 0 0 1-66.9-25.4c-8.4-3.5-13.6-5.9-13.4-6.3s5.6 1.2 14.2 4.2a1181 1181 0 0 1 67 25.4c8.4 3.5 13.5 6 13.4 6.3"/><path fill="none" stroke="#000" stroke-miterlimit="10" d="M681.7 1060.2c-.2.4-5.6-1.2-14.3-4.2a1179 1179 0 0 1-66.9-25.4c-8.4-3.5-13.6-5.9-13.4-6.3s5.6 1.2 14.2 4.2a1181 1181 0 0 1 67 25.4c8.4 3.5 13.5 6 13.4 6.3z"/><path d="M664.7 919.2c.2.4-3.3 2.3-8.7 5.5s-12.8 7.8-20.8 13c-16.2 10.6-29.6 18.7-30.1 17.9-.5-.7 12.1-10 28.3-20.6a182 182 0 0 1 21.6-12.3c5.7-2.7 9.5-3.9 9.7-3.5"/><path fill="none" stroke="#000" stroke-miterlimit="10" d="M664.7 919.2c.2.4-3.3 2.3-8.7 5.5s-12.8 7.8-20.8 13c-16.2 10.6-29.6 18.7-30.1 17.9-.5-.7 12.1-10 28.3-20.6a182 182 0 0 1 21.6-12.3c5.7-2.7 9.5-3.9 9.7-3.5z"/><path d="M785.7 975.1c-.2.4-7-2.7-17.9-7.8l-42.5-19.9-42.9-19.4c-11-4.9-17.7-8-17.5-8.5s7.2 2 18.4 6.4a858 858 0 0 1 85.6 39.3 109 109 0 0 1 16.8 9.9"/><path fill="none" stroke="#000" stroke-miterlimit="10" d="M785.7 975.1c-.2.4-7-2.7-17.9-7.8l-42.5-19.9-42.9-19.4c-11-4.9-17.7-8-17.5-8.5s7.2 2 18.4 6.4a858 858 0 0 1 85.6 39.3 109 109 0 0 1 16.8 9.9z"/><path d="M790 980.1c.3.4-5.5 6.4-15 15.9a2541 2541 0 0 1-63.8 60.8 44 44 0 0 1-7.5 5.5l-2.8 1.1q-3 .8-5.6.9-5.3-.1-9.2-1.4a51 51 0 0 1-11.7-5.4q.2-.2 5.6 1.7l6.5 2q3.9 1 8.7.8 2.4-.2 4.9-1l2.4-1 2.3-1.5c3-2.2 6-5.3 9.2-8.4a3163 3163 0 0 1 59.4-55.8c10-9 16.3-14.5 16.6-14.2"/><path fill="none" stroke="#000" stroke-miterlimit="10" d="M790 980.1c.3.4-5.5 6.4-15 15.9a2541 2541 0 0 1-63.8 60.8 44 44 0 0 1-7.5 5.5l-2.8 1.1q-3 .8-5.6.9-5.3-.1-9.2-1.4a51 51 0 0 1-11.7-5.4q.2-.2 5.6 1.7l6.5 2q3.9 1 8.7.8 2.4-.2 4.9-1l2.4-1 2.3-1.5c3-2.2 6-5.3 9.2-8.4a3163 3163 0 0 1 59.4-55.8c10-9 16.3-14.5 16.6-14.2z"/><path d="M655.5 948.5c.7.6-2.9 5.3-8.8 9.4-6 4-11.6 5.6-12 4.8-.3-.9 4.5-3.7 10.2-7.5 5.6-3.9 10-7.3 10.6-6.7"/><path fill="none" stroke="#000" stroke-miterlimit="10" d="M655.5 948.5c.7.6-2.9 5.3-8.8 9.4-6 4-11.6 5.6-12 4.8-.3-.9 4.5-3.7 10.2-7.5 5.6-3.9 10-7.3 10.6-6.7z"/><path d="M684.1 961c.6.6-11 13.5-26.6 28.3s-29 25.8-29.7 25.2 12-12.8 27.5-27.5c15.5-14.8 28.2-26.7 28.8-26"/><path fill="none" stroke="#000" stroke-miterlimit="10" d="M684.1 961c.6.6-11 13.5-26.6 28.3s-29 25.8-29.7 25.2 12-12.8 27.5-27.5c15.5-14.8 28.2-26.7 28.8-26z"/><path d="M677.3 987.3c.7.6-5.3 8-13.2 16.5-8 8.6-15 15-15.7 14.4-.6-.7 5.3-8 13.3-16.6 8-8.5 15-15 15.6-14.3"/><path fill="none" stroke="#000" stroke-miterlimit="10" d="M677.3 987.3c.7.6-5.3 8-13.2 16.5-8 8.6-15 15-15.7 14.4-.6-.7 5.3-8 13.3-16.6 8-8.5 15-15 15.6-14.3z"/><path d="M705 986c.7.6-8.4 10.8-20.2 22.9-11.9 12-22 21.2-22.6 20.6-.7-.7 8.4-11 20.3-23s22-21.2 22.6-20.6"/><path fill="none" stroke="#000" stroke-miterlimit="10" d="M705 986c.7.6-8.4 10.8-20.2 22.9-11.9 12-22 21.2-22.6 20.6-.7-.7 8.4-11 20.3-23s22-21.2 22.6-20.6z"/><path d="M669.2 1104.8c-.9-.4 5.3-18.8 13.7-41.2s16-40.3 16.8-40c.8.4-5.3 18.8-13.7 41.2-8.5 22.4-16 40.3-16.8 40"/><path fill="none" stroke="#000" stroke-miterlimit="10" d="M669.2 1104.8c-.9-.4 5.3-18.8 13.7-41.2s16-40.3 16.8-40c.8.4-5.3 18.8-13.7 41.2-8.5 22.4-16 40.3-16.8 40z"/><path d="M709.8 1030.2q-.6-.2-1.2-2-.8-1.7-2.6-3-2-1-4-.8c-1 0-2 .2-2.2-.2-.3-.3.2-1.3 1.6-2a6.6 6.6 0 0 1 9.4 5.6c0 1.6-.6 2.5-1 2.4"/><path fill="none" stroke="#000" stroke-miterlimit="10" d="M709.8 1030.2q-.6-.2-1.2-2-.8-1.7-2.6-3-2-1-4-.8c-1 0-2 .2-2.2-.2-.3-.3.2-1.3 1.6-2a6.6 6.6 0 0 1 9.4 5.6c0 1.6-.6 2.5-1 2.4z"/><path d="M710.1 1030.1a65 65 0 0 1-4.3 14.6 481 481 0 0 1-32.8 73l-2-6.2-.4-1-.2-.9-.4-1.4q-.6-2.7-.4-2.8t1.4 2.4l1.3 2.8 1 2.1 1-2.2q0-.5.4-1l1-2 4-9q4.5-9.5 9.6-21.2c5.7-13 10.8-24.9 14.4-33.5s6-13.9 6.4-13.7"/><path fill="none" stroke="#000" stroke-miterlimit="10" d="M710.1 1030.1a65 65 0 0 1-4.3 14.6 481 481 0 0 1-32.8 73l-2-6.2-.4-1-.2-.9-.4-1.4q-.6-2.7-.4-2.8t1.4 2.4l1.3 2.8 1 2.1 1-2.2q0-.5.4-1l1-2 4-9q4.5-9.5 9.6-21.2c5.7-13 10.8-24.9 14.4-33.5s6-13.9 6.4-13.7z"/><path d="M672.5 1101.4c-.9-.3 6-17.6 14-39.1 7.9-21.6 13.8-39.2 14.7-39s-3.7 18.4-11.7 40-16.2 38.5-17 38.1"/><path fill="none" stroke="#000" stroke-miterlimit="10" d="M672.5 1101.4c-.9-.3 6-17.6 14-39.1 7.9-21.6 13.8-39.2 14.7-39s-3.7 18.4-11.7 40-16.2 38.5-17 38.1z"/><path d="M672.9 1110.9q-.4 0-.3-3.7.3-3.5 2-9.8l4.8-13.8a1207 1207 0 0 1 18.4-46.7 56 56 0 0 1 6-12.1c.3.1-1.1 5-3.8 13a966 966 0 0 1-17.8 47l-5.5 13.4c-3 7.6-3.4 12.7-3.8 12.7"/><path fill="none" stroke="#000" stroke-miterlimit="10" d="M672.9 1110.9q-.4 0-.3-3.7.3-3.5 2-9.8l4.8-13.8a1207 1207 0 0 1 18.4-46.7 56 56 0 0 1 6-12.1c.3.1-1.1 5-3.8 13a966 966 0 0 1-17.8 47l-5.5 13.4c-3 7.6-3.4 12.7-3.8 12.7z"/><path d="M673 1108.7q-.7.1-1.5-.9-.9-1.1-1-3.1-.2-2 .4-3.3t1.3-1c1 .1 1.3 2 1.5 4s.2 4-.7 4.3"/><path fill="none" stroke="#000" stroke-miterlimit="10" d="M673 1108.7q-.7.1-1.5-.9-.9-1.1-1-3.1-.2-2 .4-3.3t1.3-1c1 .1 1.3 2 1.5 4s.2 4-.7 4.3z"/><path d="M703.8 1025.7c.4.1-.7 5-3 13a539 539 0 0 1-21.3 60.3 52 52 0 0 1-6 12c-.8-.4 6.1-19.5 14.4-43s15-42.6 15.9-42.3"/><path fill="none" stroke="#000" stroke-miterlimit="10" d="M703.8 1025.7c.4.1-.7 5-3 13a539 539 0 0 1-21.3 60.3 52 52 0 0 1-6 12c-.8-.4 6.1-19.5 14.4-43s15-42.6 15.9-42.3z"/><path d="M706.3 1032.8q-.7-.2-1-1.5l-1.1-2.8-1.5-2.6q-.8-1-.6-1.7t2-.1 3 3q1 2.4.5 4.2-.7 1.6-1.3 1.5"/><path fill="none" stroke="#000" stroke-miterlimit="10" d="M706.3 1032.8q-.7-.2-1-1.5l-1.1-2.8-1.5-2.6q-.8-1-.6-1.7t2-.1 3 3q1 2.4.5 4.2-.7 1.6-1.3 1.5z"/><path d="M699.8 1043c-.8-.5.3-4 .5-8.5.4-4.4-.3-8 .6-8.4q.8-.1 1.8 2.2 1 2.5.9 6.4-.5 4-1.8 6.2t-2 2"/><path fill="none" stroke="#000" stroke-miterlimit="10" d="M699.8 1043c-.8-.5.3-4 .5-8.5.4-4.4-.3-8 .6-8.4q.8-.1 1.8 2.2 1 2.5.9 6.4-.5 4-1.8 6.2t-2 2z"/><path d="M699.5 1049c-.8-.5.7-5.5 1.6-11.8s1.1-11.5 2-11.6q.8.1 1.4 3.5a30 30 0 0 1-2.7 17q-1.6 3-2.3 2.8"/><path fill="none" stroke="#000" stroke-miterlimit="10" d="M699.5 1049c-.8-.5.7-5.5 1.6-11.8s1.1-11.5 2-11.6q.8.1 1.4 3.5a30 30 0 0 1-2.7 17q-1.6 3-2.3 2.8z"/><path d="M702 1033.4c-1-.1-1.5-2.2-1.6-4.7s.2-4.6 1.1-4.8 2 1.9 2.2 4.7c0 2.7-1 4.9-1.8 4.8"/><path fill="none" stroke="#000" stroke-miterlimit="10" d="M702 1033.4c-1-.1-1.5-2.2-1.6-4.7s.2-4.6 1.1-4.8 2 1.9 2.2 4.7c0 2.7-1 4.9-1.8 4.8z"/><path d="M688.5 1078c-.8-.4 3.5-11.7 9-25.5s10.4-25 11.2-24.6c.9.3-2.5 12-8.1 25.8s-11.3 24.6-12.1 24.3"/><path fill="none" stroke="#000" stroke-miterlimit="10" d="M688.5 1078c-.8-.4 3.5-11.7 9-25.5s10.4-25 11.2-24.6c.9.3-2.5 12-8.1 25.8s-11.3 24.6-12.1 24.3z"/><path d="M699.1 1049c-.8-.4.9-5 3.3-10.3 2.5-5.3 4.8-9.5 5.7-9.2.8.3-.2 5.1-2.7 10.5s-5.5 9.4-6.3 9"/><path fill="none" stroke="#000" stroke-miterlimit="10" d="M699.1 1049c-.8-.4.9-5 3.3-10.3 2.5-5.3 4.8-9.5 5.7-9.2.8.3-.2 5.1-2.7 10.5s-5.5 9.4-6.3 9z"/><path d="M1202.6 830.6c0 .5-3.4.7-8.6 2.3s-12 4.9-18.5 10.1a108 108 0 0 0-15 15.4c-3.4 4.3-5.6 7-6 6.8s1.1-3.4 4.2-8.1 8-11 14.7-16.6q5.3-4.1 10.5-6.6 5.2-2.4 9.5-3.2c5.7-1.1 9.3-.5 9.2-.1"/><path fill="none" stroke="#000" stroke-miterlimit="10" d="M1202.6 830.6c0 .5-3.4.7-8.6 2.3s-12 4.9-18.5 10.1a108 108 0 0 0-15 15.4c-3.4 4.3-5.6 7-6 6.8s1.1-3.4 4.2-8.1 8-11 14.7-16.6q5.3-4.1 10.5-6.6 5.2-2.4 9.5-3.2c5.7-1.1 9.3-.5 9.2-.1z"/><path d="M1200.2 873c0 1-6.2 2.1-13.4 5.1s-12.4 6.6-13 5.8c-.3-.3.7-1.7 2.7-3.4a35 35 0 0 1 19.3-8q4.2-.2 4.4.6"/><path fill="none" stroke="#000" stroke-miterlimit="10" d="M1200.2 873c0 1-6.2 2.1-13.4 5.1s-12.4 6.6-13 5.8c-.3-.3.7-1.7 2.7-3.4a35 35 0 0 1 19.3-8q4.2-.2 4.4.6z"/><path d="M1121 905c0 .4-2.6.7-6.8 1.5l-3.3.7-3.8 1a69 69 0 0 0-16 7.7l-3.2 2.3-2.7 2.1c-3.2 2.7-5 4.6-5.4 4.3s.9-2.7 3.8-6l2.6-2.5 3.1-2.6a50 50 0 0 1 17-8.2q2.2-.5 4-.7 2-.4 3.7-.4c4.4-.3 7 .3 7 .7"/><path fill="none" stroke="#000" stroke-miterlimit="10" d="M1121 905c0 .4-2.6.7-6.8 1.5l-3.3.7-3.8 1a69 69 0 0 0-16 7.7l-3.2 2.3-2.7 2.1c-3.2 2.7-5 4.6-5.4 4.3s.9-2.7 3.8-6l2.6-2.5 3.1-2.6a50 50 0 0 1 17-8.2q2.2-.5 4-.7 2-.4 3.7-.4c4.4-.3 7 .3 7 .7z"/><path d="M1163.6 905.6c0 1-6.5 1.5-13.4 5-7 3.4-11.4 8.2-12.2 7.6-.3-.3.4-1.9 2.1-4a25 25 0 0 1 8.6-6.5 31 31 0 0 1 10.4-2.8q4.3-.1 4.5.7"/><path fill="none" stroke="#000" stroke-miterlimit="10" d="M1163.6 905.6c0 1-6.5 1.5-13.4 5-7 3.4-11.4 8.2-12.2 7.6-.3-.3.4-1.9 2.1-4a25 25 0 0 1 8.6-6.5 31 31 0 0 1 10.4-2.8q4.3-.1 4.5.7z"/><path d="M981.5 984c0 .5-3.7 0-9.6-.2l-2.4-.1h-8a115 115 0 0 0-24.9 4.4l-5.2 1.8-2.4.8-2.1 1c-5.5 2.1-8.8 3.8-9 3.4-.3-.3 2.6-2.7 8-5.6l2.1-1 2.4-1.1q2.4-1.1 5.3-2.1a86 86 0 0 1 25.7-4.5q3 0 5.7.2 1.4 0 2.6.2l2.4.3c6 .8 9.5 2.1 9.4 2.5"/><path fill="none" stroke="#000" stroke-miterlimit="10" d="M981.5 984c0 .5-3.7 0-9.6-.2l-2.4-.1h-8a115 115 0 0 0-24.9 4.4l-5.2 1.8-2.4.8-2.1 1c-5.5 2.1-8.8 3.8-9 3.4-.3-.3 2.6-2.7 8-5.6l2.1-1 2.4-1.1q2.4-1.1 5.3-2.1a86 86 0 0 1 25.7-4.5q3 0 5.7.2 1.4 0 2.6.2l2.4.3c6 .8 9.5 2.1 9.4 2.5z"/><path d="M1047 976.6c.2 1-5.2 3-11.5 5.9-6.4 2.8-11.4 5.5-12 4.7s4-4.7 10.7-7.7 12.6-3.7 12.8-2.9"/><path fill="none" stroke="#000" stroke-miterlimit="10" d="M1047 976.6c.2 1-5.2 3-11.5 5.9-6.4 2.8-11.4 5.5-12 4.7s4-4.7 10.7-7.7 12.6-3.7 12.8-2.9z"/><path d="M1064 949.3c0 1-10 1.6-21 6.5-11 4.8-18.2 11.7-18.9 11-.3-.3 1.1-2.5 4.2-5.3a46 46 0 0 1 13.5-8.7 55 55 0 0 1 15.5-4c4.1-.3 6.7 0 6.7.5"/><path fill="none" stroke="#000" stroke-miterlimit="10" d="M1064 949.3c0 1-10 1.6-21 6.5-11 4.8-18.2 11.7-18.9 11-.3-.3 1.1-2.5 4.2-5.3a46 46 0 0 1 13.5-8.7 55 55 0 0 1 15.5-4c4.1-.3 6.7 0 6.7.5z"/><path d="M1159 572.8c-.1.4-6.1-.6-15.6-3.1a243 243 0 0 1-54.9-22.8l-14.7-8.8c-8.3-5.2-13.8-7.5-13.6-8q.1-.3 4.1 1 4 1.5 10.6 5l15 8.2a348 348 0 0 0 54.2 23.1c9.2 3.2 15 4.9 14.9 5.4"/><path fill="none" stroke="#000" stroke-miterlimit="10" d="M1159 572.8c-.1.4-6.1-.6-15.6-3.1a243 243 0 0 1-54.9-22.8l-14.7-8.8c-8.3-5.2-13.8-7.5-13.6-8q.1-.3 4.1 1 4 1.5 10.6 5l15 8.2a348 348 0 0 0 54.2 23.1c9.2 3.2 15 4.9 14.9 5.4z"/><path d="M1116.4 742.6c-.5-.2 3.9-9 9-23.8a248 248 0 0 0 13-59.5c1-11.9 1.3-23.4 2.2-33.8q1.2-15.8 4.5-27.5a68 68 0 0 1 7.4-17.3l.8-1.3.8-1.1 2.5-3q.2 0-.7 1.6l-1 1.9-.7 1.2-.6 1.3c-2 4-4.4 9.8-6.3 17.3q-2.7 11.5-3.7 27.1c-.7 10.4-.9 21.8-2 33.9a220 220 0 0 1-21.7 77.1q-3.1 6-3.5 5.9"/><path fill="none" stroke="#000" stroke-miterlimit="10" d="M1116.4 742.6c-.5-.2 3.9-9 9-23.8a248 248 0 0 0 13-59.5c1-11.9 1.3-23.4 2.2-33.8q1.2-15.8 4.5-27.5a68 68 0 0 1 7.4-17.3l.8-1.3.8-1.1 2.5-3q.2 0-.7 1.6l-1 1.9-.7 1.2-.6 1.3c-2 4-4.4 9.8-6.3 17.3q-2.7 11.5-3.7 27.1c-.7 10.4-.9 21.8-2 33.9a220 220 0 0 1-21.7 77.1q-3.1 6-3.5 5.9z"/><path d="M1110.7 739.8q0 .2-1.1 0l-1.3-.3-1.8-.3q-4-.9-11.2-.6t-16.8 2.2q-9.7 1.6-21 2c-15 .5-28.5-1.3-38-3.4a53 53 0 0 1-15.2-4.6c.2-.5 6 1 15.6 2.4a204 204 0 0 0 58.2.6q9.6-1.5 17.1-1.5 7.6.1 11.7 1.6l1.7.7 1.2.6z"/><path fill="none" stroke="#000" stroke-miterlimit="10" d="M1110.7 739.8q0 .2-1.1 0l-1.3-.3-1.8-.3q-4-.9-11.2-.6t-16.8 2.2q-9.7 1.6-21 2c-15 .5-28.5-1.3-38-3.4a53 53 0 0 1-15.2-4.6c.2-.5 6 1 15.6 2.4a204 204 0 0 0 58.2.6q9.6-1.5 17.1-1.5 7.6.1 11.7 1.6l1.7.7 1.2.6z"/><path d="M1126.5 507.5c.6.7-6.4 9.1-13.7 20.5l-5 8.1-4 6.8q-1.8 3-3.4 4.3-1.6 1.1-1.8 1-.2-.3.9-1.9 1-1.5 2.4-4.5 1.3-3.1 3.3-7.1a107 107 0 0 1 15.6-22.4c3.1-3.3 5.3-5 5.7-4.8"/><path fill="none" stroke="#000" stroke-miterlimit="10" d="M1126.5 507.5c.6.7-6.4 9.1-13.7 20.5l-5 8.1-4 6.8q-1.8 3-3.4 4.3-1.6 1.1-1.8 1-.2-.3.9-1.9 1-1.5 2.4-4.5 1.3-3.1 3.3-7.1a107 107 0 0 1 15.6-22.4c3.1-3.3 5.3-5 5.7-4.8z"/><path d="M1322.4 586.5q-.2.2-1.6-1.5l-1.8-2-1-1.3-1.4-1.4-3-3.3-3.7-3.9-4.4-4.3-5-4.6-1.5-1.2-1.4-1.2-3-2.5q-3-2.5-6.5-5t-7.2-5l-3.9-2.6-4-2.4a212 212 0 0 0-37.4-18c-13.8-5-27.4-8.6-40-11.2-12.5-2.6-24-4.3-33.6-5.4q-14.5-1.6-22.9-2.3-8.2-.6-8.4-1 .1-.3 8.5-.2a329 329 0 0 1 57 6 229 229 0 0 1 78.4 29.6l4 2.5q2 1.2 3.9 2.6 3.8 2.6 7.2 5.2l6.5 5.3 3 2.5 1.4 1.3 1.4 1.3 5 4.8q2.3 2.3 4.2 4.6l3.6 4 2.8 3.6 1.2 1.5 1 1.4 1.5 2.2q1.3 1.8 1 2"/><path fill="none" stroke="#000" stroke-miterlimit="10" d="M1322.4 586.5q-.2.2-1.6-1.5l-1.8-2-1-1.3-1.4-1.4-3-3.3-3.7-3.9-4.4-4.3-5-4.6-1.5-1.2-1.4-1.2-3-2.5q-3-2.5-6.5-5t-7.2-5l-3.9-2.6-4-2.4a212 212 0 0 0-37.4-18c-13.8-5-27.4-8.6-40-11.2-12.5-2.6-24-4.3-33.6-5.4q-14.5-1.6-22.9-2.3-8.2-.6-8.4-1 .1-.3 8.5-.2a329 329 0 0 1 57 6 229 229 0 0 1 78.4 29.6l4 2.5q2 1.2 3.9 2.6 3.8 2.6 7.2 5.2l6.5 5.3 3 2.5 1.4 1.3 1.4 1.3 5 4.8q2.3 2.3 4.2 4.6l3.6 4 2.8 3.6 1.2 1.5 1 1.4 1.5 2.2q1.3 1.8 1 2z"/><path d="M1267 743.4q-.2-.3 2.4-6l7.4-16.2a165 165 0 0 0 8.7-24.6c2.5-9.5 3.9-20.4 7.3-31.5q2.6-8.4 5.4-16l15-39.1 6.6-16.5q2.6-6 2.9-6 .3.3-1.7 6.4l-5.7 16.9-14 39.5q-3 7.5-5.4 15.7c-3.3 10.8-4.8 21.7-7.4 31.4s-6.3 18-9.6 24.8a250 250 0 0 1-8.3 15.7 25 25 0 0 1-3.6 5.5"/><path fill="none" stroke="#000" stroke-miterlimit="10" d="M1267 743.4q-.2-.3 2.4-6l7.4-16.2a165 165 0 0 0 8.7-24.6c2.5-9.5 3.9-20.4 7.3-31.5q2.6-8.4 5.4-16l15-39.1 6.6-16.5q2.6-6 2.9-6 .3.3-1.7 6.4l-5.7 16.9-14 39.5q-3 7.5-5.4 15.7c-3.3 10.8-4.8 21.7-7.4 31.4s-6.3 18-9.6 24.8a250 250 0 0 1-8.3 15.7 25 25 0 0 1-3.6 5.5z"/><path d="M1244 772.4q-.1.2-5.6-1.6a108 108 0 0 0-39.1-4.3c-9 .5-18.8 1.9-29.4 1.9a112 112 0 0 1-65.5-21.6 19 19 0 0 1-4.4-4q.4-.2 5.2 3a138 138 0 0 0 24.1 12 126 126 0 0 0 40.7 7.3c10.2 0 20-1.2 29-1.6a114 114 0 0 1 24.2 1.5c6.8 1.3 12 3.2 15.6 4.6q5.4 2.4 5.3 2.8"/><path fill="none" stroke="#000" stroke-miterlimit="10" d="M1244 772.4q-.1.2-5.6-1.6a108 108 0 0 0-39.1-4.3c-9 .5-18.8 1.9-29.4 1.9a112 112 0 0 1-65.5-21.6 19 19 0 0 1-4.4-4q.4-.2 5.2 3a138 138 0 0 0 24.1 12 126 126 0 0 0 40.7 7.3c10.2 0 20-1.2 29-1.6a114 114 0 0 1 24.2 1.5c6.8 1.3 12 3.2 15.6 4.6q5.4 2.4 5.3 2.8z"/><path d="M1216.5 620.8c.1.5-4.8 2-12 5.7q-5.3 3-12.2 7.2-6.8 4.5-14.8 9.4l-15 9.3q-7.1 4-12 7.6c-6.7 4.6-9.8 8.6-10.2 8.3q-.3-.3 1.8-3.2 2-2.8 7-7 4.8-4 11.8-8.3a1157 1157 0 0 1 29.9-18.6q7-4.2 12.8-6.8c7.6-3.3 12.8-4 12.9-3.6"/><path fill="none" stroke="#000" stroke-miterlimit="10" d="M1216.5 620.8c.1.5-4.8 2-12 5.7q-5.3 3-12.2 7.2-6.8 4.5-14.8 9.4l-15 9.3q-7.1 4-12 7.6c-6.7 4.6-9.8 8.6-10.2 8.3q-.3-.3 1.8-3.2 2-2.8 7-7 4.8-4 11.8-8.3a1157 1157 0 0 1 29.9-18.6q7-4.2 12.8-6.8c7.6-3.3 12.8-4 12.9-3.6z"/><path d="M1414.6 741.5c-.1.4-7.6-1.2-19.5-4a2148 2148 0 0 1-46.3-12c-9-2.3-17.6-4.5-25.5-5.8q-11.9-2-21.1-1.7c-12.1.2-19.3 3-19.4 2.5q0-.2 1.2-.7l3.7-1.5c3.3-1 8.2-2.2 14.4-2.6q9.4-.8 21.7 1 12.1 2 25.9 5.7c18 4.8 34.3 9.4 46 12.8s19 5.8 18.9 6.3"/><path fill="none" stroke="#000" stroke-miterlimit="10" d="M1414.6 741.5c-.1.4-7.6-1.2-19.5-4a2148 2148 0 0 1-46.3-12c-9-2.3-17.6-4.5-25.5-5.8q-11.9-2-21.1-1.7c-12.1.2-19.3 3-19.4 2.5q0-.2 1.2-.7l3.7-1.5c3.3-1 8.2-2.2 14.4-2.6q9.4-.8 21.7 1 12.1 2 25.9 5.7c18 4.8 34.3 9.4 46 12.8s19 5.8 18.9 6.3z"/><path d="M1505.3 727.6c0 .5-7.7-.4-20.2-1.6s-29.5-3-48.5-2.5q-14.3.3-26.6 2c-8.1 1-15.2 3-21.5 4q-4.7.8-8.6.6-3.8 0-6.5-1c-3.4-1.1-4.9-2.5-4.8-2.6.1-.3 1.8.7 5.2 1.4q2.4.5 6.1.4t8.2-1c6-1.4 13.2-3.5 21.5-4.7q12.4-2.1 27-2.4a298 298 0 0 1 68.7 7.4"/><path fill="none" stroke="#000" stroke-miterlimit="10" d="M1505.3 727.6c0 .5-7.7-.4-20.2-1.6s-29.5-3-48.5-2.5q-14.3.3-26.6 2c-8.1 1-15.2 3-21.5 4q-4.7.8-8.6.6-3.8 0-6.5-1c-3.4-1.1-4.9-2.5-4.8-2.6.1-.3 1.8.7 5.2 1.4q2.4.5 6.1.4t8.2-1c6-1.4 13.2-3.5 21.5-4.7q12.4-2.1 27-2.4a298 298 0 0 1 68.7 7.4z"/><path d="m870.6 725.3-2 1.4q-1 .8-2.5 1.5l-3.7 1.9q-8.4 4.3-24.5 8.5-8 2-17.4 4L811 745l-5 1.2-5.2 1.3a682 682 0 0 0-124 44.5q-14.8 7-23.2 11.3a53 53 0 0 1-8.6 4 53 53 0 0 1 8-5.2q8-4.7 22.8-12.2A585 585 0 0 1 800 744.5l5.2-1.2 5.1-1.2 9.8-2 17.4-3.8q16-3.6 24.5-7.4c5.6-2.3 8.6-3.9 8.7-3.6"/><path fill="none" stroke="#000" stroke-miterlimit="10" d="m870.6 725.3-2 1.4q-1 .8-2.5 1.5l-3.7 1.9q-8.4 4.3-24.5 8.5-8 2-17.4 4L811 745l-5 1.2-5.2 1.3a682 682 0 0 0-124 44.5q-14.8 7-23.2 11.3a53 53 0 0 1-8.6 4 53 53 0 0 1 8-5.2q8-4.7 22.8-12.2A585 585 0 0 1 800 744.5l5.2-1.2 5.1-1.2 9.8-2 17.4-3.8q16-3.6 24.5-7.4c5.6-2.3 8.6-3.9 8.7-3.6z"/><path d="M891.5 718.6q-.2-.3 3.2-7.2t9.7-19l14.7-27.8 8.8-16.5c3-5.7 6.3-11.5 9-17.7q2-4.6 3.4-9.3l1.2-4.7.4-2.4.4-2.3q1.2-9.5.7-18.3c-.6-11.8-2.2-22.4-3-31.4q-1.1-13.6-.5-21.3l.7-5.8q.3-2 .5-2t.2 2q-.2 2 0 5.8-.2 7.6 1.4 21.1c1 8.9 3 19.4 3.7 31.4q.6 9-.6 19l-.3 2.4-.5 2.4-1.2 5q-1.4 5-3.5 9.7-4.4 9.5-9.2 18l-9 16.3a3413 3413 0 0 1-25.9 46q-3.9 6.7-4.3 6.6"/><path fill="none" stroke="#000" stroke-miterlimit="10" d="M891.5 718.6q-.2-.3 3.2-7.2t9.7-19l14.7-27.8 8.8-16.5c3-5.7 6.3-11.5 9-17.7q2-4.6 3.4-9.3l1.2-4.7.4-2.4.4-2.3q1.2-9.5.7-18.3c-.6-11.8-2.2-22.4-3-31.4q-1.1-13.6-.5-21.3l.7-5.8q.3-2 .5-2t.2 2q-.2 2 0 5.8-.2 7.6 1.4 21.1c1 8.9 3 19.4 3.7 31.4q.6 9-.6 19l-.3 2.4-.5 2.4-1.2 5q-1.4 5-3.5 9.7-4.4 9.5-9.2 18l-9 16.3a3413 3413 0 0 1-25.9 46q-3.9 6.7-4.3 6.6z"/><path d="M1017.4 735.6q0 .4-4.9 1.7t-13.8 1.8-20.6-1.2a205 205 0 0 1-24.6-5.1l-24.2-6.2q-11.3-2.9-20-4.1c-11.4-1.9-18.6-1.7-18.6-2.3q.1-.4 5-.6 5.1-.3 14 .6a182 182 0 0 1 20.2 3.4q11.4 2.7 24.4 6a506 506 0 0 0 24.3 5.4q11.3 1.8 20 1.8c11.6.1 18.6-1.7 18.8-1.2"/><path fill="none" stroke="#000" stroke-miterlimit="10" d="M1017.4 735.6q0 .4-4.9 1.7t-13.8 1.8-20.6-1.2a205 205 0 0 1-24.6-5.1l-24.2-6.2q-11.3-2.9-20-4.1c-11.4-1.9-18.6-1.7-18.6-2.3q.1-.4 5-.6 5.1-.3 14 .6a182 182 0 0 1 20.2 3.4q11.4 2.7 24.4 6a506 506 0 0 0 24.3 5.4q11.3 1.8 20 1.8c11.6.1 18.6-1.7 18.8-1.2z"/><path d="M1068.7 534.1q-.1.3-5-1.5l-5.7-2q-3.3-1.2-7.6-2.4l-4.4-1.3-5-1.1q-5-1.2-10.8-2.2-11.6-1.8-25.2-2-13.6.2-25.3 2-5.7 1-10.9 2.2l-4.9 1.1-4.4 1.3q-4.3 1.2-7.6 2.4l-3.1 1-2.6 1q-4.8 1.7-5 1.5 0-.4 4.5-2.7l2.5-1.2 3-1.3q3.3-1.5 7.6-3l4.5-1.4 4.9-1.4q5.1-1.4 11-2.4 11.8-2.2 25.8-2.3 13.9.2 25.7 2.3 6 1.1 11 2.5l5 1.3 4.4 1.5q4.3 1.4 7.6 2.9l3 1.3 2.5 1.2q4.6 2.4 4.5 2.7"/><path fill="none" stroke="#000" stroke-miterlimit="10" d="M1068.7 534.1q-.1.3-5-1.5l-5.7-2q-3.3-1.2-7.6-2.4l-4.4-1.3-5-1.1q-5-1.2-10.8-2.2-11.6-1.8-25.2-2-13.6.2-25.3 2-5.7 1-10.9 2.2l-4.9 1.1-4.4 1.3q-4.3 1.2-7.6 2.4l-3.1 1-2.6 1q-4.8 1.7-5 1.5 0-.4 4.5-2.7l2.5-1.2 3-1.3q3.3-1.5 7.6-3l4.5-1.4 4.9-1.4q5.1-1.4 11-2.4 11.8-2.2 25.8-2.3 13.9.2 25.7 2.3 6 1.1 11 2.5l5 1.3 4.4 1.5q4.3 1.4 7.6 2.9l3 1.3 2.5 1.2q4.6 2.4 4.5 2.7z"/><path fill="#fff" d="M767.1 513c-2.9 8.8-6.4 15.7-9.6 26.7q-2 6.3-3.4 14.6c-1.2 7.5-.6 19.5-2.7 26.1-3 11.5-5.4 21-10.5 30.2-67.8-8-137.8-18.2-205.6-26.2a4829 4829 0 0 0 52.1 169.4l71.6 22.8a63 63 0 0 0-14.9 29 66 66 0 0 0 5.5 40.3c3.5 8.3 15 31.6 60.5 57.2 7.4 4.1 39 21.4 100.7 34.3a592 592 0 0 0 101 12l8.4-16.8 32.3 2.8a524 524 0 0 0 54 55.4c3.6-1.6 8.8-4.6 10.7-10 1.6-4.7 0-8.8-8.4-26.1a438 438 0 0 0-25-46.7l24.9-2.7a125 125 0 0 0 18-43.3l25.3-4.9c17.9 6.5 32.1 13 42.2 18 25 12 39.5 22.1 48.4 16.2 3.2-2.2 5.5-6.2 5.6-9.9 0-6.5-6.7-11.3-12.5-15.6a348 348 0 0 1-31.6-26.3c-12.3-11.9-14.7-18.6-28.2-27-4.2-2.6-8-4.4-10.5-5.5a30 30 0 0 0-19.3 17.6l-24.6 3.5-11.4-24.6-44.7 7c6-6.5 14.2-16.4 21.4-30.1 12.6-24 14.4-44.8 15.5-60.3 2-26.7-3.1-36.4-6.3-41a40 40 0 0 0-9.2-9.5l-6.5-24.4a35 35 0 0 0 5-39.3c1.2-8 2.3-19.1 1.7-32.3-.6-16-1.8-44.4-20.2-72.2a129 129 0 0 0-50-43.2c-12.2-6.4-23.3-10-31.3-12-88.3 12.2-110.7 28.2-113.2 41.1-.8 3.8-1 12.6-5.2 25.7M809 694c-6.3 6.3-4.1 11.5-10 18.3a32 32 0 0 1-20.5 9.9L770 680c-.3-7.8-.5-4.8-.8-12.5 3.5-5.6 11-22.7 16.9-34 10.2-19.5 11.2-31.8 15.5-31.6 2.7.1 7 4.1 11.6 30l4.3 38.9c10 6.6 11.2 10.4 10.7 12.5-1.2 4.8-11.1 2.8-19.1 10.8"/><path d="M814.2 629.5q-.2-.2-1.5-4.4a54 54 0 0 0-5.7-11l-4.7-7.3-2.4-4.3-1.3-2.2-1-2.4a96 96 0 0 1-7-22.1q-2.3-12.3-2.5-23t.3-18.8a81 81 0 0 1 1.9-17.2c.4 0 .4 6.7.4 17.3q-.1 8 .4 18.6t2.6 22.4q2.4 12 6.6 21.5l1 2.4 1.1 2.2q1 2.3 2.2 4.2l4.4 7.5a43 43 0 0 1 5 11.9c.6 3 .4 4.6.2 4.7"/><path fill="none" stroke="#000" stroke-miterlimit="10" d="M814.2 629.5q-.2-.2-1.5-4.4a54 54 0 0 0-5.7-11l-4.7-7.3-2.4-4.3-1.3-2.2-1-2.4a96 96 0 0 1-7-22.1q-2.3-12.3-2.5-23t.3-18.8a81 81 0 0 1 1.9-17.2c.4 0 .4 6.7.4 17.3q-.1 8 .4 18.6t2.6 22.4q2.4 12 6.6 21.5l1 2.4 1.1 2.2q1 2.3 2.2 4.2l4.4 7.5a43 43 0 0 1 5 11.9c.6 3 .4 4.6.2 4.7z"/><path d="M876.4 674.8q0 .4-4.4 1.3-4.3 1.2-12.3 2.3-7.9 1.3-18.5 1.2-5.3-.2-11-1.2l-3-.6-2.8-.8q-3-.7-5.8-2.7a10 10 0 0 1-4-5.6q-.7-3-1-5.9a111 111 0 0 1-.9-11q-.1-10.5-.7-18.3c-.7-10.3-3.7-16.2-3.2-16.4l.8 1q.7.9 1.5 3 2 4.1 3.2 12.2 1 8 1.4 18.4.3 5.1 1 10.7l1 5.4q.7 2.4 2.8 3.9 2 1.4 4.9 2.2l2.7.7 2.7.6q5.4 1.2 10.5 1.4 10.3.4 18.2-.5l12.3-1.2q4.6-.4 4.6-.1"/><path fill="none" stroke="#000" stroke-miterlimit="10" d="M876.4 674.8q0 .4-4.4 1.3-4.3 1.2-12.3 2.3-7.9 1.3-18.5 1.2-5.3-.2-11-1.2l-3-.6-2.8-.8q-3-.7-5.8-2.7a10 10 0 0 1-4-5.6q-.7-3-1-5.9a111 111 0 0 1-.9-11q-.1-10.5-.7-18.3c-.7-10.3-3.7-16.2-3.2-16.4l.8 1q.7.9 1.5 3 2 4.1 3.2 12.2 1 8 1.4 18.4.3 5.1 1 10.7l1 5.4q.7 2.4 2.8 3.9 2 1.4 4.9 2.2l2.7.7 2.7.6q5.4 1.2 10.5 1.4 10.3.4 18.2-.5l12.3-1.2q4.6-.4 4.6-.1z"/><path d="M751.8 561.6c-.8-.2 3.2-15.6 9.1-34.3 5.9-18.8 11.3-33.7 12.2-33.5s-3.2 15.7-9 34.4c-6 18.8-11.4 33.7-12.3 33.4"/><path fill="none" stroke="#000" stroke-miterlimit="10" d="M751.8 561.6c-.8-.2 3.2-15.6 9.1-34.3 5.9-18.8 11.3-33.7 12.2-33.5s-3.2 15.7-9 34.4c-6 18.8-11.4 33.7-12.3 33.4z"/><path d="M795.4 583.4c-.4.3-2.4-1.4-5.8-4a81 81 0 0 0-22.4-11.7l-7.1-2.8c-4-1.9-6.1-3.6-5.9-4s2.7.6 6.7 1.8l7.2 2.1a52 52 0 0 1 23 12.9c3.1 3.1 4.6 5.4 4.3 5.7"/><path fill="none" stroke="#000" stroke-miterlimit="10" d="M795.4 583.4c-.4.3-2.4-1.4-5.8-4a81 81 0 0 0-22.4-11.7l-7.1-2.8c-4-1.9-6.1-3.6-5.9-4s2.7.6 6.7 1.8l7.2 2.1a52 52 0 0 1 23 12.9c3.1 3.1 4.6 5.4 4.3 5.7z"/><path d="M587.4 753.8a29 29 0 0 1-2.8-6.5l-6.3-18a2001 2001 0 0 1-41.6-138.5 29 29 0 0 1-1.3-6.8 29 29 0 0 1 2.5 6.5l5.8 18.1 18.4 60 18.4 60 5.3 18.3a29 29 0 0 1 1.6 6.9"/><path fill="none" stroke="#000" stroke-miterlimit="10" d="M587.4 753.8a29 29 0 0 1-2.8-6.5l-6.3-18a2001 2001 0 0 1-41.6-138.5 29 29 0 0 1-1.3-6.8 29 29 0 0 1 2.5 6.5l5.8 18.1 18.4 60 18.4 60 5.3 18.3a29 29 0 0 1 1.6 6.9z"/><path d="M759 613.8q-.1.3-8.8-.9l-24-3.4a5636 5636 0 0 0-182-23.6c-5.6-.8-8.8-1.3-8.7-1.5q.1-.3 8.8.2t24.2 1.9a1925 1925 0 0 1 182 25.2q8.4 1.8 8.6 2"/><path fill="none" stroke="#000" stroke-miterlimit="10" d="M759 613.8q-.1.3-8.8-.9l-24-3.4a5636 5636 0 0 0-182-23.6c-5.6-.8-8.8-1.3-8.7-1.5q.1-.3 8.8.2t24.2 1.9a1925 1925 0 0 1 182 25.2q8.4 1.8 8.6 2z"/><path d="M795.2 791.7q-.3-.1-2.4-6.8-2-6.7-5-18.7a1268 1268 0 0 1-28.3-144.5 30 30 0 0 1-.5-7.1q.3 0 1.7 7c1 4.4 2.2 11 3.7 19a3915 3915 0 0 0 29.7 144q1.4 6.9 1 7"/><path fill="none" stroke="#000" stroke-miterlimit="10" d="M795.2 791.7q-.3-.1-2.4-6.8-2-6.7-5-18.7a1268 1268 0 0 1-28.3-144.5 30 30 0 0 1-.5-7.1q.3 0 1.7 7c1 4.4 2.2 11 3.7 19a3915 3915 0 0 0 29.7 144q1.4 6.9 1 7z"/><path d="M791.7 795.3q-.2.3-8.2.5H774l-12.7-.6-7.3-.5-8-.8q-8.2-.8-17.5-2.1a579 579 0 0 1-39.6-7.4 921 921 0 0 1-99.3-29q.2-.3 8 1.7l21.3 5.9c18 5 42.9 12 70.7 18.2q21 4.6 39.4 7.6 9.1 1.4 17.3 2.4l8 1 7.2.7q7 .7 12.5 1l5.2.4 4.3.2q8 .5 8.2.8"/><path fill="none" stroke="#000" stroke-miterlimit="10" d="M791.7 795.3q-.2.3-8.2.5H774l-12.7-.6-7.3-.5-8-.8q-8.2-.8-17.5-2.1a579 579 0 0 1-39.6-7.4 921 921 0 0 1-99.3-29q.2-.3 8 1.7l21.3 5.9c18 5 42.9 12 70.7 18.2q21 4.6 39.4 7.6 9.1 1.4 17.3 2.4l8 1 7.2.7q7 .7 12.5 1l5.2.4 4.3.2q8 .5 8.2.8z"/><path d="M667.1 710c0-.2 1.6-.5 4-2a18 18 0 0 0 8-16.7q-.6-4.3-2.8-8.7a30 30 0 0 0-6.2-8 14 14 0 0 0-4.2-2.7 8 8 0 0 0-4.8-.3 37 37 0 0 0-10 4q-2.2 1.5-3.7 3.4-1.5 2-2.2 4.1-1.3 4.6-.5 9 .7 4.3 2.3 7.7a20 20 0 0 0 7 9.1c2.4 1.5 4 1.7 4 2 0 .1-1.8.4-4.6-.9q-2.2-1-4.4-3.2a31 31 0 0 1-7-14.2 22 22 0 0 1 .4-10.3 16 16 0 0 1 6.8-9.3q2.5-1.7 5.4-2.7 2.8-1.2 5.8-1.9 1.6-.3 3.3-.3 1.8.2 3.3.8a17 17 0 0 1 5.2 3.4q4.4 4 6.8 9t2.7 9.8q0 2.4-.2 4.7-.4 2.2-1.3 4.1c-2.2 5-5.8 8-8.6 9.2-2.7 1.3-4.5 1.1-4.5 1"/><path fill="none" stroke="#000" stroke-miterlimit="10" d="M667.1 710c0-.2 1.6-.5 4-2a18 18 0 0 0 8-16.7q-.6-4.3-2.8-8.7a30 30 0 0 0-6.2-8 14 14 0 0 0-4.2-2.7 8 8 0 0 0-4.8-.3 37 37 0 0 0-10 4q-2.2 1.5-3.7 3.4-1.5 2-2.2 4.1-1.3 4.6-.5 9 .7 4.3 2.3 7.7a20 20 0 0 0 7 9.1c2.4 1.5 4 1.7 4 2 0 .1-1.8.4-4.6-.9q-2.2-1-4.4-3.2a31 31 0 0 1-7-14.2 22 22 0 0 1 .4-10.3 16 16 0 0 1 6.8-9.3q2.5-1.7 5.4-2.7 2.8-1.2 5.8-1.9 1.6-.3 3.3-.3 1.8.2 3.3.8a17 17 0 0 1 5.2 3.4q4.4 4 6.8 9t2.7 9.8q0 2.4-.2 4.7-.4 2.2-1.3 4.1c-2.2 5-5.8 8-8.6 9.2-2.7 1.3-4.5 1.1-4.5 1z"/><path d="M875.6 745.4c.2.3-3.8 4-10.8 9.3a320 320 0 0 1-59 35.3c-8 3.7-13.2 5.5-13.3 5.1s4.5-3 12.3-7.2a775 775 0 0 0 58.6-35 71 71 0 0 1 12.2-7.5"/><path fill="none" stroke="#000" stroke-miterlimit="10" d="M875.6 745.4c.2.3-3.8 4-10.8 9.3a320 320 0 0 1-59 35.3c-8 3.7-13.2 5.5-13.3 5.1s4.5-3 12.3-7.2a775 775 0 0 0 58.6-35 71 71 0 0 1 12.2-7.5z"/><path d="M878.7 745c.3.4-4 4-11.3 9.2a443 443 0 0 1-59.8 36.3c-8 4-13.2 6.1-13.4 5.7s4.5-3.2 12.3-7.7l30-17.8c11.6-7 22-13.6 29.6-18.4a70 70 0 0 1 12.6-7.3"/><path fill="none" stroke="#000" stroke-miterlimit="10" d="M878.7 745c.3.4-4 4-11.3 9.2a443 443 0 0 1-59.8 36.3c-8 4-13.2 6.1-13.4 5.7s4.5-3.2 12.3-7.7l30-17.8c11.6-7 22-13.6 29.6-18.4a70 70 0 0 1 12.6-7.3z"/><path d="M877.3 744.6c0 .8-5 1.5-11.2 1-6.2-.7-11-2.3-10.8-3.2s5.1-.7 11.1-.1 10.9 1.3 10.9 2.3"/><path fill="none" stroke="#000" stroke-miterlimit="10" d="M877.3 744.6c0 .8-5 1.5-11.2 1-6.2-.7-11-2.3-10.8-3.2s5.1-.7 11.1-.1 10.9 1.3 10.9 2.3z"/><path d="M831 690.7c-1 0-1.4-3.3-2-7.1s-1.5-7-.7-7.4q.7-.2 2 1.6 1.1 1.9 1.8 5.2t0 5.5q-.4 2.2-1.2 2.2"/><path fill="none" stroke="#000" stroke-miterlimit="10" d="M831 690.7c-1 0-1.4-3.3-2-7.1s-1.5-7-.7-7.4q.7-.2 2 1.6 1.1 1.9 1.8 5.2t0 5.5q-.4 2.2-1.2 2.2z"/><path d="M965.1 652.5q0-.3 2.2-1.4l6-3a30 30 0 0 0 7.9-5.7q1.9-2 3.1-4.6t2-5.7q1.3-6.3 1.3-12 0-5.6-1.2-9.8l-.7-4 .1-3c.3-1.8 1-2.6 1.1-2.5l.2 2.5q0 2.3 1.6 6.4a37 37 0 0 1 1.9 10.3q.2 6-1.2 12.8-.7 3.5-2.2 6.5t-3.9 5.2a28 28 0 0 1-9 5.6q-4.1 1.7-6.6 2.2-2.4.5-2.6.2"/><path fill="none" stroke="#000" stroke-miterlimit="10" d="M965.1 652.5q0-.3 2.2-1.4l6-3a30 30 0 0 0 7.9-5.7q1.9-2 3.1-4.6t2-5.7q1.3-6.3 1.3-12 0-5.6-1.2-9.8l-.7-4 .1-3c.3-1.8 1-2.6 1.1-2.5l.2 2.5q0 2.3 1.6 6.4a37 37 0 0 1 1.9 10.3q.2 6-1.2 12.8-.7 3.5-2.2 6.5t-3.9 5.2a28 28 0 0 1-9 5.6q-4.1 1.7-6.6 2.2-2.4.5-2.6.2z"/><path d="M986.8 669.6c-.9.1-2.7-5.8-3.8-13.3-1.2-7.5-1.2-13.7-.3-13.8.9 0 2.3 5.9 3.5 13.3 1.1 7.5 1.5 13.6.6 13.8"/><path fill="none" stroke="#000" stroke-miterlimit="10" d="M986.8 669.6c-.9.1-2.7-5.8-3.8-13.3-1.2-7.5-1.2-13.7-.3-13.8.9 0 2.3 5.9 3.5 13.3 1.1 7.5 1.5 13.6.6 13.8z"/><path d="M965.8 808.9q-.2-.4 5-6.3l5.6-7.5 3.2-4.8 1.7-2.7q.7-1.5 1.7-2.9a131 131 0 0 0 17.6-68.1V714l-.1-2.6-.4-5q-.1-2.6-.6-5l-.7-5-1-4.7-.5-2.4-.6-2.3-1.3-4.5q-.6-2.2-1.4-4.3c-1-2.6-2.5-5.1-4.5-6.2q-1.5-.9-3.1-.5t-3.3 1.6a124 124 0 0 1-33.8 15.2q-7.7 1.9-8 1.5.1-.3 7.6-2.7a143 143 0 0 0 32.7-16.3q1.8-1.2 4.1-2 2.7-.6 5.2.6 2.3 1.4 3.6 3.4 1.5 2 2.3 4.3.9 2.3 1.5 4.5l1.4 4.6.6 2.4.6 2.4 1 4.9.8 5q.5 2.6.6 5.1l.4 5.2.2 2.7v2.6a131 131 0 0 1-19 69.4l-1.7 2.9-1.9 2.6-3.5 4.8-6.1 7.2a38 38 0 0 1-6 5.5"/><path fill="none" stroke="#000" stroke-miterlimit="10" d="M965.8 808.9q-.2-.4 5-6.3l5.6-7.5 3.2-4.8 1.7-2.7q.7-1.5 1.7-2.9a131 131 0 0 0 17.6-68.1V714l-.1-2.6-.4-5q-.1-2.6-.6-5l-.7-5-1-4.7-.5-2.4-.6-2.3-1.3-4.5q-.6-2.2-1.4-4.3c-1-2.6-2.5-5.1-4.5-6.2q-1.5-.9-3.1-.5t-3.3 1.6a124 124 0 0 1-33.8 15.2q-7.7 1.9-8 1.5.1-.3 7.6-2.7a143 143 0 0 0 32.7-16.3q1.8-1.2 4.1-2 2.7-.6 5.2.6 2.3 1.4 3.6 3.4 1.5 2 2.3 4.3.9 2.3 1.5 4.5l1.4 4.6.6 2.4.6 2.4 1 4.9.8 5q.5 2.6.6 5.1l.4 5.2.2 2.7v2.6a131 131 0 0 1-19 69.4l-1.7 2.9-1.9 2.6-3.5 4.8-6.1 7.2a38 38 0 0 1-6 5.5z"/><path d="M1007.9 903.5q0 .2-3.3 1.1l-9.8 2.4c-8.5 2-20.9 4.6-36.4 7a382 382 0 0 1-54.7 4.4c-20.7 0-43.7-2-66.8-8.3q-17.5-4.5-33-11.8a171 171 0 0 1-28.2-16.3 132 132 0 0 1-22-19.7 104 104 0 0 1-19.2-31.5 88 88 0 0 1-5.4-25.4v-5.8q0-2.5.3-4.3.4-3.5.6-3.4c.4 0-.4 4.8.4 13.4A87 87 0 0 0 741 840q5.4 10.3 14.6 20.5a132 132 0 0 0 21.8 19q12.5 9 27.8 15.9 15.2 7 32.4 11.5a263 263 0 0 0 66 8.5c20.5.1 39-1.7 54.4-3.7a740 740 0 0 0 46.3-7.7z"/><path fill="none" stroke="#000" stroke-miterlimit="10" d="M1007.9 903.5q0 .2-3.3 1.1l-9.8 2.4c-8.5 2-20.9 4.6-36.4 7a382 382 0 0 1-54.7 4.4c-20.7 0-43.7-2-66.8-8.3q-17.5-4.5-33-11.8a171 171 0 0 1-28.2-16.3 132 132 0 0 1-22-19.7 104 104 0 0 1-19.2-31.5 88 88 0 0 1-5.4-25.4v-5.8q0-2.5.3-4.3.4-3.5.6-3.4c.4 0-.4 4.8.4 13.4A87 87 0 0 0 741 840q5.4 10.3 14.6 20.5a132 132 0 0 0 21.8 19q12.5 9 27.8 15.9 15.2 7 32.4 11.5a263 263 0 0 0 66 8.5c20.5.1 39-1.7 54.4-3.7a740 740 0 0 0 46.3-7.7z"/><path d="M903.6 814.4c-.5.8-6.5-2.7-14.4-5.6-7.9-3-14.7-4.3-14.6-5.2 0-.5 1.9-.7 4.8-.4a44 44 0 0 1 20.9 7.8q3.6 2.7 3.3 3.4"/><path fill="none" stroke="#000" stroke-miterlimit="10" d="M903.6 814.4c-.5.8-6.5-2.7-14.4-5.6-7.9-3-14.7-4.3-14.6-5.2 0-.5 1.9-.7 4.8-.4a44 44 0 0 1 20.9 7.8q3.6 2.7 3.3 3.4z"/><path d="M1011.3 802.8c0 .4-7 2.4-18.8 4.7a460 460 0 0 1-46.4 6.9 554 554 0 0 1-46.8 2.5c-12 0-19.4-.5-19.4-.9s7.4-.8 19.4-1.4a1161 1161 0 0 0 46.5-3.5 992 992 0 0 0 46.3-5.9c11.8-1.7 19-2.9 19.2-2.4"/><path fill="none" stroke="#000" stroke-miterlimit="10" d="M1011.3 802.8c0 .4-7 2.4-18.8 4.7a460 460 0 0 1-46.4 6.9 554 554 0 0 1-46.8 2.5c-12 0-19.4-.5-19.4-.9s7.4-.8 19.4-1.4a1161 1161 0 0 0 46.5-3.5 992 992 0 0 0 46.3-5.9c11.8-1.7 19-2.9 19.2-2.4z"/><path d="M1008.7 905.3c-.4-.4 3.2-5.3 7.2-14.3a95 95 0 0 0 8.2-37 92 92 0 0 0-7.6-37c-3.8-9-7.4-14-7-14.4q.4-.2 3 3.3 2.7 3.3 6.1 10.1a82 82 0 0 1 8.8 38.1 86 86 0 0 1-9.4 38 68 68 0 0 1-6.3 10q-2.6 3.3-3 3.2"/><path fill="none" stroke="#000" stroke-miterlimit="10" d="M1008.7 905.3c-.4-.4 3.2-5.3 7.2-14.3a95 95 0 0 0 8.2-37 92 92 0 0 0-7.6-37c-3.8-9-7.4-14-7-14.4q.4-.2 3 3.3 2.7 3.3 6.1 10.1a82 82 0 0 1 8.8 38.1 86 86 0 0 1-9.4 38 68 68 0 0 1-6.3 10q-2.6 3.3-3 3.2z"/><path d="M912 949.6q0 .2-3.7.5-3.6.3-10.7.5h-7.8l-9.2-.4q-10-.6-22.4-2.2a522 522 0 0 1-57.5-11.6 718 718 0 0 1-33.4-9 370 370 0 0 1-35.1-12.2q-17.7-7.4-33.4-16.7a161 161 0 0 1-27.8-20.9 103 103 0 0 1-19.4-24.8l-1.8-3.3-1.5-3.3q-1.5-3.3-2.5-6.6a66 66 0 0 1-2.1-35.6 55 55 0 0 1 6-16l.8-1.5 1-1.4q.7-1.3 1.6-2.4l3-3.5q2.6-2.6 2.8-2.5l-2.3 3-2.7 3.6-1.5 2.4-.8 1.4-.8 1.5c-2.1 4-4.2 9.3-5.3 15.7a66 66 0 0 0 2.7 34.5q1 3.2 2.5 6.3l1.5 3.2 1.7 3.1q7.2 12.8 19.2 24t27.4 20.4a248 248 0 0 0 33 16.4q17.5 7 34.7 12.2a780 780 0 0 0 90.3 21.3q12.3 1.9 22.2 2.7l9.2.6 7.7.3q7 .2 10.7.1 3.7 0 3.7.2"/><path fill="none" stroke="#000" stroke-miterlimit="10" d="M912 949.6q0 .2-3.7.5-3.6.3-10.7.5h-7.8l-9.2-.4q-10-.6-22.4-2.2a522 522 0 0 1-57.5-11.6 718 718 0 0 1-33.4-9 370 370 0 0 1-35.1-12.2q-17.7-7.4-33.4-16.7a161 161 0 0 1-27.8-20.9 103 103 0 0 1-19.4-24.8l-1.8-3.3-1.5-3.3q-1.5-3.3-2.5-6.6a66 66 0 0 1-2.1-35.6 55 55 0 0 1 6-16l.8-1.5 1-1.4q.7-1.3 1.6-2.4l3-3.5q2.6-2.6 2.8-2.5l-2.3 3-2.7 3.6-1.5 2.4-.8 1.4-.8 1.5c-2.1 4-4.2 9.3-5.3 15.7a66 66 0 0 0 2.7 34.5q1 3.2 2.5 6.3l1.5 3.2 1.7 3.1q7.2 12.8 19.2 24t27.4 20.4a248 248 0 0 0 33 16.4q17.5 7 34.7 12.2a780 780 0 0 0 90.3 21.3q12.3 1.9 22.2 2.7l9.2.6 7.7.3q7 .2 10.7.1 3.7 0 3.7.2z"/><path d="M923.2 918.2c.4 0 .5 2 .2 5a53 53 0 0 1-8.2 22.4q-2.7 4-3.4 3.7c-.8-.5 2.6-7 5.7-15.6 3-8.4 4.7-15.6 5.7-15.5"/><path fill="none" stroke="#000" stroke-miterlimit="10" d="M923.2 918.2c.4 0 .5 2 .2 5a53 53 0 0 1-8.2 22.4q-2.7 4-3.4 3.7c-.8-.5 2.6-7 5.7-15.6 3-8.4 4.7-15.6 5.7-15.5z"/><path d="M1047 823.8c.2.9-5 2.5-11.7 2.8-6.7.4-12-.6-12-1.5s5.4-1.4 11.8-1.7 11.8-.5 12 .4"/><path fill="none" stroke="#000" stroke-miterlimit="10" d="M1047 823.8c.2.9-5 2.5-11.7 2.8-6.7.4-12-.6-12-1.5s5.4-1.4 11.8-1.7 11.8-.5 12 .4z"/><path d="M1149 880.2c-.3.4-6-5-15.2-13.8a1280 1280 0 0 0-57-51.2c-3.2-2.7-6.2-5.3-9.4-6.4a9 9 0 0 0-8.6 1.2q-1.6 1.4-3 3t-2.4 3.2q-2.3 3-4.1 5c-2.6 2.7-4.6 3.3-4.7 3.2-.1-.3 1.6-1.2 3.7-4l3.6-5.3 2.3-3.4q1.1-1.8 3.2-3.5a11 11 0 0 1 10.9-2c4 1.3 7.1 4 10.4 6.7a643 643 0 0 1 56.7 51.9 111 111 0 0 1 13.6 15.4"/><path fill="none" stroke="#000" stroke-miterlimit="10" d="M1149 880.2c-.3.4-6-5-15.2-13.8a1280 1280 0 0 0-57-51.2c-3.2-2.7-6.2-5.3-9.4-6.4a9 9 0 0 0-8.6 1.2q-1.6 1.4-3 3t-2.4 3.2q-2.3 3-4.1 5c-2.6 2.7-4.6 3.3-4.7 3.2-.1-.3 1.6-1.2 3.7-4l3.6-5.3 2.3-3.4q1.1-1.8 3.2-3.5a11 11 0 0 1 10.9-2c4 1.3 7.1 4 10.4 6.7a643 643 0 0 1 56.7 51.9 111 111 0 0 1 13.6 15.4z"/><path d="M1055 857c.1 1-6 2.8-13.9 4.1-7.8 1.4-14.3 1.8-14.4 1-.2-1 6-2.8 13.8-4.2 7.9-1.3 14.3-1.7 14.5-.9"/><path fill="none" stroke="#000" stroke-miterlimit="10" d="M1055 857c.1 1-6 2.8-13.9 4.1-7.8 1.4-14.3 1.8-14.4 1-.2-1 6-2.8 13.8-4.2 7.9-1.3 14.3-1.7 14.5-.9z"/><path d="m1148.2 881.5.2.2q.3.2.5.7.6 1.2.2 3.5a9 9 0 0 1-6 6.4q-1.7.5-3.8.5-4-.1-8.3-1.8a578 578 0 0 1-28.8-11 802 802 0 0 1-35.8-15.4 89 89 0 0 1-14.4-7.4c.2-.5 6 1.7 15.3 5.3l36.1 14.5 19.9 8 8.6 3.5a25 25 0 0 0 7.5 2q1.7 0 3.2-.3t2.5-1.2a8 8 0 0 0 2.8-3.5q.7-1.8.4-2.9t-.1-1.1"/><path fill="none" stroke="#000" stroke-miterlimit="10" d="m1148.2 881.5.2.2q.3.2.5.7.6 1.2.2 3.5a9 9 0 0 1-6 6.4q-1.7.5-3.8.5-4-.1-8.3-1.8a578 578 0 0 1-28.8-11 802 802 0 0 1-35.8-15.4 89 89 0 0 1-14.4-7.4c.2-.5 6 1.7 15.3 5.3l36.1 14.5 19.9 8 8.6 3.5a25 25 0 0 0 7.5 2q1.7 0 3.2-.3t2.5-1.2a8 8 0 0 0 2.8-3.5q.7-1.8.4-2.9t-.1-1.1z"/><path d="M954 936.7q-.3 0-.4-.3l-.6-.2h-.6l-3-.2-12-1c-9.5-1-17.2-1.5-17.2-2.4s7.8-1.8 17.4-1a77 77 0 0 1 14.2 2.7l.9.3.8.5q.8.5.7 1.1 0 .5-.3.5"/><path fill="none" stroke="#000" stroke-miterlimit="10" d="M954 936.7q-.3 0-.4-.3l-.6-.2h-.6l-3-.2-12-1c-9.5-1-17.2-1.5-17.2-2.4s7.8-1.8 17.4-1a77 77 0 0 1 14.2 2.7l.9.3.8.5q.8.5.7 1.1 0 .5-.3.5z"/><path d="M985.3 910.4q.4-.1 4.3 5.3t9.7 15.6a211 211 0 0 1 17 39.9q1.4 3.9 2 8.6.1 2.4-.5 4.8-.8 2.6-2.5 4.5a11 11 0 0 1-4.2 2.9 9 9 0 0 1-5.2.3q-2.6-.7-4.4-2.3l-3.2-3a794 794 0 0 1-41.4-45.5 26 26 0 0 1-4-5.4q.4-.2 5 4.6l12.5 13.2a1664 1664 0 0 0 30.2 30.9c2 2 3.8 3.9 6 4.4s4.6-.4 6.3-2.3q1.2-1.5 1.7-3.1.6-1.8.4-3.8-.5-3.9-1.8-7.9a237 237 0 0 0-24.7-55.7q-3.4-5.7-3.2-6"/><path fill="none" stroke="#000" stroke-miterlimit="10" d="M985.3 910.4q.4-.1 4.3 5.3t9.7 15.6a211 211 0 0 1 17 39.9q1.4 3.9 2 8.6.1 2.4-.5 4.8-.8 2.6-2.5 4.5a11 11 0 0 1-4.2 2.9 9 9 0 0 1-5.2.3q-2.6-.7-4.4-2.3l-3.2-3a794 794 0 0 1-41.4-45.5 26 26 0 0 1-4-5.4q.4-.2 5 4.6l12.5 13.2a1664 1664 0 0 0 30.2 30.9c2 2 3.8 3.9 6 4.4s4.6-.4 6.3-2.3q1.2-1.5 1.7-3.1.6-1.8.4-3.8-.5-3.9-1.8-7.9a237 237 0 0 0-24.7-55.7q-3.4-5.7-3.2-6z"/><path d="M800.9 713c.4.9-4 4.2-10 7.5s-11.2 5.3-11.7 4.5 4-4.1 10-7.4 11.3-5.3 11.7-4.5"/><path fill="none" stroke="#000" stroke-miterlimit="10" d="M800.9 713c.4.9-4 4.2-10 7.5s-11.2 5.3-11.7 4.5 4-4.1 10-7.4 11.3-5.3 11.7-4.5z"/><path fill="#fff" d="M910.4 550.9a152 152 0 0 1-3.6-97.5c9.7 3.4 25 10.2 39.9 23.7 3.4 3 19.4 17.7 30.5 43.2 15 34.3 11.5 66 8.7 80.7-4.4 23.3-13.6 39-20.8 51.5A170 170 0 0 1 857 737c-3.6 6-9.3 14.2-17.9 22.7-6 6-9.6 9.5-15.3 11.6-13 4.8-26.1-1.5-31.3-4.4l-3.1-36.4a73 73 0 0 1 19.5-22.6c-4-2.2-4.8-4.5-5-5.5-.9-5.5 7.7-11.4 14.3-13.2 12.7-3.5 24.1 6.1 25.8 7.6a99 99 0 0 0 32.2-18.8c14-12.2 21.2-25.7 28-38.6 5.6-10.5 9.8-18.3 12.4-28.7 2.2-9 6-30.7-6.3-59.7"/><path d="m980.2 620.6.5-2q.7-1.8 1.8-5.6a99 99 0 0 0 3.3-21.1q.7-13.8-1.3-32-.8-9-2.6-18.6l-1.1-4.8-.6-2.4-.7-2.4-1.5-4.8-1.8-4.8-1-2.4-3.2-7-2.4-4.3-1.1-2.2-1.3-2-2.6-4.2-2.8-3.8q-2.7-3.8-5.6-7.2l-3-3.3-2.9-3.2q-3-3-6-5.7l-3-2.5-2.8-2.5-5.8-4.2c-7.4-5.2-14-8.4-18.6-10.7q-7-3-7.2-3.5.3-.3 7.7 2.3c4.8 2 11.7 4.9 19.4 10l6 4.1 3 2.4 3.1 2.6 6.3 5.7 3 3.2q1.6 1.5 3 3.3l6 7.3 2.8 4 2.7 4.2 1.3 2 1.2 2.3 2.5 4.5 3.3 7.1 1 2.5 1.9 5 1.5 4.9.7 2.5.6 2.5 1.2 4.9q1.8 10 2.4 19c1 12 1.4 23.1.6 32.3a85 85 0 0 1-6.8 26.9z"/><path fill="none" stroke="#000" stroke-miterlimit="10" d="m980.2 620.6.5-2q.7-1.8 1.8-5.6a99 99 0 0 0 3.3-21.1q.7-13.8-1.3-32-.8-9-2.6-18.6l-1.1-4.8-.6-2.4-.7-2.4-1.5-4.8-1.8-4.8-1-2.4-3.2-7-2.4-4.3-1.1-2.2-1.3-2-2.6-4.2-2.8-3.8q-2.7-3.8-5.6-7.2l-3-3.3-2.9-3.2q-3-3-6-5.7l-3-2.5-2.8-2.5-5.8-4.2c-7.4-5.2-14-8.4-18.6-10.7q-7-3-7.2-3.5.3-.3 7.7 2.3c4.8 2 11.7 4.9 19.4 10l6 4.1 3 2.4 3.1 2.6 6.3 5.7 3 3.2q1.6 1.5 3 3.3l6 7.3 2.8 4 2.7 4.2 1.3 2 1.2 2.3 2.5 4.5 3.3 7.1 1 2.5 1.9 5 1.5 4.9.7 2.5.6 2.5 1.2 4.9q1.8 10 2.4 19c1 12 1.4 23.1.6 32.3a85 85 0 0 1-6.8 26.9z"/><path d="M912.4 621.5c-.5-.2.7-4 2.1-10.4l.5-2.5.5-2.7.8-6a115 115 0 0 0-.8-27.7l-1.1-6-.6-2.6-.7-2.4c-1.7-6.3-3.1-10.1-2.7-10.3s2.6 3.3 5 9.6l.8 2.4.8 2.7 1.5 6.1a90 90 0 0 1 .8 28.6q-.5 3.3-1.2 6.1l-.6 2.8-.8 2.5c-2 6.4-4 10-4.3 9.8"/><path fill="none" stroke="#000" stroke-miterlimit="10" d="M912.4 621.5c-.5-.2.7-4 2.1-10.4l.5-2.5.5-2.7.8-6a115 115 0 0 0-.8-27.7l-1.1-6-.6-2.6-.7-2.4c-1.7-6.3-3.1-10.1-2.7-10.3s2.6 3.3 5 9.6l.8 2.4.8 2.7 1.5 6.1a90 90 0 0 1 .8 28.6q-.5 3.3-1.2 6.1l-.6 2.8-.8 2.5c-2 6.4-4 10-4.3 9.8z"/><path d="M981.1 625c-.2 0-.1-1.2-1.5-2.4q-1-.9-2.8-1.8l-4.4-1.6q-5.2-1.6-12-2.2a71 71 0 0 0-15 .4c-10.7 1.4-20 4.6-26.8 6.8-6.7 2.2-11 3.5-11.2 3.1s3.8-2.5 10.4-5.3q5-2.2 11.9-4.4t15.2-3.4a64 64 0 0 1 15.7-.2 48 48 0 0 1 17 5.2q2 1.2 3 2.6a4 4 0 0 1 .8 2.4q0 .9-.3.8"/><path fill="none" stroke="#000" stroke-miterlimit="10" d="M981.1 625c-.2 0-.1-1.2-1.5-2.4q-1-.9-2.8-1.8l-4.4-1.6q-5.2-1.6-12-2.2a71 71 0 0 0-15 .4c-10.7 1.4-20 4.6-26.8 6.8-6.7 2.2-11 3.5-11.2 3.1s3.8-2.5 10.4-5.3q5-2.2 11.9-4.4t15.2-3.4a64 64 0 0 1 15.7-.2 48 48 0 0 1 17 5.2q2 1.2 3 2.6a4 4 0 0 1 .8 2.4q0 .9-.3.8z"/><path d="M845 696.7c-.2-.5 4.7-3.1 12-8l3-2 3-2.2 6.6-5a174 174 0 0 0 26.3-27.3q2.6-3.5 4.8-6.8l2.2-3 1.8-3c4.7-7.6 7.1-12.5 7.6-12.3.3.1-1.4 5.5-5.6 13.4l-1.7 3.1-2 3.3q-2 3.4-4.7 7a142 142 0 0 1-26.9 28q-3.5 2.6-6.8 4.8l-3.3 2.1-3 1.8a46 46 0 0 1-13.2 6"/><path fill="none" stroke="#000" stroke-miterlimit="10" d="M845 696.7c-.2-.5 4.7-3.1 12-8l3-2 3-2.2 6.6-5a174 174 0 0 0 26.3-27.3q2.6-3.5 4.8-6.8l2.2-3 1.8-3c4.7-7.6 7.1-12.5 7.6-12.3.3.1-1.4 5.5-5.6 13.4l-1.7 3.1-2 3.3q-2 3.4-4.7 7a142 142 0 0 1-26.9 28q-3.5 2.6-6.8 4.8l-3.3 2.1-3 1.8a46 46 0 0 1-13.2 6z"/><path d="M858.2 738q0-.4 6.3-2.7l3.4-1.2 4-1.7q4.3-1.7 9.6-4.3l5.5-2.6 5.7-3.2 3-1.7 1.6-.9 1.6-1 6.3-4a207 207 0 0 0 26-20.9c8.5-8.2 15.8-16.9 21.9-25.1l4.3-6.2 1-1.5 1-1.5 1.8-3 3.4-5.6 2.9-5.4q2.8-5.1 4.6-9.4l1.9-3.9q.8-1.8 1.3-3.4 2.6-6.1 3-6.1.3.1-1.8 6.6l-1 3.5-1.7 4q-1.6 4.5-4.3 9.8l-2.7 5.5-3.3 5.8-1.8 3.1-1 1.6q-.4.8-1 1.5l-4.2 6.3c-6 8.5-13.4 17.4-22 25.8a192 192 0 0 1-26.7 21l-6.5 4-1.5 1-1.6.8-3.2 1.7-6 3-5.6 2.5q-5.4 2.4-9.9 4l-4 1.4q-2.1.4-3.6 1a27 27 0 0 1-6.7 1.4"/><path fill="none" stroke="#000" stroke-miterlimit="10" d="M858.2 738q0-.4 6.3-2.7l3.4-1.2 4-1.7q4.3-1.7 9.6-4.3l5.5-2.6 5.7-3.2 3-1.7 1.6-.9 1.6-1 6.3-4a207 207 0 0 0 26-20.9c8.5-8.2 15.8-16.9 21.9-25.1l4.3-6.2 1-1.5 1-1.5 1.8-3 3.4-5.6 2.9-5.4q2.8-5.1 4.6-9.4l1.9-3.9q.8-1.8 1.3-3.4 2.6-6.1 3-6.1.3.1-1.8 6.6l-1 3.5-1.7 4q-1.6 4.5-4.3 9.8l-2.7 5.5-3.3 5.8-1.8 3.1-1 1.6q-.4.8-1 1.5l-4.2 6.3c-6 8.5-13.4 17.4-22 25.8a192 192 0 0 1-26.7 21l-6.5 4-1.5 1-1.6.8-3.2 1.7-6 3-5.6 2.5q-5.4 2.4-9.9 4l-4 1.4q-2.1.4-3.6 1a27 27 0 0 1-6.7 1.4z"/><path d="M842.6 696.1c-.4.3-2.3-1.4-5.8-3.3q-2.6-1.6-6.4-2.4-3.8-1-8.1-.1t-7.3 3.3-5.2 4.9a23 23 0 0 1-4 3.1q-1.5 1-1.8.7-.1-.3 1-1.6l3-3.8q2-2.5 5-5.6a18 18 0 0 1 8.6-4.2 20 20 0 0 1 16.4 3.8c3.5 2.6 4.9 5 4.6 5.2"/><path fill="none" stroke="#000" stroke-miterlimit="10" d="M842.6 696.1c-.4.3-2.3-1.4-5.8-3.3q-2.6-1.6-6.4-2.4-3.8-1-8.1-.1t-7.3 3.3-5.2 4.9a23 23 0 0 1-4 3.1q-1.5 1-1.8.7-.1-.3 1-1.6l3-3.8q2-2.5 5-5.6a18 18 0 0 1 8.6-4.2 20 20 0 0 1 16.4 3.8c3.5 2.6 4.9 5 4.6 5.2z"/><path d="M788.7 732.5c-.4-.2 0-2.7 1.6-6.4a39 39 0 0 1 16.3-18l5.8-3.6c3-2.1 4.3-4.2 4.8-4q.3.2-.4 1.9t-3 3.9a45 45 0 0 1-5.6 4.4 56 56 0 0 0-15.9 16.5c-2 3.3-3.2 5.4-3.6 5.3"/><path fill="none" stroke="#000" stroke-miterlimit="10" d="M788.7 732.5c-.4-.2 0-2.7 1.6-6.4a39 39 0 0 1 16.3-18l5.8-3.6c3-2.1 4.3-4.2 4.8-4q.3.2-.4 1.9t-3 3.9a45 45 0 0 1-5.6 4.4 56 56 0 0 0-15.9 16.5c-2 3.3-3.2 5.4-3.6 5.3z"/><path d="M837 762.2c.4.3-1 2.8-4.5 5.8a28 28 0 0 1-16.5 6.3q-5.4.2-9.8-1-4.4-1.3-7.4-2.7c-4-1.9-6.4-3.3-6.2-3.7s2.8.3 7 1.5c4.1 1.2 9.9 3 16.2 2.7a33 33 0 0 0 15.4-5c3.6-2.2 5.5-4.2 5.9-3.9"/><path fill="none" stroke="#000" stroke-miterlimit="10" d="M837 762.2c.4.3-1 2.8-4.5 5.8a28 28 0 0 1-16.5 6.3q-5.4.2-9.8-1-4.4-1.3-7.4-2.7c-4-1.9-6.4-3.3-6.2-3.7s2.8.3 7 1.5c4.1 1.2 9.9 3 16.2 2.7a33 33 0 0 0 15.4-5c3.6-2.2 5.5-4.2 5.9-3.9z"/><path d="M857 737q.5 0 .2 1.5-.3 1.6-1.7 3.6a126 126 0 0 1-20.2 22.2c-.7-.6 3.8-7 10-14.5 3.2-3.6 6.2-6.9 8.4-9 2.2-2.3 3-4 3.4-3.8"/><path fill="none" stroke="#000" stroke-miterlimit="10" d="M857 737q.5 0 .2 1.5-.3 1.6-1.7 3.6a126 126 0 0 1-20.2 22.2c-.7-.6 3.8-7 10-14.5 3.2-3.6 6.2-6.9 8.4-9 2.2-2.3 3-4 3.4-3.8z"/><path d="M821.2 722.2q0 .3-1 1.2l-4.7 4.8q-1.2 1.2-2.7 2-3.1 2-7 3.2-3.7 1.1-6.7 2.3t-5 2.4c-2.8 1.7-4 3.4-4.4 3.1q-.4 0 .3-1.6.6-1.4 2.6-3.3 2.1-1.9 5.3-3.4 3.2-1.4 6.9-2.6 3.6-1.2 6.5-2.6 2.7-1.5 4.6-3.2a15 15 0 0 1 3.6-2.1q1.5-.5 1.7-.2"/><path fill="none" stroke="#000" stroke-miterlimit="10" d="M821.2 722.2q0 .3-1 1.2l-4.7 4.8q-1.2 1.2-2.7 2-3.1 2-7 3.2-3.7 1.1-6.7 2.3t-5 2.4c-2.8 1.7-4 3.4-4.4 3.1q-.4 0 .3-1.6.6-1.4 2.6-3.3 2.1-1.9 5.3-3.4 3.2-1.4 6.9-2.6 3.6-1.2 6.5-2.6 2.7-1.5 4.6-3.2a15 15 0 0 1 3.6-2.1q1.5-.5 1.7-.2z"/><path d="M824.3 737.2q.2.3-.6 1.6-.7 1.4-3 3a22 22 0 0 1-5.6 3q-3.4 1.1-7.3 2l-7.1 1.4q-3.2.9-5.5 1.8c-3 1.3-4.6 2.7-5 2.3q-.2-.2.7-1.5 1-1.2 3.2-2.8t5.7-2.6a63 63 0 0 1 7.4-1.8q3.8-.7 7-1.6 3.1-1 5.3-2c2.9-1.5 4.4-3 4.8-2.8"/><path fill="none" stroke="#000" stroke-miterlimit="10" d="M824.3 737.2q.2.3-.6 1.6-.7 1.4-3 3a22 22 0 0 1-5.6 3q-3.4 1.1-7.3 2l-7.1 1.4q-3.2.9-5.5 1.8c-3 1.3-4.6 2.7-5 2.3q-.2-.2.7-1.5 1-1.2 3.2-2.8t5.7-2.6a63 63 0 0 1 7.4-1.8q3.8-.7 7-1.6 3.1-1 5.3-2c2.9-1.5 4.4-3 4.8-2.8z"/><path d="M819.6 755.7c.2.4-1.2 1.5-3.8 2.3q-1.9.7-4.6 1l-5.6.5-10 .3q-3.8.4-4.2-.1-.2-.8 3.8-2.2 4.1-1 10.3-1.2l5.5-.2 4.4-.3q3.8-.6 4.2 0"/><path fill="none" stroke="#000" stroke-miterlimit="10" d="M819.6 755.7c.2.4-1.2 1.5-3.8 2.3q-1.9.7-4.6 1l-5.6.5-10 .3q-3.8.4-4.2-.1-.2-.8 3.8-2.2 4.1-1 10.3-1.2l5.5-.2 4.4-.3q3.8-.6 4.2 0z"/><path d="M882 460.5c.3 0-.6 5.2-4.5 12.5q-3 5.7-8.6 11.8-5.8 6.2-14.7 10.6l-4.4 1.7-2.3.6-2.2.5q-4.5 1-8.8.6a23 23 0 0 1-11.1-3.7l-2.6-2.3c-3-3.3-4-7-4-9.3s.7-3.7.9-3.6c.3 0 0 1.3.4 3.5.4 2 1.6 5.1 4.4 7.8 2.6 2.6 7 4.4 12.1 4.6q4 .3 8-.7l2.1-.5 2-.6q2.2-.6 4.2-1.6 8.2-4 13.8-9.7t8.8-10.8c4.3-6.8 6-11.6 6.5-11.4"/><path fill="none" stroke="#000" stroke-miterlimit="10" d="M882 460.5c.3 0-.6 5.2-4.5 12.5q-3 5.7-8.6 11.8-5.8 6.2-14.7 10.6l-4.4 1.7-2.3.6-2.2.5q-4.5 1-8.8.6a23 23 0 0 1-11.1-3.7l-2.6-2.3c-3-3.3-4-7-4-9.3s.7-3.7.9-3.6c.3 0 0 1.3.4 3.5.4 2 1.6 5.1 4.4 7.8 2.6 2.6 7 4.4 12.1 4.6q4 .3 8-.7l2.1-.5 2-.6q2.2-.6 4.2-1.6 8.2-4 13.8-9.7t8.8-10.8c4.3-6.8 6-11.6 6.5-11.4z"/><path fill="none" stroke="#000" stroke-width="4" d="M799.5 602s-12.7 32-31.5 67.2m-15.7-107.9s-1.2 19.8-3.5 28.3c-2 7.1-7.7 20.6-7.7 20.6"/></g><g style="display:block"><path fill="#fff" d="M831.7 497.7c-12.1-4.8-11.3-22.6-19.5-23.3-8.5-.7-11.4 18.6-24.8 23.1-11.3 3.8-22.7-6.5-36.9-15-24.7-15-70.8-42.7-69-78 2-43.7 75-65.6 81.6-67.5 13-3.7 79.2-22.8 112.7 17 19 22.7 21.4 57 13.3 81.7-1.2 3.7-6 10.3-11.5 22.6-7.4 16.3-6.5 18.5-10.8 24-8 10.3-24 19.8-35.1 15.4"/><path d="M706.1 335.7c-5 6.9-8.1 12.8-14.5 24.7-14 26-17 39.5-17.8 43.5-2.3 11-3.9 18.8-.6 28.3a37 37 0 0 0 32.5 25.5c1 4.5 2.7 10.9 6.2 18 4 8.2 10 20.9 24.2 29a51 51 0 0 0 35.5 6.3c4-.8 16.6-3.6 26.3-15.1a45 45 0 0 0 9.7-22c-8.2 3-25.8 7.8-42.6.1-4.7-2.1-9.8-5.5-21.3-18.3a293 293 0 0 1-31-41.5 193 193 0 0 0 15.6-47.7 56 56 0 0 0 18.2 14.7c19 9.5 39.5 5.3 52.8 2.6q8.2-1.8 12.5-3.3c.6-1.4 2.9-6.7 7.9-8.2 8.6-2.6 16.5 8.7 17 9.6 1.3 1.9 7.1 10.5 2.9 19.2-3.7 7.4-12 9.1-13 9.3a66 66 0 0 0 10.1 22.5c5.1 7.2 12 16.9 23.3 19.1 10.1 2 18.4-3 27.1-8.2a62 62 0 0 0 26.6-30.3c1.1-2.7 3.3-8.5 3.8-16.4 1-17.7-7.6-37.4-24.3-48.9a58 58 0 0 0-36.8-9.6 49 49 0 0 1-14.8-10c-10.6-10.7-9.2-19.6-17.8-30a49 49 0 0 0-28-15.6c-15.5-2.8-27.7 3.8-43.6 12.3a140 140 0 0 0-46 40.4"/><path d="m828.8 486.7-.4-1.5q-.2-1.6-1.8-4c-1.1-1.4-2.9-3-5.3-4a18 18 0 0 0-8.8-1.6q-5 .5-11 2.4c-3.9 1.2-8.2 2.7-13.1 3q-7.5.6-15-2.3a51 51 0 0 1-14-8q-6.5-5-12-10.4a312 312 0 0 1-36-43.3 21 21 0 0 1-3-5.3c.4-.3 5.6 6.7 14.6 17.5a420 420 0 0 0 26.7 28.8 116 116 0 0 0 18.1 14.4q3.3 2 6.7 3.3 7 2.7 13.7 2.3c4.4-.2 8.6-1.5 12.6-2.6q6.1-1.8 11.6-2.1a19 19 0 0 1 9.7 2.3q4 2.1 5.6 5a9 9 0 0 1 1.4 4.5q0 1.5-.3 1.6"/><path fill="none" stroke="#000" stroke-miterlimit="10" d="m828.8 486.7-.4-1.5q-.2-1.6-1.8-4c-1.1-1.4-2.9-3-5.3-4a18 18 0 0 0-8.8-1.6q-5 .5-11 2.4c-3.9 1.2-8.2 2.7-13.1 3q-7.5.6-15-2.3a51 51 0 0 1-14-8q-6.5-5-12-10.4a312 312 0 0 1-36-43.3 21 21 0 0 1-3-5.3c.4-.3 5.6 6.7 14.6 17.5a420 420 0 0 0 26.7 28.8 116 116 0 0 0 18.1 14.4q3.3 2 6.7 3.3 7 2.7 13.7 2.3c4.4-.2 8.6-1.5 12.6-2.6q6.1-1.8 11.6-2.1a19 19 0 0 1 9.7 2.3q4 2.1 5.6 5a9 9 0 0 1 1.4 4.5q0 1.5-.3 1.6z"/><path d="M706.9 456.9c0 .1-2 .7-5.8.3s-9.2-2-14.7-6a37 37 0 0 1-13.6-19.1 57 57 0 0 1-1.1-28.7c2-10.1 6-19 9.8-26.9q6-11.7 10.9-20.4a138 138 0 0 1 10.8-18.3c.4.2-3 7.6-8.8 19.4l-10.2 20.6a115 115 0 0 0-9.3 26.2 56 56 0 0 0 .7 27.2 37 37 0 0 0 12.2 18.2c5 4 10 5.8 13.5 6.5s5.6.7 5.6 1"/><path fill="none" stroke="#000" stroke-miterlimit="10" d="M706.9 456.9c0 .1-2 .7-5.8.3s-9.2-2-14.7-6a37 37 0 0 1-13.6-19.1 57 57 0 0 1-1.1-28.7c2-10.1 6-19 9.8-26.9q6-11.7 10.9-20.4a138 138 0 0 1 10.8-18.3c.4.2-3 7.6-8.8 19.4l-10.2 20.6a115 115 0 0 0-9.3 26.2 56 56 0 0 0 .7 27.2 37 37 0 0 0 12.2 18.2c5 4 10 5.8 13.5 6.5s5.6.7 5.6 1z"/><path d="M808 473.6q.4.1-.8 5.8a50 50 0 0 1-14 23 41 41 0 0 1-24.6 10.5 53 53 0 0 1-15.2-.8 53 53 0 0 1-34.4-22.5q-3.1-5.2-5.4-9.6-4.5-9.1-6.4-14.5a19 19 0 0 1-1.7-5.6c.4-.1 3.7 7.4 10.2 19q2.4 4.3 5.5 9.2 3.3 4.7 8 9a52 52 0 0 0 52 9.5 40 40 0 0 0 17.5-14A60 60 0 0 0 806 479q1.8-5.4 2-5.4"/><path fill="none" stroke="#000" stroke-miterlimit="10" d="M808 473.6q.4.1-.8 5.8a50 50 0 0 1-14 23 41 41 0 0 1-24.6 10.5 53 53 0 0 1-15.2-.8 53 53 0 0 1-34.4-22.5q-3.1-5.2-5.4-9.6-4.5-9.1-6.4-14.5a19 19 0 0 1-1.7-5.6c.4-.1 3.7 7.4 10.2 19q2.4 4.3 5.5 9.2 3.3 4.7 8 9a52 52 0 0 0 52 9.5 40 40 0 0 0 17.5-14A60 60 0 0 0 806 479q1.8-5.4 2-5.4z"/><path d="M727.3 368.5c.5 0 .4 3.1-.3 8a75 75 0 0 1-5.3 18.6c-3 7-7.3 12.7-11 16.1-3.6 3.5-6.4 4.9-6.7 4.6s2-2.4 5-6.1c3.1-3.7 6.8-9.2 9.7-15.9 3-6.7 4.7-13.1 6-17.8s2.2-7.6 2.6-7.5"/><path fill="none" stroke="#000" stroke-miterlimit="10" d="M727.3 368.5c.5 0 .4 3.1-.3 8a75 75 0 0 1-5.3 18.6c-3 7-7.3 12.7-11 16.1-3.6 3.5-6.4 4.9-6.7 4.6s2-2.4 5-6.1c3.1-3.7 6.8-9.2 9.7-15.9 3-6.7 4.7-13.1 6-17.8s2.2-7.6 2.6-7.5z"/><path d="M746.4 448.5c0-.3 1.5.5 4 1.2 1.3.3 3 .6 4.3-.1q1-.6 1.7-1.8.5-1.2.3-3-.2-1.5-.8-3.5l-1.2-3.8a51 51 0 0 0-13.5-19.7l-2-1.7-2.2-1.6q-2.2-1.5-4.3-1.6-2.2 0-3.4 1.5-1.2 1.7-1.3 4v2.3q0 1.2.3 2.3a27 27 0 0 0 3.1 8.2q2.2 3.6 4.5 6.3 5 5.3 8.3 7.9t3.2 2.9q-.3.3-4-1.9a50 50 0 0 1-14.3-13.9q-2.5-3.8-3.7-8.9l-.5-2.6v-2.8q0-3 1.9-5.7a7 7 0 0 1 6-2.9q3.5.4 6 2.2l2.4 1.8 2.1 1.8a48 48 0 0 1 15.7 29.4 8 8 0 0 1-.8 3.9 5 5 0 0 1-2.7 2.5 6 6 0 0 1-3.1.3q-1.4-.1-2.4-.6c-2.6-1.2-3.7-2.3-3.6-2.4"/><path fill="none" stroke="#000" stroke-miterlimit="10" d="M746.4 448.5c0-.3 1.5.5 4 1.2 1.3.3 3 .6 4.3-.1q1-.6 1.7-1.8.5-1.2.3-3-.2-1.5-.8-3.5l-1.2-3.8a51 51 0 0 0-13.5-19.7l-2-1.7-2.2-1.6q-2.2-1.5-4.3-1.6-2.2 0-3.4 1.5-1.2 1.7-1.3 4v2.3q0 1.2.3 2.3a27 27 0 0 0 3.1 8.2q2.2 3.6 4.5 6.3 5 5.3 8.3 7.9t3.2 2.9q-.3.3-4-1.9a50 50 0 0 1-14.3-13.9q-2.5-3.8-3.7-8.9l-.5-2.6v-2.8q0-3 1.9-5.7a7 7 0 0 1 6-2.9q3.5.4 6 2.2l2.4 1.8 2.1 1.8a48 48 0 0 1 15.7 29.4 8 8 0 0 1-.8 3.9 5 5 0 0 1-2.7 2.5 6 6 0 0 1-3.1.3q-1.4-.1-2.4-.6c-2.6-1.2-3.7-2.3-3.6-2.4z"/><path d="M760.9 422.6q-.5.6-2 .6-1.3 0-3.4.6-1.9.7-3.2 1.4-1.2.8-1.8.6-.7-.4.1-2.2c.7-1.1 2-2.4 4-3q3-.7 4.9.3 1.8 1 1.4 1.7"/><path fill="none" stroke="#000" stroke-miterlimit="10" d="M760.9 422.6q-.5.6-2 .6-1.3 0-3.4.6-1.9.7-3.2 1.4-1.2.8-1.8.6-.7-.4.1-2.2c.7-1.1 2-2.4 4-3q3-.7 4.9.3 1.8 1 1.4 1.7z"/><path d="M764.5 427q.3 0 4.3 2.9 2 1.4 5 3.2c1.9 1.1 4.1 2.8 6.6 2.8s5.2-1.6 6.8-4.2c1.7-2.5 2-6 1.3-9.5q-1.2-5.4-4.5-10.7-3-5.4-7.3-10.4a21 21 0 0 0-9.7-7q-2.8-.7-5.3 0t-4.1 2.6a14 14 0 0 0-2.5 9.4q.5 4.8 2.1 8.9a38 38 0 0 0 7.3 11.3q3.5 3.4 3.5 3.6-.3.4-4.4-2.7a33 33 0 0 1-11.2-21q-.2-2.6.3-5.6t2.5-5.8q2.2-2.7 5.7-3.8 3.4-.8 7 0 3.3 1 6.2 3.2 2.8 2.1 5 4.8 4.5 5.1 7.7 10.9 3.3 5.6 4.7 11.7.5 3 .1 6.1a13 13 0 0 1-6.2 9.2 9 9 0 0 1-5 1.3q-2.7-.3-4.5-1.5l-3.2-2q-2.9-2.1-4.7-3.8-3.7-3.5-3.5-3.9"/><path fill="none" stroke="#000" stroke-miterlimit="10" d="M764.5 427q.3 0 4.3 2.9 2 1.4 5 3.2c1.9 1.1 4.1 2.8 6.6 2.8s5.2-1.6 6.8-4.2c1.7-2.5 2-6 1.3-9.5q-1.2-5.4-4.5-10.7-3-5.4-7.3-10.4a21 21 0 0 0-9.7-7q-2.8-.7-5.3 0t-4.1 2.6a14 14 0 0 0-2.5 9.4q.5 4.8 2.1 8.9a38 38 0 0 0 7.3 11.3q3.5 3.4 3.5 3.6-.3.4-4.4-2.7a33 33 0 0 1-11.2-21q-.2-2.6.3-5.6t2.5-5.8q2.2-2.7 5.7-3.8 3.4-.8 7 0 3.3 1 6.2 3.2 2.8 2.1 5 4.8 4.5 5.1 7.7 10.9 3.3 5.6 4.7 11.7.5 3 .1 6.1a13 13 0 0 1-6.2 9.2 9 9 0 0 1-5 1.3q-2.7-.3-4.5-1.5l-3.2-2q-2.9-2.1-4.7-3.8-3.7-3.5-3.5-3.9z"/><path d="M748.1 435.4q-.3.6-2.7.2-2.5-.5-5.6-2.6t-4.4-4.3q-1.4-2-.8-2.6c.7-.6 3.4 1.8 7 4.2s6.8 4.2 6.5 5.1"/><path fill="none" stroke="#000" stroke-miterlimit="10" d="M748.1 435.4q-.3.6-2.7.2-2.5-.5-5.6-2.6t-4.4-4.3q-1.4-2-.8-2.6c.7-.6 3.4 1.8 7 4.2s6.8 4.2 6.5 5.1z"/><path d="M776 421.8c-.3.7-3.5-.1-6.6-2.5-3.2-2.3-5-5-4.3-5.7.6-.7 3.3 1 6.2 3.1 3 2.2 5.2 4.3 4.8 5"/><path fill="none" stroke="#000" stroke-miterlimit="10" d="M776 421.8c-.3.7-3.5-.1-6.6-2.5-3.2-2.3-5-5-4.3-5.7.6-.7 3.3 1 6.2 3.1 3 2.2 5.2 4.3 4.8 5z"/><path d="M773 450.3q0 .4-2 .5c-1.5 0-3.5 0-6-.9-2.3-.8-5.2-2.4-7.3-5.2s-3.2-6.4-4.2-9.9c-4.2-13.7-11.3-23.3-10.5-23.8.4-.3 2.6 1.8 5.4 5.8 2.7 4 6 10 8.2 17q1.4 5.5 3.5 9.2 2.6 3.4 5.8 4.8t5.1 1.8 2 .7"/><path fill="none" stroke="#000" stroke-miterlimit="10" d="M773 450.3q0 .4-2 .5c-1.5 0-3.5 0-6-.9-2.3-.8-5.2-2.4-7.3-5.2s-3.2-6.4-4.2-9.9c-4.2-13.7-11.3-23.3-10.5-23.8.4-.3 2.6 1.8 5.4 5.8 2.7 4 6 10 8.2 17q1.4 5.5 3.5 9.2 2.6 3.4 5.8 4.8t5.1 1.8 2 .7z"/><path d="M789 449.9q.7.3-.3 3c-.7 1.7-2.3 3.9-4.6 5.6a15 15 0 0 1-6.6 2.8q-2.8.3-3-.5c-.1-.9 3.8-2 7.7-4.9s6-6.4 6.8-6"/><path fill="none" stroke="#000" stroke-miterlimit="10" d="M789 449.9q.7.3-.3 3c-.7 1.7-2.3 3.9-4.6 5.6a15 15 0 0 1-6.6 2.8q-2.8.3-3-.5c-.1-.9 3.8-2 7.7-4.9s6-6.4 6.8-6z"/><path d="M752.7 451.7c-.1.4-2.5.2-6-1.1l-2.8-1.3q-1.5-.7-3-1.7a39 39 0 0 1-11.3-11.6q-1-1.5-1.6-3.1l-1.2-2.8c-1.3-3.6-1.4-6-1-6 .5-.2 1.4 2 3 5l1.5 2.5 1.8 2.8a54 54 0 0 0 10.5 10.7l2.7 1.9 2.4 1.5c3 1.8 5.1 2.7 5 3.2"/><path fill="none" stroke="#000" stroke-miterlimit="10" d="M752.7 451.7c-.1.4-2.5.2-6-1.1l-2.8-1.3q-1.5-.7-3-1.7a39 39 0 0 1-11.3-11.6q-1-1.5-1.6-3.1l-1.2-2.8c-1.3-3.6-1.4-6-1-6 .5-.2 1.4 2 3 5l1.5 2.5 1.8 2.8a54 54 0 0 0 10.5 10.7l2.7 1.9 2.4 1.5c3 1.8 5.1 2.7 5 3.2z"/><path d="M811.2 382c.7.6-5.1 7.3-13.4 14.4-8.2 7.2-15.6 12-16.1 11.2-.6-.7 5.9-6.6 14-13.6s14.9-12.7 15.5-12"/><path fill="none" stroke="#000" stroke-miterlimit="10" d="M811.2 382c.7.6-5.1 7.3-13.4 14.4-8.2 7.2-15.6 12-16.1 11.2-.6-.7 5.9-6.6 14-13.6s14.9-12.7 15.5-12z"/><path d="M826.1 409.7c.1-.2 1.1 0 2.8-.3s4-1.2 6-3.4a13 13 0 0 0 3.3-9.6q0-3-.8-6.3-.7-3.3-2.2-6.6-1.5-3.1-3.7-5.5a15 15 0 0 0-5-3.5 12 12 0 0 0-5.3-1q-2.6.3-4.4 1.5a10 10 0 0 0-4.2 5.4c-.5 1.7-.3 2.7-.6 2.7s-.8-.9-.6-2.9c0-2 1.2-4.9 4-7.1a11 11 0 0 1 5.5-2.2q3.3-.4 6.7.8t6.2 4 4.3 6.5a34 34 0 0 1 3.1 14.3q0 3.5-1.3 6.4t-3.3 4.8a11 11 0 0 1-7.6 3c-2-.1-3-.8-2.9-1"/><path fill="none" stroke="#000" stroke-miterlimit="10" d="M826.1 409.7c.1-.2 1.1 0 2.8-.3s4-1.2 6-3.4a13 13 0 0 0 3.3-9.6q0-3-.8-6.3-.7-3.3-2.2-6.6-1.5-3.1-3.7-5.5a15 15 0 0 0-5-3.5 12 12 0 0 0-5.3-1q-2.6.3-4.4 1.5a10 10 0 0 0-4.2 5.4c-.5 1.7-.3 2.7-.6 2.7s-.8-.9-.6-2.9c0-2 1.2-4.9 4-7.1a11 11 0 0 1 5.5-2.2q3.3-.4 6.7.8t6.2 4 4.3 6.5a34 34 0 0 1 3.1 14.3q0 3.5-1.3 6.4t-3.3 4.8a11 11 0 0 1-7.6 3c-2-.1-3-.8-2.9-1z"/><path d="M811.2 379.7c.1.4-4.3 2.8-12 5.4a107 107 0 0 1-14 3.6 56 56 0 0 1-34.7-4.3 57 57 0 0 1-19.2-14.3q-2-2.9-2-3.1c.5-.4 3.7 3.5 10.3 8a66 66 0 0 0 28.4 11c11.9 1.7 22.7-1.3 30.5-3.1 7.8-2 12.5-3.6 12.7-3.2"/><path fill="none" stroke="#000" stroke-miterlimit="10" d="M811.2 379.7c.1.4-4.3 2.8-12 5.4a107 107 0 0 1-14 3.6 56 56 0 0 1-34.7-4.3 57 57 0 0 1-19.2-14.3q-2-2.9-2-3.1c.5-.4 3.7 3.5 10.3 8a66 66 0 0 0 28.4 11c11.9 1.7 22.7-1.3 30.5-3.1 7.8-2 12.5-3.6 12.7-3.2z"/><path d="M917 406c-.4 0 .2-4.3-.7-11.8A66 66 0 0 0 905 365a60 60 0 0 0-39-23.8c-4.3-.7-9-.8-13.8-2.5a25 25 0 0 1-12-9.3q-4.3-6.2-7.8-13-1.8-3.5-3.7-6.6a52 52 0 0 0-27.6-23.5 36 36 0 0 0-26.6.8q-6 2.5-11.7 5.5a200 200 0 0 0-52.6 40.3c-5.2 5.6-8 8.8-8.1 8.7q-.2-.2 1.6-2.6l2.3-3 3.2-4a177 177 0 0 1 41.4-35.6 195 195 0 0 1 22.8-12.1q6.5-2.7 14-3.2T802 283t13.6 7.3a61 61 0 0 1 15.8 17.6l3.7 6.7q3.4 6.9 7.6 12.6a30 30 0 0 0 4.7 5q2.7 2 5.7 3.4c4.1 1.5 8.8 1.6 13.3 2.4a62 62 0 0 1 48.6 42.2 62 62 0 0 1 2.5 22.7z"/><path fill="none" stroke="#000" stroke-miterlimit="10" d="M917 406c-.4 0 .2-4.3-.7-11.8A66 66 0 0 0 905 365a60 60 0 0 0-39-23.8c-4.3-.7-9-.8-13.8-2.5a25 25 0 0 1-12-9.3q-4.3-6.2-7.8-13-1.8-3.5-3.7-6.6a52 52 0 0 0-27.6-23.5 36 36 0 0 0-26.6.8q-6 2.5-11.7 5.5a200 200 0 0 0-52.6 40.3c-5.2 5.6-8 8.8-8.1 8.7q-.2-.2 1.6-2.6l2.3-3 3.2-4a177 177 0 0 1 41.4-35.6 195 195 0 0 1 22.8-12.1q6.5-2.7 14-3.2T802 283t13.6 7.3a61 61 0 0 1 15.8 17.6l3.7 6.7q3.4 6.9 7.6 12.6a30 30 0 0 0 4.7 5q2.7 2 5.7 3.4c4.1 1.5 8.8 1.6 13.3 2.4a62 62 0 0 1 48.6 42.2 62 62 0 0 1 2.5 22.7z"/><path d="M915.1 408v1.4l-.3 1.6-.2 1-.3 1.2-.8 2.6-1.2 3q-.6 1.8-1.6 3.5l-2.1 3.7-2.7 3.9-1.5 2-1.7 2-1.8 2-2 1.9-2.1 1.9-2.3 1.8a56 56 0 0 1-23.5 10.6q-6.8 1.5-13.5.4a24 24 0 0 1-11.6-5.6 50 50 0 0 1-17.4-29.8q-.6-5-.2-5.1.2 0 1.4 4.8a51 51 0 0 0 18 27.7c3 2.3 6.5 4.2 10.4 4.8q5.8 1 12.3-.4a56 56 0 0 0 24.5-11.5l2-1.8 1-.8 1-1 1.8-1.8 1.7-1.8 1.5-1.8q1.6-1.9 2.7-3.6l2.2-3.5q1.1-1.7 1.8-3.2l1.4-2.9 1-2.5.5-1 1-2.4q.4-1.3.6-1.2"/><path fill="none" stroke="#000" stroke-miterlimit="10" d="M915.1 408v1.4l-.3 1.6-.2 1-.3 1.2-.8 2.6-1.2 3q-.6 1.8-1.6 3.5l-2.1 3.7-2.7 3.9-1.5 2-1.7 2-1.8 2-2 1.9-2.1 1.9-2.3 1.8a56 56 0 0 1-23.5 10.6q-6.8 1.5-13.5.4a24 24 0 0 1-11.6-5.6 50 50 0 0 1-17.4-29.8q-.6-5-.2-5.1.2 0 1.4 4.8a51 51 0 0 0 18 27.7c3 2.3 6.5 4.2 10.4 4.8q5.8 1 12.3-.4a56 56 0 0 0 24.5-11.5l2-1.8 1-.8 1-1 1.8-1.8 1.7-1.8 1.5-1.8q1.6-1.9 2.7-3.6l2.2-3.5q1.1-1.7 1.8-3.2l1.4-2.9 1-2.5.5-1 1-2.4q.4-1.3.6-1.2z"/></g><g style="display:block"><path d="M824.6 686.5c-16 1.3-21.9 16.8-21.9 16.8s5-2.3 8.8-6.3 7.9-6.4 14.1-6.9c10.8-.9 17 9 17 6.9 0-1.9-2-11.7-18-10.5"/><path d="M817.5 700.3s-3.7 2.5-7.9 4.8a83 83 0 0 0-14.5 10.1c-2.1 2.5-8.1 16-6.7 17.2s2.2-2.4 5.2-6.8a58 58 0 0 1 16.6-15.6c8.5-5.5 7.3-9.7 7.3-9.7m2.4 21c-.4 0-3.5 2.6-14.4 7.5s-11.2 6.2-15 9.5-1.4 5.8 0 3.5 11-6 17.3-8.7a42 42 0 0 0 13.7-10.4c1.5-2-1.2-1.5-1.6-1.5m5.2 16.1c.1-1.4-3.3.3-3.8.6s-10.3 4.7-16.4 5.7a29 29 0 0 0-14.9 7c-2.4 2.7-1.3 2.7.6 2.2s8-3.9 11.3-4.4 11.1-1.9 15.3-4c4.2-2 7.8-5.7 8-7"/></g></g></svg>